<svg xmlns="http://www.w3.org/2000/svg" width="72.891" height="72.891" viewBox="0 0 72.891 72.891">
  <g id="Icon_ionic-ios-arrow-dropup" data-name="Icon ionic-ios-arrow-dropup" transform="translate(-3.375 -3.375)">
    <path id="Tracé_37" data-name="Tracé 37" d="M10.968,34.648a3.4,3.4,0,0,1,0-4.783L27.737,13.148a3.378,3.378,0,0,1,4.661-.105L48.921,29.514A3.376,3.376,0,1,1,44.155,34.3L29.962,20.315l-14.21,14.35A3.379,3.379,0,0,1,10.968,34.648Z" transform="translate(9.859 13.11)" fill="#ff974e"/>
    <path id="Tracé_38" data-name="Tracé 38" d="M39.821,76.266A36.446,36.446,0,1,0,3.375,39.821,36.44,36.44,0,0,0,39.821,76.266Zm0-5.607a30.826,30.826,0,0,1-21.8-52.636A30.826,30.826,0,1,1,61.618,61.618,30.573,30.573,0,0,1,39.821,70.659Z" transform="translate(0 0)" fill="#ff974e"/>
  </g>
</svg>
