<?xml version="1.0" encoding="UTF-8"?>
<svg id="Calque_2" data-name="Calque 2" xmlns="http://www.w3.org/2000/svg" viewBox="0 0 2949.15 1607.08">
  <defs>
    <style>
      .cls-1 {
        fill: #f3944e;
      }

      .cls-1, .cls-2, .cls-3 {
        stroke: #222c6f;
        stroke-miterlimit: 10;
        stroke-width: 2px;
      }

      .cls-2 {
        fill: #fff;
      }

      .cls-3 {
        fill: #dbe6f5;
      }

      .cls-4 {
        fill: #3848ae;
        stroke-width: 0px;
      }
    </style>
  </defs>
  <g id="Calque_2-2" data-name="Calque 2">
    <g id="Illustration">
      <rect class="cls-4" width="2949.15" height="1607.08"/>
      <g>
        <g>
          <path class="cls-2" d="m2291.15,491.27c-3.55-1.79-3.4-5.07-3.27-8.33.11-2.75.24-6.07-3-6.61-2.3-.39-5.09.81-7.34,1.92-1.58.78-2.55,2.71-3.93,3.98-3.31,3.03-6.78,5.89-10.03,8.98-1.24,1.17-2.63,2.72-2.82,4.24-.11.9,1.83,2.68,3.12,3.03,5.3,1.44,10.02,3.51,13.63,7.94,1.96,2.41,4.66,1.77,7.36.51,8.71-4.05,11.36-3.72,20.63,2.32-1.66,1.79-3.13,3.6-4.84,5.15-1.98,1.81-4.27,3.28-6.25,5.09-6.78,6.2-6.38,9.26,1.27,14.16,2.89,1.85,5.44,4.29,7.9,6.71,4.76,4.69,9.82,9.2,13.83,14.48,2.78,3.66,4.79,8.35,5.66,12.87.6,3.1.56,5.68,3.85,7.02,3.16,1.29,4.15,3.76,4.04,7.1-.2,6.1,1.06,12.4-4.44,17.26-1.19,1.05-1.16,3.48-1.71,5.27-1.25,4.11-2.3,8.29-3.8,12.3-4.14,11.13-11.56,19.3-22.73,23.69-5.24,2.06-10.7,3.55-15.96,5.56-4.47,1.7-8.77,3.83-13.19,5.67-2.21.92-4.47,1.75-6.78,2.35-2.07.54-4.27.59-6.35,1.09-8.28,2.02-9.89,6.01-5.36,13.06,3.46,5.37,3.01,9.95-1.4,14.42-3.77,3.82-9.36,4.05-12.96.53-3.18-3.11-2.79-6.84,1.15-11.24,5.35-5.98,5.79-8.06,2.58-12.4-3.43-4.65-10.13-6.86-15.06-3.56-5.7,3.83-10.79,8.72-15.6,13.68-3.36,3.47-3.27,8-.06,11.76,4.52,5.3,9.18,10.5,14.1,15.42,3.98,3.98,8.57,7.36,12.68,11.22,10.17,9.56,13.57,21.71,12.36,35.18-.25,2.8-2.47,5.85-4.61,7.93-2.24,2.16-5.35,3.6-8.31,4.8-5.4,2.19-9.86,5.34-13.15,10.21-1.19,1.75-2.74,3.35-4.42,4.66-5.53,4.32-8.41,3.19-9.01-3.91-.32-3.81-2.23-5.95-5.28-7.37-6.04-2.82-10.83-6.87-14.02-12.8-.73-1.36-1.98-2.65-3.3-3.46-6.5-4.02-13.11-7.87-20.48-12.26-.62,1.39-1.67,3.1-2.15,4.97-1.41,5.42-2.18,11.03-3.96,16.31-2.18,6.44-1.77,11.73,3,17.09,2.92,3.28,4.71,7.74,6.4,11.91,1.71,4.21,3.97,7.4,8.38,9.13,7.74,3.03,13.66,8.68,18.6,15.04,2.29,2.94,3.78,7.22,3.94,10.95.27,6.62,1.01,12.69,5.18,18.18,2.38,3.13,2.03,3.4.74,9.59-1.99-.6-4.05-.93-5.85-1.8-11.29-5.44-19.51-14.17-25.65-24.86-1.41-2.45-1.86-5.59-2.18-8.48-1.22-11.22-7.05-19.72-16-25.9-5.15-3.56-7.45-7.74-6.01-13.57,2.5-10.16.24-20.23-.15-30.32-.1-2.59-1.01-5.23-1.99-7.68-3.08-7.71-6.36-15.33-9.58-22.99-.83-1.98-1.5-4.06-2.58-5.89-2.41-4.1-4.59-4.57-8.57-1.82-2.42,1.68-4.55,3.77-6.92,5.53-3.38,2.51-6.97,2.56-10.56.42-3.7-2.2-4.04-5.7-2.75-9.18,2.06-5.55.28-9.84-3.21-14.06-2.2-2.66-3.9-5.73-5.86-8.59-.75-1.1-1.37-2.56-2.44-3.15-9.22-5.1-14.67-13.99-21.64-21.33-1.94-2.04-4-3.04-6.34-1.34-7.91,5.74-17.1,5.8-26.23,6.27-1.34.07-2.69.16-4.02.31-3.63.41-6.32,2.18-6.25,6.06.1,5.19-2.61,7.82-7.07,9.51-1.73.66-3.61,1.5-4.86,2.79-7.96,8.28-15.71,16.76-23.66,25.05-2.36,2.47-4.99,4.74-7.75,6.77-2.36,1.74-5.19,2.83-7.59,4.53-3.09,2.18-4.62,5.05-3.39,9.07.86,2.81,1.38,5.75,1.82,8.66.4,2.64,1.19,5.5.59,7.97-1.7,7.01-2.81,13.98-3.51,21.2-.45,4.67-5.23,9.02-8.36,13.31-1.72,2.36-4.01,4.31-6.06,6.43-3.48,3.59-7.1,3.98-10.32.11-2.68-3.23-4.79-7.17-6.22-11.13-3.12-8.63-6.46-16.95-12.72-24.01-2.36-2.65-3.05-6.76-4.6-10.16-2.66-5.83-4.98-11.87-8.18-17.4-8.89-15.38-13.56-32-15.6-49.49-.19-1.59.17-3.69-.71-4.64-1.21-1.31-3.3-1.99-5.14-2.44-.77-.19-1.85.9-2.78,1.43-10.74,6.08-22.49.27-23.94-12.2-.38-3.25-1.96-4.91-4.27-6.21-8.24-4.64-16.08-9.62-21.9-17.41-2.5-3.36-6.35-3.84-10.83-3.66-20.9.83-41.85,2.83-62.64-1.87-6.59-1.49-12.33-3.16-15.02-10.29-1.48-3.91-5.23-4.97-8.74-3.02-11.05,6.13-20.54,2.01-30.38-3.34-8.96-4.87-16.31-10.72-21.27-19.98-3.96-7.41-9.93-8.86-16.26-5.84-4.99,2.38-6.65,5.68-3.76,10.28,3.23,5.15,7.43,9.73,11.5,14.3,4.05,4.55,8.46,8.78,13.72,14.18.74.05,3.1.2,5.88.38.57,1.72,1.56,3.43,1.64,5.17.48,10.76,2.34,11.25,14.22,10.65,6.42-.32,11.78-3.45,16.44-7.78,2.92-2.72,5.85-5.42,9.73-9,1.61,3.18,3.22,5.51,4.02,8.08,2.21,7.15,6.37,11.46,14.25,12.06,8.2.63,12.32,7.06,16.34,13.05.88,1.31.19,4.24-.66,6.01-1.61,3.37-3.58,6.66-5.9,9.59-3.43,4.34-8.22,7.72-8.15,14.18.01,1.15-1.92,2.44-3.13,3.47-5.91,5.08-11.63,10.43-17.94,14.97-3.11,2.24-7.23,3.59-11.07,4.17-6.81,1.03-12.07,3.31-15.56,9.83-1.43,2.67-5.05,4.93-8.13,5.81-8.03,2.29-15.57,4.83-22.73,9.67-5.51,3.73-13,4.54-19.61,6.64-4.3,1.37-8.62,2.7-12.91,4.12-4.02,1.33-8,2.76-13.1,4.52-.4.96-1.3,3.14-2.08,5.02,1.26,7.45,11.53,13.38,18.43,11.68,10.07-2.48,20.31-4.24,30.45-6.41,4.93-1.05,9.94-1.94,14.68-3.58,6.64-2.31,10.49-.22,9.25,6.55-1.58,8.62-2.63,17.56-7.84,25.15-4.41,6.42-8.93,12.79-10.19,20.79-.2,1.26-.99,2.53-1.77,3.59-9.72,13.21-19.48,26.29-33.96,35.01-12.38,7.46-22.33,17.52-29.8,30.04-1.86,3.12-4.88,5.57-7.49,8.22-1.87,1.9-4.56,3.26-5.8,5.47-4.47,7.92-8.53,16.08-12.65,24.2-1.75,3.43-1.25,6.85.97,9.89,2.71,3.71,3.67,7.9,2.81,12.23-1.72,8.68,1.89,15.92,6.25,22.66,2.37,3.67,3.07,7.14,3.16,11.25.22,9.91.9,19.8,1.09,29.71.05,2.57-.38,5.56-1.69,7.68-4.58,7.4-10.14,14.07-18.93,16.65-6.95,2.04-12.46,5.8-17.33,11.16-3.76,4.13-8.55,7.32-12.85,10.97-5.87,4.98-5.86,6.58-3.97,13.96,1.78,6.95,3.01,14.14,3.47,21.28.49,7.5-3.38,12.72-10.82,15.04-3.33,1.04-6.64,2.19-9.82,3.6-3.81,1.68-5.49,4.51-5.14,8.98.85,10.9-2.86,19.76-11.9,26.57-3.5,2.64-5.88,6.87-8.51,10.56-12.41,17.4-28.1,30.33-49.33,35.15-5.66,1.28-11.75.55-17.62,1.04-4.74.4-9.48,1.07-14.17,1.92-5.5,1-10.9,2.64-16.42,3.44-8.62,1.25-18.18-9.63-15.37-18.05,1.79-5.35.9-9.25-2.2-13.43-1.75-2.35-3.37-4.95-4.36-7.68-3.24-8.91-7.19-17.13-14.26-23.95-3.01-2.9-4.77-7.97-5.38-12.29-1.68-11.92-6.67-23.28-6.04-35.61.1-1.98-.94-4.14-1.85-6.03-3.03-6.27-6.15-12.5-9.41-18.64-2.26-4.25-4.23-8.84-7.33-12.42-7.99-9.24-6.9-19.14-3.36-29.49.78-2.27,2.26-4.53,2.24-6.79-.05-8.09,3.58-14.38,8.55-20.31,6.09-7.27,7.71-15.16,2.73-23.81-2.37-4.11-2.52-8.49-1.99-13.24.42-3.8-.03-8.04-1.36-11.61-2.9-7.79-6.56-15.3-9.98-22.89-3.47-7.69-8.21-14.38-14.66-19.98-3.4-2.95-6.42-6.52-8.91-10.28-3.02-4.56-4.94-9.41-1.3-15.01,1.51-2.31,1.47-5.65,2.05-8.54,1.01-4.98,1.31-10.21,3.05-14.92,4.28-11.57-6.91-23.76-18.24-21.57-3.69.71-7.45,1.01-11.15,1.66-4.35.77-7.23-1.11-9.26-4.76-.39-.7-.87-1.36-1.22-2.08-5.46-11.31-8.74-14.58-25.64-11.95-9.93,1.54-19.73,5.26-29.01,9.31-8.44,3.68-16.09,5.5-25.5,3.14-10.15-2.55-20.93-1.92-30.75,2.86-7.62,3.71-14.61,2.79-21.25-1.97-5.46-3.92-10.72-8.11-16.08-12.16-1.93-1.46-3.77-3.14-5.91-4.21-9.58-4.78-16.52-11.27-18.44-22.62-.59-3.47-4.22-6.73-7.06-9.45-5.82-5.58-12.06-10.71-18.1-16.06-4.04-3.58-6.43-7.58-5.19-13.48.55-2.61-.39-5.85-1.51-8.43-1.85-4.24-1.4-7.85,1.55-11.18,2.98-3.36,4.59-7.11,4.65-11.67.02-1.79.82-3.68,1.63-5.35,2.71-5.6,3.59-11.09.65-16.99-.87-1.74-1.09-4.41-.41-6.2,1.48-3.88.44-6.48-2.23-9.38-4.33-4.71-4.15-6.56-.93-12.12,2.81-4.85,5.31-9.87,7.98-14.81.51-.94.93-2.06,1.72-2.71,6.19-5.12,10.45-11.36,12.36-19.27.39-1.6,2.27-2.9,3.61-4.18,1.55-1.48,3.88-2.47,4.81-4.23,4.07-7.74,11.43-10.43,18.71-13.98,5.57-2.72,10.22-7.65,14.66-12.2,1.8-1.84,2.34-5.21,2.8-8,2.13-12.84,7.24-23.71,20.06-28.87,7.82-3.15,12.89-8.48,15.85-16.12,3.37-8.69-2.92-17.29-12.14-16.6-1.61.12-3.19.58-4.79.64-3.46.12-5.41-1.29-5.8-5.08-.35-3.37-1.83-6.63-2.19-10-.3-2.77-.57-6.14.69-8.38,4.58-8.16,5.71-16.51,4.08-25.65-1.22-6.86,2.17-11.06,9.77-11.82,5.82-.58,11.78.16,17.68.37,9.66.36,19.32.94,28.98,1.09,5.05.08,7.81-2.02,8.98-6.46,2.57-9.79,2.85-19.29-5.63-26.7-2.55-2.23-5.62-3.92-8.62-5.53-1.86-1-4.35-.97-6.01-2.16-1.5-1.07-3.4-3.46-3.07-4.75.41-1.59,2.79-2.93,4.59-3.83,1.03-.52,2.62-.03,3.94.14,7.17.91,12.77-1.61,16.81-7.54,6.36,3.41,12.49,1.28,18.38-2.26.92-.55,2.25-.88,2.7-1.69,3.98-7.15,11.59-8.83,17.88-12.68,4.83-2.95,8.72-7.83,12.19-12.48,3.15-4.22,6.4-6.9,11.9-6.77,4.01.09,8.08-.32,12.05-.96,5.58-.89,7.29-3.67,5.85-9.09-.69-2.58-1.84-5.04-2.63-7.6-2.2-7.12-.14-11.22,6.98-13.71,2.72-.95,5.58-1.52,9.37-2.53.89,5,1.67,9.34,2.58,14.48,3.29-.64,6.75-.89,9.88-2.02,4.43-1.6,5.46-4.4,2.74-8.14-3.77-5.19-7.92-9.98-10.31-16.14-1.31-3.38-5.05-2.88-7.77-1.48-3.81,1.95-7.35,4.45-10.98,6.75-4.09,2.59-8.54,3.52-13.1,1.91-5.57-1.96-10.91-6.37-10.75-13.53.08-3.68-1.12-7.39-1.77-11.08-1.04-5.88-.09-8.71,4.94-11.5,7-3.88,14.12-7.6,21.42-10.89,2.56-1.15,5.79-.91,8.72-1.14,4.55-.37,7.26-2.31,10.09-6.43,4.89-7.09,9.02-15.12,16.89-19.89,5.07-3.08,11.08-6.05,6.14-13.27,1.07-1,1.46-1.67,1.82-1.65,8.39.36,15.45-2.79,22.43-7.21,3.16-2,7.73-1.8,11.67-2.55,2.63-.5,5.64-.23,7.84-1.45,10.36-5.71,21.49-5.58,32.77-5.25,4.82.14,9.67-.36,14.5-.55,5.52-.21,10.56.25,14.28,5.48,1.26,1.78,4.49,2.33,6.94,3.02,1.49.42,3.27-.27,4.8.07,13.03,2.87,26.11,5.6,39.02,8.93,6.73,1.74,13.21,4.51,19.73,6.99,3.05,1.16,6.15,2.72,5.76,6.78-.37,3.88-3.54,5.55-6.66,6.07-4.69.78-9.56,1.07-14.31.79-6.62-.39-13.07-3.16-19.82-1.64-1.23,10.69,8.12,18.68,21.92,18.11-1.99-2.3-3.55-4.12-5.39-6.25,6.48-5.41,12.83,3.33,19.15-.2,3.6-13.05,14.19-13.02,24.75-12.42,2.34-2.5,1.27-4.65.15-6.84-1.37-2.68-2.85-5.53-.29-8.18,2.52-2.61,5.71-2.72,8.96-1.34.96.41,1.86.95,2.54,1.3.32.88.75,1.43.65,1.86-.69,2.72-2.86,5.65.77,7.82,2.98,1.78,6.79,2.37,9.02-.21,5.3-6.13,13.13-7.1,19.7-10.48,4.84-2.49,10.69-3.04,16.11-4.37.72-.18,1.74-.1,2.34.29,9.54,6.19,19.04,1.67,28.61.12,3.09-.5,6.33-.21,9.48-.02,1.99.12,3.95.75,6.96,1.35-1.24-3.3-2.04-5.42-3-7.97,9.84-1.17,19.08.11,28.24,1.94,8.99,1.8,17.48,6.1,26.79,6.33.27-.63.55-1.26.82-1.9-2.11-1.18-4.09-2.72-6.34-3.49-10.36-3.55-13.22-10.57-7.77-19.54,4.95-8.15,14.43-11.02,22.89-6.53,2.19,1.17,3.95,3.47,5.42,5.59,1.31,1.89,1.95,4.25,3.46,7.73,2.32-2.31,4.02-3.73,5.39-5.42,4.42-5.42,4.48-5.59,9.98-1.41,2.55,1.94,5.04,2.7,7.09.22,4.74-5.73,10.35-7.2,17.3-4.02.66-2.98.42-6.46,1.94-7.62,2.09-1.59,5.49-1.69,8.38-1.95,5.05-.46,10.14-.55,15.43-.8.27-2.77-.25-5.56.9-7,1.33-1.66,4.07-2.46,6.35-3.05,4.41-1.15,8.97-1.75,13.39-2.85,5.71-1.42,11.46-2.79,16.99-4.76,5.26-1.88,10.29-2.74,15.68-.74,7.09,2.63,13.52,1.23,19.93-2.76,2.97-1.85,6.96-2.38,10.57-2.82,5.81-.71,11.69-1,17.56-1.16,2.83-.08,6.38-.43,8.39,1.02,6.29,4.54,13.33,4.88,20.13,3.66,11.1-1.99,20.62,1.9,30.26,6.04,1.4.6,2.82,1.72,3.67,2.98,6.41,9.53,14.86,13.37,26.63,12.24,8.93-.86,17.97.33,27.06,2.4,8.63,1.96,18.36,5.31,27.07-1.53,1.46-1.14,4.09-1.1,6.17-1.09,6.17.05,12.38.97,18.48.44,11.79-1.02,20.74,3.98,28.83,11.71,2.48,2.37,5.22,4.66,8.21,6.27,4.4,2.37,8.81,3.64,13.05-1.24,1.42-1.64,4.86-2.14,7.36-2.11,6.17.06,12.33.9,18.51,1.11,5.85.2,11.91.9,15.52-5.75.73-1.35,3.62-2.11,5.54-2.14,8.33-.15,16.67.1,25,.16,8.06.05,16.13.25,24.19,0,5.09-.17,9.58.88,13.52,4.11,3.9,3.21,8.32,4.75,13.43,4.5,1.85-.09,3.95-.09,5.56.66,9,4.24,18.3,2.95,27.7,2.24,6.95-.52,13.98-.41,20.96-.13,7.65.3,14.86,2.33,21.04,7.15,4,3.12,8.58,4.17,13.59,4.17,10.75,0,21.5.22,32.25.32,1.07,0,2.36.21,3.17-.29,6.57-4.05,12.25-1.34,18.13,1.83,2.7,1.45,5.91,1.95,9.62,3.11v-7.38c1.65-.45,3.11-1.16,4.58-1.19,4.27-.1,8.59-.27,12.81.25,3.38.42,6.96,1.23,9.9,2.86,9.41,5.21,19.48,6.52,29.7,4.57,10.48-1.99,20.02.29,29.78,3.48,6.86,2.23,14.08,3.37,21.15,4.97,2.1.48,4.26.7,6.3,1.35,11.17,3.54,22,7.58,34.35,6.47,5.93-.53,12.5,2.65,18.32,5.2,5.69,2.49,9.03,7.4,9.05,14.42-5.37,2.29-10.62,1.1-15.72-.27-6.22-1.68-12.22-4.18-18.48-5.67-4.38-1.05-9.01-1.33-13.53-1.31-2.23,0-4.78,1.05-6.62,2.39-3.77,2.74-3.79,6.77.22,9.21,3.85,2.34,8.3,3.7,12.48,5.5,3.37,1.45,7.27,2.23,8.63,7.3-1.9.36-3.65,1.15-5.25.92-9.47-1.42-15.82,3.74-21.67,9.96-1.27,1.35-2.04,3.16-3.13,4.68-3.93,5.48-4.86,5.97-11.46,3.73-6.16-2.09-11.69-2.81-17.53,1.46-2.18,1.6-6.15.93-9.3.98-6.72.11-7.62,1.43-6.79,8.15.72,5.85,2.83,9.43,9.36,9.87,2.34.16,4.68,2.26,6.75,3.83,1.91,1.44,3.2,3.79,5.22,4.97,3.79,2.21,6.6,4.36,5.13,9.5-.35,1.24,1.3,3.32,2.45,4.65,1.51,1.74,3.43,3.12,5.52,4.95-3.79,3.72-5.68,6.55-3.66,12.1,1.49,4.1-.64,9.69,1.44,14.62.46,1.09-1.05,3.78-2.36,4.6-1.17.74-3.54.37-4.98-.32-2.14-1.03-3.97-2.74-5.86-4.24-10.53-8.36-21.07-16.7-31.54-25.12-7.2-5.78-13.59-12.19-16.63-21.29-1.22-3.65-1.48-6.79,1.95-9.35,2.85-2.13,3.48-4.96,3.45-8.48-.02-3.11.89-6.36,2.01-9.31,3.29-8.7,2.76-11.28-4.49-17.13-.97-.78-2.23-1.21-3.52-1.89-1.49,14.97-6.7,17.12-19.08,8.22-3.89-2.8-7.97-4.34-12.83-3.23-9.1,2.07-12.13,11.15-6.08,18.21.84.98,1.46,2.13,2.75,4.04-7.73,3.9-15.12,4.12-22.7,1.71-2.54-.81-4.86-2.28-7.3-3.4-4.08-1.88-7.92-1.87-12.41-.4-4.95,1.63-10.44,2.1-15.71,2.13-6.16.04-12.32-1.21-18.49-1.4-10.62-.33-13.25,2.4-16.06,12.57-1.75,6.32-5.06,12.22-7.75,18.27-.54,1.21-1.55,2.21-2.15,3.4-2.05,4.05-.98,6.64,3.42,6.42,4.99-.25,8.91,1.57,12.75,4.1,4.62,3.05,9.26,4.1,14.31,1.07,3.08-1.84,6.18-1.43,9.21.21,2.84,1.53,5.77,2.92,8.48,4.65,5.47,3.49,10.7,5.45,15.62-2.25,3.77,2.93,7.66,5.02,10.25,8.16,6.38,7.75,13.55,14.44,21.88,20.07,3.92,2.65,7.09,6.42,10.3,9.4-1.24,4.86-2.27,8.89-3.4,13.29-4.58-.11-6.51-3.83-8.86-6.91-4.72-6.19-9.19-12.59-14.14-18.59-1.98-2.4-4.78-4.34-7.57-5.8-2.57-1.34-5.03.91-4.11,3.65.75,2.23,2.19,4.28,3.57,6.23,2.01,2.85,4.23,5.55,6.36,8.32,4.01,5.2,5.84,10.82,3.56,17.33-.44,1.25-.82,2.69-.63,3.95,1.52,10.23-2.26,19.59-4.96,29.05-.98,3.42-3.21,6.74-5.62,9.43-3.47,3.87-7.84,4.96-13.16,2.95-8.24-3.11-16.04,2.49-15.36,11.3.45,5.85-.34,10.22-5.18,14.16-4.75,3.88-4.01,7.65,1.88,10.46,7.71,3.68,14,9.06,19.54,15.3,2.99,3.37,5.54,7.29,7.55,11.33,2.59,5.22,1.72,7.79-3.11,10.87-2.69,1.71-5.67,3.17-8.71,4.07-7.79,2.3-10.47.26-12-7.88-.53-2.8-1.97-5.44-3.09-8.12-.3-.72-1.26-1.22-1.42-1.93-1.89-8.56-7.49-12.14-15.93-12.8-3.15-.24-4.49-3.14-5.37-6.29-3.12-11.13-14.91-15.27-24.8-8.93-1.8,1.16-3.55,2.41-5.37,3.53-.4.25-1.02.14-1.61.2l-.07.09Zm-905.58,9.32c1.23-4.81,4.13-8.61.62-12.89-5.39-6.57-11.43-12.53-19.63-14.83-6.75-1.89-12.48-5.06-17.39-9.65-4.27-3.99-8.2-8.45-11.69-13.15-4.13-5.54-9.89-8.5-16.4-3.11-3.27,2.7-7.49,4.23-10.96,6.73-4.62,3.32-9.31,3.75-14.45,1.64-1.49-.61-3.05-1.08-4.61-1.44-6.16-1.41-9.81,1.35-9.66,7.67.07,3.04-.31,5.51-3.54,6.28-10.11,2.42-16.1,10.35-22.9,17.1-1.73,1.72-3.6,4.87-3.17,6.88,1.82,8.55-3.91,12.1-9.48,15.9-1.97,1.34-4.51,1.97-6.26,3.52-4.12,3.65-8.9,4.71-14.17,4.74-3.49.02-7.03,0-10.44.56-4.86.81-7.18,3.22-6.86,6.48.41,4.16,3.73,5.08,6.96,5.39,13.18,1.27,26.39,1.65,37.63-6.94,9.84-7.53,21.07-8.52,32.79-8.69,7.19-.1,14.36-1.25,21.55-1.71,3.46-.22,7.01-.37,10.4.18,5.64.92,10.86,1.24,16.52-.96,6.66-2.59,11.29,1.5,11.75,9.06.06,1.05.05,2.35.63,3.07,4.39,5.41,1.54,9.3-2.43,13.15-.9.87-1.31,2.23-2.32,4.04,7.76,5.61,14.77,11.32,25.17,10.91,8.86-.35,17.1,2,22.03,10.5,1.9,3.27,4.5,5.24,8.45,5.15,5.84-.14,11.06,1.81,16.04,4.69,1.85,1.07,3.82,2.07,5.87,2.6,4.42,1.14,7.41-.93,8.03-5.4.22-1.58.04-3.22.05-4.83.09-8.4,3.3-12.23,11.68-13.46,6.83-1,13.42-.45,19.11,4.13,1.03.83,2.28,2.07,3.37,2.01,8.85-.51,15.58,6.45,24.52,6.48,5.07.01,10.13,3.23,15.2,4.99,4.99,1.72,10.12,2.65,14.71-.63,6.68-4.78,13.46-4.55,20.6-1.47,1.47.63,3.06,1.01,4.63,1.37,8.94,2.08,13.83-.87,16.13-9.75,1.14-4.41,1.19-9.46,3.49-13.12,4.95-7.87,4.43-15.69,2.33-23.99-1.18-4.68-2.37-5.85-7.17-5.34-2.09.22-4.32.74-6.13,1.76-7.76,4.35-15.08,4.95-22.42-1.09-2.84-2.33-6.57-3.05-9.53.04-4.01,4.17-8.57,4.67-13.11,1.81-4.38-2.76-10.53.44-14.03-4.63-2.43-3.53-5.31-6.79-7.34-10.52-1.9-3.5-3.07-7.43-4.31-11.25-.91-2.8-1.33-5.75-2.12-8.59-1.58-5.76-5.28-7.75-10.92-5.88-1.26.42-2.4,1.19-3.58,1.81-3.66,1.93-7.32,3.88-11.76,6.23-1.29,2.79.76,5.24,3.37,7.34,2.09,1.68,4.52,2.94,6.56,4.67,3.78,3.21,3.78,5.93-.38,8.13-3.49,1.84-6.14,3.85-7.61,7.75-.54,1.42-3.3,2.63-5.15,2.8-5.13.46-9.28-2.35-9.66-7.59-.46-6.27-4.09-10.26-7.68-14.57-2.58-3.09-5.43-6.07-7.35-9.55-1.6-2.89-2.93-6.46-2.78-9.65.25-5.13-1.88-8.29-5.97-10.41-5.71-2.97-11.55-5.71-17.4-8.41-5.44-2.51-10.41-5.42-13.86-10.63-1.23-1.85-3.64-2.94-5.55-4.32-2.53-1.83-5.27-3.41-7.62-5.43-3.55-3.05-7.29-2.22-8.51,2.28-1.2,4.42.38,8.01,4.11,10.46,4.62,3.04,8.06,7.01,10.56,11.9,1.7,3.33,4.49,5.08,8.21,5.81,2.57.51,5.14,1.5,7.44,2.77,4.43,2.42,8.62,5.28,13.01,7.77,2.33,1.32,4.73,2.38,4.72,5.8-3.99.45-7.68.86-11.52,1.29,3.3,13.23,1.87,16.39-8.4,18.28l-.02-.04Zm164.39-66.79c-.45.79-.59,1.4-.96,1.62-1.62.94-3.28,1.83-4.99,2.63-9.23,4.31-13.28,3.38-17.66-5.54-3.1-6.31-8.93-7.09-14.36-8.82-1.48-.47-4.22.21-5.18,1.36-4.75,5.73-9.38,11.62-13.48,17.83-2.14,3.23-2.74,7.45-4.7,10.83-2.17,3.75-2.25,6.94.29,10.42,1.34,1.83,2.31,3.93,3.38,5.8-2.36,2.14-4.05,3.67-5.77,5.22,5.09,4.77,5.97,5.18,9.04.99,3.59-4.9,7.97-5.85,13.36-5.06,4.08.6,8,.52,11.59-1.98,10.19-7.1,21.1-6.97,32.32-3,4.55,1.61,9.01,3.52,13.57,5.1,9.41,3.26,19.04,3.33,28.63,1.12,7.48-1.72,9.32-7.26,4.35-13.13-2.02-2.39-4.78-4.36-7.55-5.87-7.78-4.24-15.76-8.09-23.61-12.19-3.24-1.69-7.17-2.64-8.56-7.44,1.53-1.81,3.64-3.61,4.8-5.89.98-1.92,1.41-4.52.97-6.59-.19-.92-3.17-1.9-4.78-1.74-3.97.39-8.08.91-11.77,2.32-6.42,2.46-6.64,5.93-1.14,10.02.81.6,1.5,1.35,2.19,1.97l.02.02Zm-110.15-176.81c-5.43-3.52-11.17-3.16-16.82-1.29-1.76.58-4.03,2.57-4.29,4.2-1.25,7.91-7.08,10.84-13.36,13.68-3.39,1.54-6.95,3.15-9.72,5.55-7.4,6.4-6.7,13.67,1.36,18.73,1.14.71,2.39,1.3,3.38,2.18,2.96,2.62,3.08,5.47.24,8.32-1.11,1.12-2.5,2.15-3.95,2.71-6.67,2.58-9.61,6.76-8.18,14.31,1.01,5.31-.41,6.45-5.45,8.18-3.01,1.04-6.47,1.64-8.83,3.54-4.32,3.48-8.15,7.19-14.29,4.37-.6-.27-1.95-.08-2.26.37-3.9,5.73-9.67,4.49-15.21,4.33-.57-.02-1.16.97-1.73,1.48,3.62,5.06,6.39,6.23,12.84,3.77,4.77-1.82,8.93-1.54,13.02,1.01,4.59,2.85,9.16,2.51,13.86.53,2.47-1.04,4.96-2.05,7.42-3.14,5.11-2.26,10.28-3.16,15.57-.71,4.21,1.95,7.82.87,11.16-1.95,3.23-2.72,7.25-4.89,5.56-10.42-.51-1.66.12-3.73.48-5.57,1.53-7.81,5.98-10.21,13.4-7.28,1.25.49,2.42,1.42,3.69,1.54,1.45.13,3.77.06,4.26-.77.8-1.37,1.09-3.73.43-5.14-1.45-3.14-4.17-4.91-7.89-3.92-1.28.34-2.41,1.37-3.68,1.53-1.13.14-2.36-.48-3.54-.76.52-1.3.68-3.23,1.64-3.79,2.49-1.46,5.69-1.84,7.95-3.52,3.49-2.59,7.23-3.4,11.33-3.34,4.84.06,9.67.41,14.5.33,3.96-.06,8.06-.28,9.98-5.01-3.42-3.51-7.55-3.59-11.44-2.96-6.07.98-12,2.82-18.05,3.94-3.91.73-7.99,1.41-11.9,1.07-6.16-.54-11.15-5.18-12.13-10.18-2.19-11.17,1.75-19.7,11.83-25.59,3.93-2.3,7.9-4.63,8.8-10.33h.02Zm255.49,210.35c-.64-6.5-5.19-9.6-10.26-12.31-1.65-.88-3.22-1.97-4.63-3.19-3.59-3.09-8.67-5.77-7.21-11.49,1.41-5.51,6.67-6.25,11.56-7.06,5.14-.85,6.18-2.92,4.64-7.76-1.02-3.19-3.09-4.61-6.31-5.34-11.13-2.5-31.32,5.61-37.81,15.32-2.03,3.03-2.33,5.6.23,8.69,2.15,2.6,3.43,5.9,5.23,8.81,2.07,3.34,3.88,6.97,6.53,9.78,3.66,3.89,8.12,7.01,12.01,10.7,2.45,2.32,4.49,5.07,5.55,6.3-1.65,7.1-3.07,12.45-4.08,17.87-.74,3.97,1.39,6.62,4.96,8.22,5.37,2.4,10.74,4.82,16.1,7.25,5.79,2.62,11.47,1.93,17.15-.39,3.14-1.28,4.31-3.47,4.35-6.86.06-6.1-2.78-10.7-6.56-15.1-3.05-3.56-6.79-6.89-6.48-12.83,3.75-.53,7.21-1.01,11.04-1.55-1.75-10.11-9.34-8.57-16.02-9.07h.01Zm-145.46,130c2,8.08,6.63,14.94,10.98,21.96,2.4,3.86,5.61,7.65,6.54,11.89,1.55,7.05,5.17,12.2,10.51,16.59,5.15,4.23,7.53,9.88,7.08,16.36-.57,8.31,2.33,14.58,9.21,19.21,5.17,3.48,8.18,8.45,9.08,14.6,1.06,7.24,5.04,12.27,11.48,15.49,7.33,3.66,13.34,8.88,18.66,15.07,2.15,2.5,4.95,4.44,7.46,6.63-1.82-12.94-2.87-25.75-14.3-33.99,1.84-2.61,3.14-4.45,4.34-6.15-5.69-8.05-10.81-15.85-16.55-23.17-2.94-3.75-7.04-6.59-10.53-9.93-4-3.82-6.98-8.23-6.89-14.03.11-7.35-3.48-12.62-8.78-17.28-2.53-2.23-5.15-4.93-6.38-7.96-3.94-9.7-10.26-17.56-17.58-24.75-5.13-5.04-6.63-5.02-14.33-.53h0Zm-12.58,272.06c0,.8-.01,1.6,0,2.4.1,5.47.99,6.68,5.76,7.83,5.26,1.27,7.67.3,9.93-3.96,1.74-3.28,3.68-6.47,5.24-9.84,2.72-5.87.06-9.96-6.46-10.24-9.12-.39-14.41,4.65-14.47,13.8h0Zm223.76-623.33c6.85,1.59,9.92.23,11.92-4.87,1.95-4.96.32-10.71-4.72-12.93-5.55-2.45-9.19-6.02-11.2-11.68-1.05-2.96-3.16-4.85-6.67-3.33-.05,6.05.13,6.8,3.51,10.09,2.3,2.23,4.94,4.1,7.2,6.36,4.05,4.06,4.25,6.15,1.8,11.37-.74,1.58-1.22,3.28-1.84,4.99h0Zm327.64,127.47c.38.34.76.68,1.14,1.03,3.71-2.9,7.4-5.84,11.14-8.7,7.91-6.07,7.27-15.69-1.73-21.73-.87,5.14-1.05,10.41-2.76,15.11-1.84,5.04-5.13,9.55-7.79,14.3h0Zm-335.52,68.03c.35-5.23-3.95-10.43-7.59-9.94-1.64.22-3.94,2-4.36,3.51-.92,3.36,4.05,8.75,7.72,8.52,1.67-.1,3.25-1.58,4.22-2.1h.01Zm-236.53,460.14c-4.32,11.07-1.28,18.76,6.13,20.98-2.04-6.98-4.09-13.98-6.13-20.98Zm43.93,59.53c-2.34,5.74-4.33,10.61-.24,15.72,4.86-7.21,4.97-9.3.24-15.72Zm412.14-773.93c-.4-.66-.79-1.32-1.19-1.97-4.27,2.24-8.53,4.48-12.8,6.71.25.51.5,1.02.75,1.53,5.06-.67,9.94-1.74,13.24-6.27Zm-110.53,238.96c2.6-.21,3.67-1.6,3.21-4.19-1.3,1.7-2.26,2.94-3.21,4.19Z"/>
          <path class="cls-2" d="m758.92,277.33c-1.06.19-2.15.26-3.16.59-3.2,1.04-6.06.44-7.79-2.4-1.85-3.04.76-4.89,2.59-6.82,1.56-1.65,3.11-3.32,3.82-6.31-2.35.98-4.81,1.75-7.03,2.96-5.95,3.25-12.04,5.92-18.92,6.44-1.59.12-3.35.35-4.68,1.12-16.99,9.8-36.96,12.93-53.41,24.07-7.96,5.38-10.91,7.53-15.06,15.52.41.74.71,1.91,1.46,2.5,3.02,2.38,4.62,4.84,2.86,8.95-1.41,3.3.71,5.54,3.95,5.08,8.91-1.26,15.37,3.19,21.98,8.08,7.5,5.54,15.86,9.02,25.53,8.19,1.6-.14,3.26-.17,4.83.11,4.37.79,6.43,5.03,3.09,7.44-6.05,4.37-3.97,11.65-7.45,16.86-.92,1.38,1.18,5.38,2.71,7.62,1.74,2.56,4.64,3.53,7.88,2.34,5.58-2.06,9.84-5.48,11.75-11.31.5-1.52.71-3.14,1-4.72,2.03-11.05,2.07-10.74,13.48-12.36,5.5-.78,11.12-2.33,16.14-4.69,12.2-5.74,18.64-17.95,16.41-31.19-.81-4.78.14-8.09,3.01-11.77,3.91-5.01,7.17-10.54,10.63-15.89,3.55-5.48,5.76-6.52,12.13-4.65,6.23,1.84,12.23,3.64,18.88,1.17,1.94-.72,5.3.65,7.25,2.09,4.88,3.62,9.32,7.82,14.53,12.3-.63,1.36-1.24,3.4-2.4,5.05-2.5,3.56-2.63,6.91.07,10.35,2.74,3.48,6.11,4.19,9.95,2.05,4.88-2.72,9.73-5.52,14.49-8.45,1.58-.97,2.77-2.55,4.27-3.67,5.53-4.13,8.51-3.54,11.29,2.65,3.24,7.19,4.98,14.73,4.15,22.71-1.07,10.33-.33,11.76,9.5,15.56,4.5,1.74,8.1,3.95,9.69,8.81.47,1.42,1.85,2.58,2.92,3.76,4.25,4.72,4.34,6.73,1.41,12.09-2.01,3.68-3.35,7.72-5.3,11.44-.96,1.83-2.71,3.22-3.95,4.91-2.79,3.82-1.51,7.2,3.12,8.38.26.07.54.08.79.16,2.96.96,7.09,1.1,8.54,3.14,1.41,1.99-.16,5.93.02,9,.15,2.6,1.37,5.18,1.3,7.75-.05,1.88-.93,4.48-2.33,5.37-1.4.88-4.5.82-5.81-.19-8.54-6.59-18.8-5.35-28.47-6.75-3.36-.49-6.76-.67-11.22-1.09,1.4-2.66,1.9-4.49,3.07-5.67,6.61-6.67,13.39-13.18,20.09-19.76,1.58-1.55,3.08-3.19,4.93-5.12-3.86-3.26-7.03-2.68-9.68-.78-10.79,7.73-22.6,10.67-35.79,8.85-2.59-.36-5.43,1.06-9.18,1.88,3.07,2.9,5.04,4.75,7.3,6.89-6.72,2.24-9.05,1.85-10.66-3.12-1.38-4.24-4.19-5.49-7.72-5.62-4.5-.17-9.08,0-13.51.74-3.18.54-5.92,2.5-6.59,6.5,5.32,4.06,13.1-1.96,18.6,4.98-2.11,2.65-4.23,5.57-6.61,8.26-2.63,2.97-4.28,6.17-3.6,10.24.85,5.07,5.1,8.6,9.67,6.87,3.69-1.39,6.15-.31,9.33,1.96,2.67-2.16,5.3-4.35,8-6.45,1.97-1.53,4.2-3.08,6.28-.45,1.76,2.22,1.16,4.72-.87,6.48-1.8,1.56-3.83,3.06-6.03,3.89-5.76,2.19-11.57,4.39-17.54,5.89-7.87,1.98-15.51,4.12-22.22,9.01-2.38,1.74-5.51,4.37-8.51.8-1.93-2.29-.52-5.13,3.62-8.33.63-.49,1.18-1.09,2-1.85-2.14-2.91-4.96-1.62-7.18-.84-11.39,4-22.77,8.04-33.98,12.51-7.62,3.04-11.02,9.12-9.85,17.94-2.18.66-4.15,1.21-6.1,1.84-4.06,1.31-8.14,2.56-12.14,4.02-2.26.82-4.35,2.72-6.59,2.85-6.24.37-10.47,3.3-13.74,8.41-1.1,1.72-2.96,3.3-4.84,4.11-4.21,1.81-7.09,4.54-8.76,8.85-1.16,3.02-3.53,4.6-7.03,4.11-1.5-.21-3.06-.04-5.39-.04.17,3.35.03,6.26.51,9.06,1.43,8.39-.88,14.66-9.03,18.44-7.05,3.27-13.9,6.98-20.83,10.5-2.38,1.21-4.9,2.24-7.09,3.73-5.1,3.46-9.97,7.27-15.06,10.74-12.68,8.65-15.24,14.98-12.49,30,1.15,6.3,1.75,12.71,2.41,19.09.15,1.49-.49,3.05-.85,5.07-6.79-.55-12.75-2.73-18.46-5.57-4.11-2.04-3.51-5.54-2.26-9.05,1.63-4.61,1.49-8.92-1.82-12.88-2.44-2.92-5.21-4.97-9.04-2.97-4.24,2.21-7.47.46-11.25-1.46-3.42-1.74-7.53-2.3-11.42-2.9-2.05-.32-4.3.74-6.4.52-6.94-.73-12.4,1.59-17.24,6.61-3.88,4.02-8.9,4.36-14.24,2.68-4.85-1.53-9.79-2.81-14.77-3.82-5.99-1.22-11.73-.26-17.07,2.93-6.23,3.71-12.53,7.32-18.84,10.89-7.02,3.98-11.59,9.25-11.32,17.99.08,2.73-1.4,5.62-2.59,8.25-1.76,3.9-3.98,7.59-5.83,11.46-7.93,16.58-4.16,32.08,5.24,46.54,4.4,6.78,11.57,9.37,19.78,7.94,5.82-1.02,11.61-2.17,17.42-3.25,4.47-.83,8.02-2.99,10.3-7,.8-1.4,1.72-2.77,2.25-4.27,4.01-11.41,12.78-15.1,24-15.11,6,0,9.8,3.99,7.84,9.7-2.58,7.53-6.18,14.71-9.33,22.05-1.14,2.66-2.29,5.32-3.32,8.02-1.41,3.69-2.72,7.41-4.46,12.17,2.75.69,5.4,1.91,8.05,1.89,5.9-.03,11.81-.48,17.68-1.13,5.96-.66,11.22.59,15.79,4.47,4.23,3.59,4.96,6.86,3.42,12.22-2.08,7.19-4.22,14.38-5.77,21.69-2.35,11.06,6.18,24.78,17.23,27.42,3.13.75,6.81-.25,10.12-1.01,2.57-.59,4.9-2.19,7.43-3.08,6.45-2.28,11.95-.65,17.13,3.76,6.33,5.38,9.39,5.03,14.66-1.53,2.32-2.89,4.26-6.24,5.64-9.68,2.14-5.31,5.9-8.62,11.31-9.11,8.69-.79,16.01-4.06,22.58-9.62,1.09-.92,3.25-.58,4.92-.82.08,1.65.3,3.31.18,4.94-.05.7-.95,1.29-1.27,2.01-.31.69-.36,1.5-.53,2.3,2.27,2.92,4.78,2.06,7.11.46,1.76-1.21,3.25-2.8,4.84-4.25,2.26-2.07,4.74-2.49,7.36-.82,3.38,2.15,6.98,4.1,9.96,6.73,3.22,2.84,6.32,4.76,10.83,3.78,4.7-1.02,9.04.26,13.06,2.81,3.46,2.19,6.76,2.49,10.49.07,9.89-6.39,13.75-5.85,22.82,2.83,1.86-.9,3.9-1.89,5.96-2.89,1.27,3.24,2.57,6.08,3.5,9.04,1.49,4.71,4.37,7.35,9.2,9.08,3.53,1.27,6.5,4.49,9.33,7.25,2.86,2.8,4.98,6.38,7.87,9.14,5.9,5.63,12.8,8.76,21.27,7.2,9.29-1.71,17.55,1.03,25.11,6.29,3.31,2.3,6.52,4.75,9.75,7.16,4.22,3.15,7.06,6.8,7.77,12.52.46,3.69,3.02,7.33,5.28,10.54,2.39,3.41,4.45,6.66,4.04,11.02-.12,1.29-.27,3.37.42,3.82,6.33,4.11,10.82,11.78,19.51,11.38,9.37-.43,16.8,5.25,25.36,7.31,1.55.37,2.85,3.08,3.67,4.97,1.52,3.5,3.93,4.5,7.62,4.47,3.97-.03,8.03.47,11.91,1.34,5.75,1.29,11.24,3.09,17.39,1.96,5.02-.93,9.39,1.88,13.21,4.97,3.97,3.2,7.68,6.73,11.59,10.02,4.2,3.54,8.81,6.16,14.6,5.82,5.35-.32,8.44,2.54,10.39,7.24,6.15,14.82,5.15,27.67-5.65,38.76-6.19,6.36-12.4,12.64-15.68,21.24-1.01,2.65-3.32,4.86-5.26,7.08-4.99,5.72-6.53,12.36-4.76,19.54,2.54,10.33,1.97,20.16-3.11,29.66-.84,1.57-1.39,3.66-1.15,5.38.8,5.75-1.5,10.39-4.19,15.16-2.37,4.19-4.15,8.72-6.08,13.15-3.34,7.65-9.02,11.89-17.47,12.01-15.2.22-26.6,9.18-38.47,16.85-5.24,3.39-7,9.31-5.28,15.04,3.25,10.82.99,19.93-6.34,28.19-1.4,1.58-1.84,4.24-3.44,5.38-9.04,6.41-10.81,16.73-14.55,26.01-.6,1.49-1.23,3-2.08,4.36-10.14,16.38-14.39,16.64-29.58,12.8-2.86-.72-5.77-1.27-8.68-1.77-.66-.11-1.42.34-2.76.71.85,1.35,1.42,2.48,2.2,3.45,4.01,4.96,8.31,9.72,11.97,14.92,1.19,1.69,1.45,4.69.93,6.79-1.58,6.35-5.19,11.28-12.04,12.71-5.77,1.21-11.6,2.19-17.44,3.02-7.55,1.08-8.73,2.4-8.04,9.86.07.8.33,1.58.41,2.38.66,6.88-1.88,9.38-8.84,8.57-3.34-.39-6.66-.97-10.14-1.49.16,5.52,4.81,9.75,13.96,12.7-1.4,2.08-2.32,4.23-3.9,5.62-2.95,2.59-4.13,5.54-3.26,9.31,1.2,5.23-.89,8.75-5.4,11.35-2.78,1.6-5.77,3.5-5.15,7.4.63,4.02,3.94,5.48,7.33,6.67,2.78.98,5.73,1.63,8.33,2.97,4.84,2.51,5.96,6.56,2.36,10.54-3.79,4.19-6.72,8.24-5.89,14.24.14,1.04-1.15,2.32-1.87,3.44-3.45,5.34-3.57,6.41.53,11.2,4.54,5.31,9.37,10.38,14.11,15.51,3.81,4.11,8.77,5.94,14.07,7.35,4.55,1.21,9.66,1.91,11.93,7.53-1.45,4.33-5.15,6.19-9.21,6.23-7.97.08-15.95,1.06-23.76-2.56-9.95-4.6-20.4-8.11-30.54-12.32-2.16-.89-4.13-2.54-5.8-4.22-4.55-4.57-8.69-9.58-15.02-11.91-.96-.35-1.89-1.14-2.52-1.96-5.49-7.23-10.99-14.46-16.32-21.8-3.3-4.54-5.12-9.36-2.2-15.01,1.82-3.52.36-5.86-3.25-7.65-6.59-3.27-6.1-3.42-5.13-10.34.52-3.71-.56-7.65-1.01-12.56,1.62-.43,3.99-1.07,6.83-1.84-.34-6.89.21-14-6.24-19.57-.22,3.44-.44,6.87-.66,10.44-4.52.37-5.87-2.21-6.38-5.23-1.52-8.94-3.22-17.87-4.05-26.88-.42-4.58-2.05-8.29-4.58-11.77-3.88-5.34-4.75-10.6-3.07-17.35,2.24-8.99,2.96-18.43,3.56-27.73.45-6.99-.95-13.89-4.53-20.17-2.45-4.29-3.8-8.88-2.93-13.91.14-.79.25-1.67.03-2.41-2.68-8.94-1.09-18.11-1.47-27.16-.68-16.33-.78-32.68-1.74-48.99-.49-8.25-2-16.5-3.76-24.6-.7-3.19-2.84-6.45-5.2-8.82-6.28-6.31-13.67-10.94-21.96-14.62-9-4-17.39-9.46-25.81-14.65-4.23-2.61-6.61-6.77-7.89-11.74-.85-3.29-2.57-6.44-4.35-9.39-5.81-9.65-11.86-19.16-17.73-28.77-4.2-6.88-8.04-13.98-12.47-20.71-2.01-3.06-4.62-6.15-7.7-7.98-7.26-4.31-8.14-11.61-9.62-18.58-.35-1.66,1.23-3.95,2.37-5.65,1.02-1.52,2.71-2.59,4.01-3.94,4.06-4.23,4.45-5.29.71-9.47-4.89-5.47-4.77-11.01-1.8-17.1,1.76-3.62,3.42-7.29,5.12-10.93.34-.73.58-1.57,1.1-2.15,6.23-6.87,12.29-13.91,18.85-20.45,2.99-2.98,5.5-5.71,5.61-10.16.14-5.63,1.14-11.3.66-16.86-.38-4.39-2.3-8.68-3.8-12.92-1.15-3.27-2.74-6.38-4.08-9.58-1.37-3.26-2.61-6.78-6.82-7.11-3.99-.32-6.38,2.55-8.44,5.37-1.05,1.45-1.41,3.41-2.03,5.16-1.88,5.37-5.31,6.72-9.68,2.9-4.63-4.06-9.66-6.39-15.62-7.69-2.53-.55-5.11-2.97-6.71-5.22-3.09-4.34-6.6-7.71-11.89-9-4.24-1.03-6.48-3.71-6.03-8.17.35-3.48-.73-6.19-3.31-8.61-1.74-1.63-3.11-3.71-4.41-5.74-4.01-6.29-9.46-9.57-17.07-10.61-7.65-1.04-15.22-3.31-22.55-5.84-3.36-1.16-6.27-3.99-9.01-6.48-3.37-3.07-6.2-6.73-9.53-9.84-4.99-4.67-10.9-6.26-16.98-2.59-6.86,4.14-13.2,2.98-19.92-.1-6.83-3.13-14.48-4.83-20.7-8.82-11.46-7.35-24.98-10.84-35.56-19.75-8.15-6.87-8.62-7.69-4.52-17.49,2.94-7.03.84-13.43-3.06-19.02-5.06-7.25-10.94-13.93-16.59-20.76-2.55-3.08-5.67-5.62-5.08-10.4.19-1.54-1.21-3.48-2.3-4.94-3.86-5.16-7.6-10.46-11.94-15.19-3.78-4.11-5.27-8.51-4.62-13.94.31-2.64.45-5.39.08-8.01-.49-3.48-2.66-5.87-6.29-6.41-3.23-.48-6.82,2.06-7.86,5.66-1.09,3.77-.96,7.57,1.68,10.71,3.77,4.48,5.62,9.59,6.43,15.35.36,2.54,1.67,5.16,3.2,7.28,3.41,4.74,5.19,10,5.9,15.65.69,5.43,1.95,10.55,5.71,14.77.7.79,1.41,1.77,1.59,2.76.22,1.19.33,2.91-.34,3.6-.68.7-2.88,1.02-3.53.47-4.69-3.97-9.38-8.01-13.57-12.49-1.16-1.24-1.21-4.16-.78-6.09,1.45-6.5-1.38-10.27-7.1-12.59-.99-.4-1.95-.91-2.87-1.45-6.38-3.77-7.03-6.25-2.23-11.81,2.84-3.29,3.26-6.5.42-9.27-7.55-7.36-7.75-16.71-7.93-26.17-.03-1.61-.1-3.22-.09-4.84.03-9.31-4.79-15.41-13.32-17.98-5.79-1.75-8.53-5.1-9.28-10.68-.54-3.98-1.23-7.95-1.47-11.94-.43-7.23-.51-14.49-.84-21.73-.34-7.46.35-14.4,6.76-19.69,1.95-1.61,3.5-4.25,4.19-6.72,2.34-8.39,7.64-14.6,13.64-20.54,9.61-9.5,17.88-19.97,23.38-32.53,2.74-6.27,3.68-11.67-2.47-16.41-1.24-.95-2.15-2.4-2.99-3.76-1.65-2.67-1.55-5.42,1.35-6.95,5.86-3.08,6.08-8.4,6.01-13.86-.03-2.4-.2-4.89-.85-7.18-1.26-4.47-.84-8.32,2.25-12.06,1.12-1.36,1.85-4.26,1.13-5.55-.64-1.13-3.53-1.25-5.45-1.34-1.56-.08-3.35,1.14-4.67.7-1.44-.48-3.6-2.33-3.49-3.38.75-7.02,2.02-13.98,4.67-21.19-2.03-3.42-3.98-6.88-6.12-10.23-2.93-4.59-7.13-7.23-12.63-7.59-3.48-.23-6.98-.37-10.47-.46-6-.17-11.73-.96-16.68-4.9-4.14-3.3-8.32-3.22-12.31.57-3.9,3.71-8.69,4.82-13.99,5.29-4.18.37-8.38,1.74-12.32,3.29-4,1.57-7.68,2.57-11.3-.5-2.76-2.35-5.82-2.31-9.12-1.54-24.09,5.65-45.68-1.62-66.43-12.98-1.56-.85-2.75-2.36-5.12-4.45,2.95-1.92,5.08-3.81,7.56-4.83,6.21-2.54,12.57-4.7,18.89-6.98,1.26-.45,2.69-1.3,3.83-1.04,9.11,2.09,17.25-3.2,26.08-3.21,3.19,0,6.51-.63,6.68-6.21-4.09-.19-7.96-.36-11.83-.56-3.74-.19-7.58.02-11.19-.77-1.62-.36-3.52-2.55-3.94-4.24-.3-1.23,1.36-3.28,2.62-4.45,1.1-1.03,2.81-1.62,4.35-1.96,7.34-1.61,14.65-3.61,22.09-4.39,4.36-.46,8.97.91,13.4,1.79,6.69,1.33,9.91-1.69,8.28-8.26-.63-2.55-1.72-5-2.59-7.46,2.82-4.32,7.02-5.26,11.34-5.55,10.02-.69,19.36-3.96,28.96-6.56,13.92-3.78,28.32-5.83,42.52-8.57,1.3-.25,2.79.19,4.01-.21,10.76-3.57,21.43-2.81,32.34-.4,10.38,2.3,20.94,3.88,31.48,5.4,4.75.69,9.66.25,14.46.69,5.58.51,11.12,1.44,16.67,2.17,2.64.35,5.31.57,7.93,1.05,2.87.53,6.11.62,8.44,2.09,6.03,3.8,12.31,3.81,18.65,2.01,8.11-2.3,16.3-3.1,24.69-3.21,4.23-.06,8.43-1.5,12.67-2.06,5.01-.66,10.07-.95,15.08-1.59,2.35-.3,4.72-.8,6.93-1.63,3.4-1.28,6.21-1.48,8.24,2.23,1.31,2.39,3.43,2.47,6.12,2.56,7.24.25,14.35.22,21.6-.71,3.99-.51,8.36,1.35,12.48,2.46,4.14,1.12,8.09,3.01,12.26,3.92,5.48,1.19,7.69-.26,10.03-5.4,2.39-5.26,4.8-10.52,8-17.55-5.3.52-8.65.61-11.91,1.23-5.28.99-10.46,2.49-15.74,3.43-1.98.35-4.39.29-6.17-.53-3.66-1.69-3.92-5.04-.98-7.73.59-.54,1.26-1.03,1.98-1.38,9.37-4.63,18.55-9.78,28.25-13.59,4.46-1.76,9.98-1.32,14.99-1.09,6.95.31,13.91,1.13,20.79,2.19,3.31.51,7.23,1.22,9.55,3.3,6.42,5.78,14.44,6.16,21.92,6.39,4.79.14,8.61.68,11.62,3.5,4.94-2.49,9.34-6.45,13.82-6.54,5.75-.12,10.77-5.3,18.13-1.82-5.9,6.56-15.59,9.24-16.43,18.95.95,4.08,8.51,3.47,6.99,9.37-4.99,2.59-9.7,5.64-14.84,7.5-3.1,1.12-6.89.72-10.32.45-4.74-.38-9.43-1.3-14.76-2.07,1.58,5.35,5.51,6.79,9.21,7.98,10.23,3.31,20.8,1.59,31.22,1.35,3.43-.08,5.31-3.07,6.63-6.29,2.15-5.23,6.7-7.59,11.99-8.35,1.99-.28,4.35.12,6.16,1,3.2,1.56,3.37,4.47.8,7.12-1.2,1.24-2.49,2.38-4.48,4.26,6.7,1.55,10.86-1.03,14.41-4.7.83-.86,1.15-3.45.49-4.32-3.97-5.19-2.15-8.83,2.5-12.13.78-.56,1.13-1.71,2.04-3.17-1.65-.74-3.22-2.12-4.2-1.78-9.01,3.12-13.39-2.45-17.54-8.6.37-.72.61-1.58.82-1.57,6.02.21,10.89-2.62,16.14-5.1,6.52-3.07,13.82-4,21.15-2.52,3.02,5.97-4.94,8.19-3.95,13.37,2.49,2.03,4.83.45,5.98-1.44,5.33-8.81,14.93-10.97,23.08-15.39,2.49-1.35,4.72-1.83,7.49-.07,2.59,1.65,5.74,2.39,8.78,3.59-.73,4.23-3.91,5.35-6.89,6.17-4.65,1.29-9.44,2.07-14.16,3.08-9.28,1.98-10.5,3.29-11.59,12.36-.13,1.07-.32,2.12-.48,3.19-1.2,7.62-.53,8.66,6.59,11.15,1.86.65,3.57,1.73,5.86,2.87-1.48,2.07-2.38,3.32-3.29,4.59-.75,1.05-1.5,2.1-2.14,3,1.52,3.45,4.07,3.33,6.23,2.17,6.61-3.53,13.18-7.19,19.49-11.23,1.79-1.15,2.65-3.77,4.69-6.88-4.21-1.28-7.37-2.25-10.54-3.19-4.69-1.39-6.06-3.3-3.81-7.57,1.91-3.64,4.58-7.54,7.97-9.64,11.87-7.39,24.48-12.29,38.97-7.92,2.7.81,5.85.14,8.8.14,11.2,0,22.41.12,33.61-.09,4.43-.08,7.12,1.87,8.76,5.66,2.78,6.41,7.82,8.47,14.55,9.61,5.56.94,10.75,4.41,15.91,7.14.78.41.92,2.94.62,4.33-2.2,10.2-.45,13.12,8.97,16.83,4.68,1.84,9.2,4.4,13.27,7.35,3.31,2.41,3.3,5.07-.07,7.2-5.39,3.42-11.24,6.16-17.02,8.92-3.1,1.48-5.69.13-7.78-2.44-1.52-1.87-3.02-3.84-4.87-5.33-2.29-1.85-5.57-2.34-7.27.03-1.27,1.76-1.19,4.96-.72,7.32.31,1.56,2.45,2.71,3.68,4.14,2.92,3.4,3.21,6.89.96,10.25-2.69,4.01-7.91,6.33-11.5,5.06-2.53-.89-5.01-1.91-7.54-2.79-.42-.15-1,.17-2.32.44,1.09,2.57,2.13,5.03,3.4,8.03-4.23,2.75-8.39,1.3-12.36.31-5.19-1.29-10.37-2.75-15.36-4.64-2.07-.79-3.83-2.72-5.36-4.45-1.21-1.37-1.69-3.36-2.77-4.88-4.67-6.58-11.07-8.63-19-6.29-4.52,1.34-9.14,3.77-13.43-.75.5-5.9,5-6.62,9.28-6.96,3.44-.28,6.96.4,10.45.54,5.85.24,11.04-.83,15.22-5.67,1.99-2.3,5.18-3.63,7.97-5.15,2.11-1.15,4.7-1.55,6.59-2.94,1.77-1.31,3.55-3.31,4.13-5.35.81-2.84-1.97-3.77-4.03-5.16-3.24-2.19-6.46-4.66-8.98-7.61-5.33-6.25-5.43-6.31-13.49-4.43-3.04.71-6.36.33-9.55.31-2.95,0-5.98-.65-8.82-.15-1.78.31-4.37,1.95-4.72,3.43-.9,3.85-3.2,5.89-6.31,7.83-1.68,1.05-3.39,2.94-3.93,4.79-1.69,5.78-6.06,7.81-11.18,9.28-4.88,1.4-9.64,3.25-14.56,4.42-2.14.51-4.62.07-6.84-.41-1.72-.37-3.29-1.48-5.3-2.44-1.72,4.1.82,5.78,3.14,7.39,3.31,2.29,6.98,4.12,10.05,6.68,2.47,2.05,6.51,4.27,3.81,8.43-2.31,3.55-5.82,1.98-8.64.35-7.41-4.28-13.35-1.29-19.05,3.43l.26-.22-.06-.09Zm-152.54,139.43c4.62,4.34,8.47,2.83,12.17,1.38,5.3-2.08,10.11-2.96,14.65,1.95,1.37,1.48,4.34,2.04,6.58,2.05,3.72.02,7.47-.58,11.15-1.21,6.4-1.09,8.09-4.51,5.23-10.19-3.81-7.58-9.67-10.2-17.98-7.46-9.12,3.01-18.12,6.37-27.1,9.77-1.56.59-2.75,2.13-4.7,3.71h0Zm51,13.36c.52,2.26,1.33,4.09,1.23,5.85-.1,1.78-1.37,3.47-1.68,5.28-.75,4.3.92,9.17,3.53,9.97,4.31,1.33,5.66-2.44,7.16-5.01,3.43-5.86,7.69-9.52,14.97-7.71.37.09.9-.46,1.36-.72,1.45-7.68.72-8.5-6.44-8.57-2.59-.03-5.26-.66-7.73-1.5-4.46-1.51-8.41-1.18-12.39,2.41h0Zm-11.33-1.59c-7.57.06-14.71.39-19.38,8.05-1.79,2.93-4.67,5.18-6.68,8.01-3.08,4.35-6.15,8.78-8.55,13.51-.84,1.65.32,4.32.57,6.52,2.19-.49,5.08-.29,6.43-1.63,2.55-2.55,4.98-5.73,6.11-9.1,3.08-9.15,7.83-16.4,17.5-19.54,2.3-.75,4.62-1.82,4.01-5.83h-.01Zm-107.4-175.66c-.52-4.28-2.83-6.45-6.41-6.21-6.11.4-12.37.78-18.21,2.44-3.8,1.08-5.82,4.98-5.2,10.7,10.23-2.38,19.93-4.63,29.82-6.93Zm87.95-16.71c-.11-.77-.23-1.53-.34-2.3-2.31-.42-4.61-1.04-6.93-1.21-7.24-.52-14.8,1.4-21.11-4.6-2.27-2.16-5.56-.18-6.83,3.12-1.25,3.27.14,5.33,3.3,5.82,3.09.48,6.29.33,9.44.4,6.05.14,12.1.34,18.15.27,1.44-.02,2.88-.98,4.32-1.51h0Zm-85.91,52.37c-3.06-4.42-6.28-6.54-10.68-4.38-4.74,2.33-9.31,5.01-13.88,7.68-.63.37-.8,1.53-1.43,2.84,9.76.53,17.41-3.8,25.98-6.14h.01Zm132.95,172.27c-.16-.78-.33-1.55-.49-2.33-7.95,1.51-15.94,2.86-23.83,4.63-2.25.51-2.41,3.88-.33,5.04,1.29.71,3.1,1.19,4.49.88,7.2-1.59,14.12-3.93,20.16-8.23h0Zm-84.38-98.46c-.72-.84-1.89-3.47-3.79-4.18-3.05-1.13-6.33,2.74-6.7,7.16-.29,3.38,1.62,6.46,4.17,6.72,2.94.3,5.81-3.42,6.32-9.7Zm99.75,86.96c10.1,4.1,15.51,3.46,19.52-2.03-6.53-.98-12.7-1.63-19.52,2.03Zm-3.64,316.84c-1.47-1.39-2.5-3.13-3.49-3.11-1.08.03-3.16,2.09-2.98,2.56.56,1.46,1.99,2.59,3.09,3.85.98-.96,1.97-1.92,3.38-3.29h0Z"/>
          <path class="cls-2" d="m2457.13,970.99v-8.94c3.97,1.49,7.17,2.48,10.19,3.88,7.16,3.32,14.22,6.22,22.44,3.56,1.85-.6,5.3.22,6.33,1.62.96,1.3-.03,4.34-.7,6.45-1.02,3.21-2.5,6.28-4.33,10.74-.04.02-1.48.68-2.81,1.51-5.03,3.13-5.68,7.34-1.13,10.87,6.13,4.75,12.69,8.95,19.06,13.39,2.61,1.82,5.35,3.47,7.8,5.48,4.87,3.98,8.11,4.06,12.63-.34,5.87-5.71,8.65-13.06,9.33-20.92.84-9.83,4.72-18.67,7.82-27.77,1.27-3.74,2.95-7.49,7.65-9.64,7.18,8.44,7.3,18.61,7.61,28.77.93.65,1.73,1.4,2.67,1.82,8.67,3.9,7.75,3.98,8.75,13.69,1,9.7,4.63,19.04,5.25,28.99.16,2.58,4.01,6.04,6.91,7.14,8.82,3.33,11.8,10.21,13.28,18.48.28,1.54.32,3.7,1.32,4.45,9.09,6.83,9.87,19.34,18.44,26.54,2.88,2.42,3.19,6.13,1.52,9.66-2.58,5.46-2.97,11.28-3.59,17.18-.43,4.09-2.12,8.32-4.23,11.91-4.21,7.17-9.05,13.97-13.72,20.86-3.96,5.84-8.7,10.91-14.97,14.4-1.64.91-3.39,1.84-4.64,3.19-10.53,11.41-23.52,20.51-32.08,33.76-3.89,6.02-8.67,9.89-16.4,9.67-7.23-.2-13.65,2.8-19.37,7.04-4.42,3.28-8.68,3.94-13.21.41-3.07-2.4-6.5-2.52-9.91-1.06-4.76,2.04-9.27,1.88-14-.24-2.91-1.3-6.2-1.73-9.23-2.8-7.12-2.51-9-5.87-6.3-12.86,1.59-4.13.96-7.05-1.77-10.27-1.21-1.42-1.34-3.75-1.96-5.67-.72-2.24-1.56-4.45-2.13-6.72-.51-2.02-.71-4.11-1.18-6.92-3.55,1.93-6.9,3.54-10.02,5.52-2.79,1.77-4.62,5.54-8.17,4.23-2.23-6.2-3.71-12.13-6.49-17.38-1.6-3.03-4.95-5.59-8.1-7.28-11.01-5.9-22.52-6.45-34.26-1.98-7.56,2.89-15.24,4.64-23.54,4.54-8.63-.1-16.14,4.34-22.62,9.59-5.9,4.78-11.94,6.43-19.31,5.46-11.51-1.52-22.3.44-32.53,6.53-4.2,2.5-9.54,3.61-14.5,4.14-3.17.33-6.91-.96-9.8-2.58-7.17-4.04-7.27-6.99-1.5-12.97,6.47-6.71,10.36-14.26,7.42-23.95-.54-1.77-1.29-4-.68-5.51,4.26-10.6-1.64-20.45-2.08-30.67-.17-3.86-1.15-7.27,2.56-10.13,2.74-2.11,2.46-5.12,1.09-8.06-1.88-4.04-1.21-7.8,1.2-11.43.89-1.33,2.13-2.8,2.21-4.25.41-8.36,5.89-11.86,12.78-14.62,3.18-1.27,5.93-3.65,8.8-5.63,5.16-3.56,10.46-6.45,17.11-6.05,2.02.12,4.11-1.01,6.17-1.55,6.45-1.71,12.83-3.79,19.37-5.05,11.78-2.29,19.2-9.71,22.99-20.3,2.26-6.31,4.43-10.19,11.99-10.28,5.49-.07,10.04-3.66,12.53-8.93,3.85-8.16,11.24-11.92,18.86-15.42,4.38-2.01,8.35-1.34,11.97,1.79.81.7,1.67,1.36,2.52,2.01,6.84,5.21,9.48,4.81,14.24-2.27,2.4-3.56,4.78-7.14,7.06-10.79,3.1-4.95,7.22-7.71,13.34-7.26,2.52.19,5.1-.46,8.09-.77h-.04Z"/>
          <path class="cls-2" d="m2465.75,859.52c8.04.21,15.12,6.95,16,14.77.29,2.55,1.17,5.27,2.55,7.43,4.21,6.58,7.88,6.77,13.41,1.1,1.5-1.54,2.81-3.28,4.42-4.69,6.75-5.91,14.07-6.69,22.15-2.58,1.91.97,3.85,1.93,5.88,2.6,12.45,4.11,25.02,7.9,37.37,12.3,5.23,1.87,11.4,3.84,14.68,7.8,5.18,6.25,10.1,11.9,17.88,15.04,3.71,1.5,3.49,3.94.68,7.8-3.67,5.05-3.57,5.73,1.11,9.77,5.63,4.87,11.27,9.74,16.81,14.71,1.58,1.42,3.32,3,4.12,4.87.73,1.7.68,4.03.12,5.81-.17.55-3.23.53-4.86.21-4.43-.87-8.76-2.56-13.22-2.94-5.4-.47-9.11-2.75-11.55-7.42-1.24-2.38-2.51-4.74-3.76-7.12-2.55-4.86-6.69-7.52-11.9-8.81-6.43-1.59-9.54-.83-13.09,4.78-3.53,5.59-7.34,8.98-14.72,8.82-6.63-.14-12.15-1.03-16.48-6.31-3.11-3.79-6.89-4.67-11.51-2.64-2.42,1.06-5.11,1.82-7.73,2.01-1.59.11-4.24-.75-4.69-1.87-.68-1.67-.05-4,.45-5.95.22-.88,1.41-1.56,2.23-2.25,2.64-2.19,6.6-4.07,5.05-8.2-1.45-3.86-3.32-8.69-6.49-10.57-9.77-5.78-19.04-13.07-31.25-13.68-3.09-.16-6.18-1.74-9.1-3.03-1.38-.61-3.39-2.14-3.35-3.2.24-7.89-8.77-10.5-9.74-17.52-.89-6.4,2.9-11.18,8.55-11.03h-.02Z"/>
          <path class="cls-2" d="m2338.47,806.79c-1.54,7.82-9.86,11.51-9.39,19.8.43,7.67,4.44,13.51,8.37,19.17-.47.96-.58,1.68-.95,1.87-6.11,3.07-10.52,6.92-9.26,14.86.24,1.51-2.56,3.9-4.42,5.25-4.08,2.94-5.97,6.76-5.97,11.67,0,.8-.06,1.61-.14,2.41-.93,10-10.21,15.28-19.02,10.31-5.58-3.15-10.77-5.57-17.45-3.7-2.21.62-5.03-1.39-7.62-1.6-9.04-.73-14.88-4.44-15.63-14.37-.15-2.01-2.63-3.91-4.18-5.75-4.62-5.51-5.98-11.96-5.25-18.86.76-7.24,4.24-9.61,11.44-8.24,6.15,1.16,6.46,1.25,9.46-4.48,1.81-3.44,4.21-5.68,7.99-5.85,6.4-.29,10.4-4.04,13.52-8.95,2.97-4.67,6.78-7.91,11.78-10.5,3.53-1.83,6.15-5.69,8.73-8.99,1.96-2.51,2.98-5.74,4.85-8.32,2.9-4,5.75-4.03,9.36-.57.39.37.87.73,1.07,1.2,2.6,6.08,7.27,10.34,12.7,13.64h0Z"/>
          <path class="cls-2" d="m1652.33,1095.49c-7.36-.11-12.84-5.55-13.61-13.23-.45-4.5-1.56-8.96-1.81-13.46-.18-3.36.16-6.86,1.01-10.11.58-2.23,2.14-4.38,3.74-6.14,6.2-6.83,7.7-14.47,4.59-23.1-.36-1-.59-2.07-.72-3.13-1.29-10.35,4.18-18.19,14.04-21.38,5.28-1.7,10.27-4.36,15.23-6.91,1.84-.95,3.49-2.62,4.72-4.33,4.44-6.15,8.69-12.44,12.95-18.72,2.1-3.09,5.04-3.46,7.01-.23,1.64,2.68,2.55,5.87,3.41,8.95.79,2.83.85,5.85,1.61,8.69,1.27,4.76,1.3,8.82-3.35,12.1-1.42,1-1.9,3.62-2.38,5.6-.56,2.33-.21,4.93-1.02,7.14-5.95,16.34-10.89,33.07-18.68,48.73-2.13,4.28-3.35,9.03-4.83,13.62-3.87,11.98-9.48,16.1-21.9,15.91h0Z"/>
          <path class="cls-2" d="m2212.09,875.87c2.77-1.43,4.86-2.51,7.62-3.94,1.92,2.34,3.87,4.45,5.51,6.77,1.97,2.79,2.1,5.58-1.22,7.53-4.36,2.56-4.79,6.82-5.09,11.16-.09,1.33.16,2.69.09,4.02-.17,3.15.55,6.98-2.95,8.59-4.03,1.85-8.4,1.92-12.14-1.14-3.32-2.72-6.66-5.45-9.72-8.45-5.37-5.26-10.79-10.52-15.69-16.21-2.74-3.18-4.96-7.02-6.55-10.92-2.28-5.57-5.34-10.33-9.53-14.7-3.03-3.16-4.79-7.53-7.2-11.3-2.12-3.32-3.94-6.97-6.64-9.75-7.26-7.47-14.97-14.5-22.41-21.8-2.72-2.67-4.58-5.86-4.68-10.78,2.17.4,3.85.66,5.5,1.01,2.85.62,5.72,1.93,8.52,1.8,4.87-.23,7.91,2.01,11.09,5.27,4.26,4.37,9.13,8.13,13.74,12.15.2.17.5.25.67.44,7.52,8.93,18.44,12.61,28.1,18.24,6.46,3.77,12.53,7.8,10.89,16.84-.13.71.13,1.73.6,2.27,3.79,4.35,7.67,8.62,11.5,12.88v.02Z"/>
          <path class="cls-2" d="m2439.17,471.54c8.94,1.63,15.79,6.3,20.22,14.18,1.21,2.16,1.67,5.2,1.33,7.68-.73,5.27.4,9.97,2.22,14.85,2.04,5.47,3.26,11.24,4.75,16.59-3,4.17-7.03,4.79-10.95,5.56-2.37.47-4.76.82-7.15,1.13-4.75.62-8.74,2.34-11.14,6.85-1.89,3.55-4.7,5.25-8.59,2.95-4.16-2.45-7.16-.31-10.07,2.27-3.84,3.4-7.5,7.1-14.1,6.09-.56,3.69-.84,7.09-1.66,10.35-.4,1.59-1.54,3.75-2.82,4.16-1.4.45-3.88-.32-4.96-1.45-4.08-4.24-7.79-8.83-11.62-13.31-2.16-2.53-1.58-5.22.42-7.27,5.43-5.54,10.92-11.06,16.81-16.11,1.82-1.56,4.94-1.81,7.53-2.2,2.36-.35,4.82-.09,7.24-.06,5.28.05,9.51-1.61,11.4-7.02,1.14-3.25,3.3-4.99,6.61-6.35,8.68-3.56,12.21-14.72,7.7-23.02-1.28-2.35-2.97-4.47-4.26-6.81-1.48-2.7-2.28-5.51,1.1-9.07h-.01Z"/>
          <path class="cls-2" d="m1219.93,385.64c1.82-2.12,3.35-3.9,5.14-5.98-1.57-1.76-3.09-3.47-4.48-5.04,1.85-3.6,3.36-6.99,5.29-10.12.76-1.24,2.35-2.13,3.74-2.78,2.44-1.14,5.53-1.81,4.95-5.31-.56-3.36-2.64-5.87-6.24-6.58-4.22-.83-7.03-3.49-9.74-6.64-9.94-11.59-3.19-23.74,8.76-27.52,3.75-1.19,7.72-1.71,12.46-2.72-.96,2.82-1.74,5.11-2.65,7.78,3.26,1.46,6.29,2.81,9.73,4.35-.91,1.94-1.44,3.42-2.25,4.71-3.57,5.64-3.69,5.86.65,11.07,3.09,3.7,6.51,7.13,9.77,10.69,1.44,1.58,3.36,2.97,4.16,4.83,1.78,4.14,4.05,7.34,8.64,8.73,1.21.37,2.5,2.16,2.8,3.52.85,3.81-6.92,14.36-11.04,14.94-4.24.6-8.59.45-12.84.98-5.81.73-11.63,1.6-17.36,2.81-3.19.67-6.2,2.11-9.5-1.74v.02Z"/>
          <path class="cls-2" d="m2623.14,1287.77c1.49-5.98,5.01-7.64,8.4-9.14,11.02-4.89,22.02-9.87,33.25-14.26,12.32-4.82,24.24-10.18,34.23-19.1,1.2-1.07,2.55-1.96,3.86-2.9,5.37-3.88,11.17-3.84,17.39.11-1.18,4.67-4.98,7.13-8.63,9.68-6.56,4.59-13.09,9.22-19.79,13.59-1.95,1.27-4.39,2.18-6.7,2.44-7.04.77-12.3,4.62-17.77,8.68-6.85,5.08-14.13,9.69-21.61,13.78-6.01,3.29-12.5,2.37-18.62-.54-1.66-.79-3.2-1.86-4-2.34h0Z"/>
          <path class="cls-2" d="m2379.03,863.53c-.88,7.16-8.11,7.5-11.16,12.9,2.63,5.79,5.65,11.99,8.25,18.35,1.07,2.61,1.81,5.6,1.74,8.39-.1,4.62-3.14,6.28-7.03,3.66-2.78-1.87-5.14-4.68-6.99-7.52-2.75-4.22-4.89-8.84-7.45-13.59-3.61,2.15-3.72,5.31-4.07,8.43-.39,3.45-.82,6.9-1.47,10.3-.51,2.66-2.24,4.8-5.02,3.47-1.36-.65-2.81-3.53-2.45-4.95,1.55-6.15,1.37-11.47-3.57-16.27-1.03-1-.91-4.44.01-5.94,2.74-4.46,4.03-9.17,4.95-14.26,1.02-5.69,4.16-6.86,8.23-2.89,4.21,4.1,8.29,3.99,13.18,2.13,3.9-1.48,7.75-3.77,12.84-2.21h.01Z"/>
          <path class="cls-2" d="m2284.02,922.53c-.2,4.4,2.74,5.87,6.72,6.97,4.17,1.15,9.07,1.51,11.67,6.34-2.83,3.38-6.22,2.63-9.65,2.15-5.83-.81-11.67-1.55-17.52-2.14-13.52-1.36-26.37-6.37-40.17-6.75-4.95-.13-9.96-3.67-14.63-6.21-1.81-.98-3.82-3.46-3.91-5.35-.16-3.35,3.45-4.21,5.87-4.2,4.73.01,9.53.61,14.14,1.66,3.07.69,5.81,2.7,8.79,3.91,5.1,2.07,10.13,2.61,15.63.7,3.07-1.07,6.83-.85,10.15-.37,4.2.6,8.29,2.06,12.9,3.27v.02Z"/>
          <path class="cls-2" d="m2736.35,1233.04c-1.05-2.2-1.96-4.12-2.9-6.1.39-.77.58-1.66,1.13-2.11,3.12-2.55,6.34-4.97,9.5-7.47,6.63-5.24,9.75-11.93,8.73-20.47-.32-2.65-.39-5.37-.25-8.04.16-2.92,1.96-4.29,4.89-3.97,2.75.3,3.8,2.32,3.31,4.58-1.25,5.71,1.19,10.45,3.32,15.36,2.79,6.43,2.93,6.56,10.26,5.94,1.29-.11,2.59-.02,4.46-.02-.71,6.56-4.71,10.16-9.93,11.32-5.66,1.26-9.3,4.56-13.48,8.06-6.33,5.3-13.53,9.61-20.57,14-1.46.91-3.85.36-5.81.49-.31-.55-.63-1.09-.94-1.64,2.75-3.31,5.5-6.61,8.27-9.95v.02Z"/>
          <path class="cls-2" d="m1177.44,372.29c.82-1.51,4.71-16.81,4.69-17.38,4.76-3.41,9.21-6.61,13.69-9.79,4.45-3.16,14.16-2.5,18.17,1.19,2.11,1.93,2.72,4.29.68,6.33-3.33,3.33-4.3,7.21-4.12,11.7.12,3.02-1.5,5.15-4.35,6.07-5.85,1.91-11.71,3.8-17.64,5.44-4.4,1.21-8.5.83-11.12-3.55h0Z"/>
          <path class="cls-2" d="m2464.86,452.23c-3.7,3.15-7,5.77-10.06,8.64-2.61,2.45-5.14,1.86-8.12.82-8.6-3.02-8.88-2.78-11,6.72-3.96-.38-6.67-2.71-8.94-5.67-1.59-2.07-2.29-4.53-.32-6.59,5.36-5.61,3.83-11.08.15-16.7-.56-.86-.76-1.96-1.15-3,2.4-2.28,4.55-.89,6.55.22,8.22,4.55,16.61,8.53,26.17,9.46,3.46.34,5.98,2.13,6.73,6.11h0Z"/>
          <path class="cls-2" d="m2501.54,1240.87c-2.79,11.92-13.09,21.51-24.3,22.77-6.21.7-9.21-2.36-7.86-8.54.96-4.43,2.45-8.77,3.92-13.07.86-2.49,2.92-4.46,5.54-3.54,6.83,2.39,13.76,1.57,20.7,1.44.67-.01,1.35.63,1.99.95h.01Z"/>
          <path class="cls-2" d="m1981.09,765.61c8.16,6.43,13.49,13.56,15.59,22.75,1.32,5.75-1.73,10.18-7.21,11.61-5.37,1.4-9.04-.67-10.66-6.86-2.36-9-1.41-17.84,2.28-27.49h0Z"/>
          <path class="cls-2" d="m2237.97,894.44c-5.37-.07-9.43-4.44-9.3-10.02.13-5.54,4.36-9.89,9.63-9.9,5.39-.01,9.6,4.21,9.72,9.74.13,5.88-4.19,10.25-10.05,10.17h0Z"/>
          <path class="cls-2" d="m2349.69,855.41c2.86-7.36,6.39-10.65,11.45-9.71,7.99,1.48,15.88,2.16,23.96,1.35,1.35-.13,2.83,1.04,4.21,1.59-.53,4.39-3.14,5.9-6.69,5.99-3.21.09-6.48.13-9.63-.38-7.42-1.2-14.79-2.1-23.29,1.16h-.01Z"/>
          <path class="cls-2" d="m2410.61,936.55c-3.25,2.42-5.1,4.09-7.2,5.32-5.24,3.08-10.58,6-15.93,8.9-2.7,1.47-5.48,4.06-8.64,1.29-2.03-1.77-.04-4.82,4.82-7.63,3.92-2.26,7.83-4.53,11.78-6.74,4.08-2.29,8.33-3.49,15.17-1.15h0Z"/>
          <path class="cls-2" d="m2635.68,904.93c-.12,5.85-2.54,9.61-7.5,10.75-6.77,1.56-13.09.35-18.53-4.92,3.48-5.19,8.34-3.95,12.64-4.4,4.19-.44,8.38-.89,13.4-1.43h0Z"/>
          <path class="cls-2" d="m2311.31,935.51c6.62-.63,13.16-1.34,19.71-1.83,2.9-.22,5.22.79,5.48,4.72-1.34.51-2.71,1.27-4.17,1.53-3.62.64-7.29,1.03-10.93,1.56-5.36.78-8.47-.95-10.1-5.98h.01Z"/>
          <path class="cls-2" d="m851.99,236.64c-1.84,4.54-5.92,5.74-10.15,6.28-1.25.16-3.33-.87-3.85-1.93-.5-1,.13-3.11.99-4.14,3.43-4.13,8.35-4.17,13.02-.21h-.01Z"/>
          <path class="cls-2" d="m2411.03,409.88c4.16,3.08,7.4,4.94,9.86,7.53,1.03,1.09,1.18,4.16.39,5.58-1.39,2.48-3.66,1.21-5.36-.28-3.26-2.86-5.86-6.04-4.88-12.83h-.01Z"/>
          <path class="cls-2" d="m758.65,277.54c4.92-.28,4.9-.18,8.6,2.24-2.48,4.31-5.64,6.38-8.19,4.94-3.91-2.22-1.06-4.9-.15-7.4l-.26.22h0Z"/>
          <path class="cls-2" d="m2360.98,938.68c-5.43,2.65-9.34,2.43-12.98-1.3,4.99-3.76,6.56-3.68,12.98,1.3Z"/>
          <path class="cls-2" d="m2338.84,946.36c2.81-.67,4.75-1.8,6.07-1.3,2.06.78,3.81,2.56,5.44,4.17.3.29-.62,2.6-.92,2.58-2.02-.09-4.18-.19-5.97-1-1.48-.68-2.51-2.34-4.62-4.45Z"/>
          <path class="cls-2" d="m327.85,356.83c-2.04,1.75-3.4,3.45-5.18,4.26-1.07.49-2.78-.41-4.2-.69.38-1.44.33-3.27,1.23-4.24,2.01-2.17,4.52-2.66,8.15.67h0Z"/>
          <path class="cls-2" d="m2439.07,965.33c1.74-3.08,3.91-3.33,6.4-1.4.37.29.41,1.72.05,2.11-2.32,2.5-4.4,1.81-6.45-.71h0Z"/>
          <path class="cls-2" d="m1602.86,227.57c-2.25,1.01-3.58,2.14-4.71,1.97-1.14-.18-2.09-1.64-3.12-2.54,1.14-.81,2.27-2.26,3.42-2.26s2.32,1.41,4.4,2.83h0Z"/>
          <path class="cls-2" d="m1322.57,482.98c-.13-3.78-1.22-7.75,3.52-9.72,2.9-1.21,5.24-.83,7.05,1.77,3.2,4.6,1.94,13.01-2.71,15.96-1.62,1.03-4.07,1.53-5.93,1.18-2.69-.5-2.4-3.1-2.19-5.29.13-1.33.18-2.68.26-3.91h0Z"/>
          <path class="cls-2" d="m1359.57,502.37c8.08-4.05,15.61-1.73,22.98-1.08.27,1.01.61,1.54.5,1.96-2.45,9.06-3.92,9.86-12.92,6.97-4.08-1.31-7.93-3.02-10.55-7.84h0Z"/>
          <path class="cls-2" d="m1544.06,527.91c-5.25,5.47-5.94,5.58-11.19,2.04,4.05-5.13,4.6-5.25,11.19-2.04Z"/>
          <path class="cls-2" d="m1328.28,468.9c-1.26-3.34-2.64-5.16-2.22-6.35.57-1.64,2.5-2.8,3.85-4.17.75,1.44,2.23,2.98,2.06,4.3-.21,1.66-1.77,3.15-3.69,6.22h0Z"/>
        </g>
        <g>
          <path class="cls-3" d="m1282.84,378.27c0,5.24-6.48,24.76-9.92,32-.52,1.08-1.58,1.76-2.76,1.76s-2.24-.68-2.76-1.76c-3.61-7.59-10.82-26.76-10.82-32,0-7.23,5.9-13.13,13.13-13.13s13.13,5.9,13.13,13.13Z"/>
          <path class="cls-1" d="m1275.99,378.27c0,5.24-6.48,24.76-9.92,32-.52,1.08-1.58,1.76-2.76,1.76s-2.24-.68-2.76-1.76c-3.61-7.59-10.82-26.76-10.82-32,0-7.23,5.9-13.13,13.13-13.13s13.13,5.9,13.13,13.13Z"/>
        </g>
        <g>
          <path class="cls-3" d="m1282.84,415.5c0,5.24-6.48,24.76-9.92,32-.52,1.08-1.58,1.76-2.76,1.76s-2.24-.68-2.76-1.76c-3.61-7.59-10.82-26.76-10.82-32,0-7.23,5.9-13.13,13.13-13.13s13.13,5.9,13.13,13.13Z"/>
          <path class="cls-1" d="m1275.99,415.5c0,5.24-6.48,24.76-9.92,32-.52,1.08-1.58,1.76-2.76,1.76s-2.24-.68-2.76-1.76c-3.61-7.59-10.82-26.76-10.82-32,0-7.23,5.9-13.13,13.13-13.13s13.13,5.9,13.13,13.13Z"/>
        </g>
        <g>
          <path class="cls-3" d="m1194,523.94c0,5.24-6.48,24.76-9.92,32-.52,1.08-1.58,1.76-2.76,1.76s-2.24-.68-2.76-1.76c-3.61-7.59-10.82-26.76-10.82-32,0-7.23,5.9-13.13,13.13-13.13s13.13,5.9,13.13,13.13Z"/>
          <path class="cls-1" d="m1187.15,523.94c0,5.24-6.48,24.76-9.92,32-.52,1.08-1.58,1.76-2.76,1.76s-2.24-.68-2.76-1.76c-3.61-7.59-10.82-26.76-10.82-32,0-7.23,5.9-13.13,13.13-13.13s13.13,5.9,13.13,13.13Z"/>
        </g>
        <g>
          <path class="cls-3" d="m1342.54,487.24c0,5.24-6.48,24.76-9.92,32-.52,1.08-1.58,1.76-2.76,1.76s-2.24-.68-2.76-1.76c-3.61-7.59-10.82-26.76-10.82-32,0-7.23,5.9-13.13,13.13-13.13s13.13,5.9,13.13,13.13Z"/>
          <path class="cls-1" d="m1335.69,487.24c0,5.24-6.48,24.76-9.92,32-.52,1.08-1.58,1.76-2.76,1.76s-2.24-.68-2.76-1.76c-3.61-7.59-10.82-26.76-10.82-32,0-7.23,5.9-13.13,13.13-13.13s13.13,5.9,13.13,13.13Z"/>
        </g>
        <g>
          <path class="cls-3" d="m1972.67,719.33c0,5.24-6.48,24.76-9.92,32-.52,1.08-1.58,1.76-2.76,1.76s-2.24-.68-2.76-1.76c-3.61-7.59-10.82-26.76-10.82-32,0-7.23,5.9-13.13,13.13-13.13s13.13,5.9,13.13,13.13Z"/>
          <path class="cls-1" d="m1965.82,719.33c0,5.24-6.48,24.76-9.92,32-.52,1.08-1.58,1.76-2.76,1.76s-2.24-.68-2.76-1.76c-3.61-7.59-10.82-26.76-10.82-32,0-7.23,5.9-13.13,13.13-13.13s13.13,5.9,13.13,13.13Z"/>
        </g>
      </g>
    </g>
    <g>
      <path class="cls-3" d="m1197.42,453.32c0,5.24-6.48,24.76-9.92,32-.52,1.08-1.58,1.76-2.76,1.76s-2.24-.68-2.76-1.76c-3.61-7.59-10.82-26.76-10.82-32,0-7.23,5.9-13.13,13.13-13.13s13.13,5.9,13.13,13.13Z"/>
      <path class="cls-1" d="m1190.57,453.32c0,5.24-6.48,24.76-9.92,32-.52,1.08-1.58,1.76-2.76,1.76s-2.24-.68-2.76-1.76c-3.61-7.59-10.82-26.76-10.82-32,0-7.23,5.9-13.13,13.13-13.13s13.13,5.9,13.13,13.13Z"/>
    </g>
  </g>
</svg>