<?xml version="1.0" encoding="UTF-8"?>
<svg id="Calque_2" data-name="Calque 2" xmlns="http://www.w3.org/2000/svg" viewBox="0 0 35.12 48.89">
  <defs>
    <style>
      .cls-1 {
        fill: #f3944e;
      }

      .cls-1, .cls-2 {
        stroke: #222c6f;
        stroke-miterlimit: 10;
        stroke-width: 2px;
      }

      .cls-2 {
        fill: #dbe6f5;
      }
    </style>
  </defs>
  <g id="Illustration">
    <g>
      <path class="cls-2" d="m34.12,14.13c0,5.24-6.48,24.76-9.92,32-.52,1.08-1.58,1.76-2.76,1.76s-2.24-.68-2.76-1.76c-3.61-7.59-10.82-26.76-10.82-32C7.85,6.9,13.75,1,20.98,1s13.13,5.9,13.13,13.13Z"/>
      <path class="cls-1" d="m27.26,14.13c0,5.24-6.48,24.76-9.92,32-.52,1.08-1.58,1.76-2.76,1.76s-2.24-.68-2.76-1.76C8.21,38.55,1,19.37,1,14.13,1,6.9,6.9,1,14.13,1s13.13,5.9,13.13,13.13Z"/>
    </g>
  </g>
</svg>