<?xml version="1.0" encoding="utf-8"?>
<!-- Generator: Adobe Illustrator 23.0.3, SVG Export Plug-In . SVG Version: 6.00 Build 0)  -->
<svg version="1.1" id="Calque_1" xmlns="http://www.w3.org/2000/svg" xmlns:xlink="http://www.w3.org/1999/xlink" x="0px" y="0px"
	 viewBox="0 0 156 639" style="enable-background:new 0 0 156 639;" xml:space="preserve">
<style type="text/css">
	.st0{fill:none;}
	.st1{fill:none;stroke:#F2944D;stroke-width:4;}
	.st2{fill:#FF974E;}
</style>
<g id="Rectangle_107">
	<path class="st0" d="M78,0L78,0c43.1,0,78,34.9,78,78v561l0,0H0l0,0V78C0,34.9,34.9,0,78,0z"/>
	<path class="st1" d="M78,2L78,2c42,0,76,34,76,76v559l0,0H2l0,0V78C2,36,36,2,78,2z"/>
</g>
<g id="Icon_ionic-ios-arrow-dropup" transform="translate(-3.375 -3.375)">
	<path id="Tracé_37" class="st2" d="M62.7,117.7c-1.3-1.3-1.3-3.5,0-4.8l16.8-16.7c1.3-1.3,3.3-1.3,4.7-0.1l16.5,16.5
		c1.3,1.3,1.3,3.5,0,4.8s-3.5,1.3-4.8,0l-14.2-14l-14.2,14.3C66.1,119,64,119,62.7,117.7C62.7,117.7,62.7,117.7,62.7,117.7z"/>
	<path id="Tracé_38" class="st2" d="M81.6,146.2c20.1,0,36.4-16.3,36.4-36.4s-16.3-36.4-36.4-36.4s-36.4,16.3-36.4,36.4
		c0,0,0,0,0,0C45.2,129.9,61.5,146.2,81.6,146.2C81.6,146.2,81.6,146.2,81.6,146.2z M81.6,140.6c-17,0-30.8-13.8-30.8-30.8
		c0-8.2,3.2-16,9-21.8c12-12,31.6-12,43.6,0s12,31.6,0,43.6C97.7,137.4,89.8,140.6,81.6,140.6z"/>
</g>
</svg>
