<?xml version="1.0" encoding="UTF-8"?>
<svg id="Calque_2" data-name="Calque 2" xmlns="http://www.w3.org/2000/svg" viewBox="0 0 538 538">
  <defs>
    <style>
      .cls-1 {
        fill: #f3944e;
      }

      .cls-1, .cls-2, .cls-3, .cls-4, .cls-5, .cls-6, .cls-7 {
        stroke: #222c6f;
        stroke-miterlimit: 10;
      }

      .cls-1, .cls-2, .cls-3, .cls-4, .cls-5, .cls-7 {
        stroke-width: 2px;
      }

      .cls-2 {
        fill: #fff;
      }

      .cls-3 {
        fill: #222c6f;
      }

      .cls-4, .cls-8 {
        fill: #3848ae;
      }

      .cls-5, .cls-6 {
        fill: #dbe6f5;
      }

      .cls-7 {
        fill: none;
      }

      .cls-8 {
        stroke-width: 0px;
      }
    </style>
  </defs>
  <g id="Illustration">
    <g>
      <g>
        <path class="cls-5" d="m268.99,159L4.39,311.77c-2.23-13.93-3.39-28.21-3.39-42.77,0-13.23.96-26.23,2.82-38.94h0s265.17-71.06,265.17-71.06Z"/>
        <path class="cls-3" d="m268.99,159L3.82,230.05c3.62-24.97,10.7-48.81,20.72-71.05h244.45Z"/>
        <path class="cls-4" d="m268.99,159H24.54c9.12-20.23,20.68-39.12,34.3-56.31l210.15,56.31Z"/>
        <path class="cls-1" d="m268.99,159L58.84,102.69c12.07-15.25,25.77-29.15,40.84-41.44l169.31,97.75Z"/>
        <path class="cls-5" d="m268.99,159L99.68,61.25c13.3-10.85,27.67-20.46,42.93-28.63l126.38,126.38Z"/>
        <path class="cls-3" d="m268.99,159l-126.38-126.38c13.61-7.3,27.94-13.45,42.83-18.33l83.55,144.71Z"/>
        <path class="cls-4" d="m268.99,159L185.44,14.29c13.58-4.46,27.64-7.85,42.07-10.09l41.48,154.8Z"/>
        <path class="cls-1" d="m268.99,1v158L227.51,4.2c13.52-2.11,27.37-3.2,41.48-3.2Z"/>
        <path class="cls-6" d="m310.47,4.2l-41.48,154.8V1h0c14.1,0,27.96,1.09,41.47,3.2Z"/>
        <path class="cls-4" d="m352.54,14.29l-83.55,144.71L310.47,4.2c14.44,2.23,28.49,5.63,42.07,10.09Z"/>
        <path class="cls-3" d="m395.37,32.62l-126.38,126.38L352.54,14.29c14.9,4.87,29.22,11.03,42.83,18.33Z"/>
        <path class="cls-5" d="m438.3,61.25l-169.31,97.75,126.38-126.38c15.26,8.16,29.63,17.77,42.93,28.63Z"/>
        <path class="cls-1" d="m479.15,102.69l-210.16,56.31,169.31-97.75c15.08,12.29,28.78,26.19,40.85,41.44Z"/>
        <path class="cls-4" d="m513.45,159h-244.46l210.16-56.31c13.63,17.19,25.19,36.08,34.3,56.31Z"/>
        <path class="cls-5" d="m537,269c0,14.56-1.16,28.84-3.39,42.77l-264.62-152.77,265.2,71.06c1.85,12.71,2.81,25.71,2.81,38.94Z"/>
        <path class="cls-1" d="m533.61,311.77h0c-4.18,26.06-12.12,50.85-23.24,73.81-.7,1.47-1.42,2.92-2.16,4.36-.93,1.83-1.87,3.64-2.84,5.44l-236.38-236.38,264.62,152.77Z"/>
        <path class="cls-7" d="m505.37,395.38c-8.6,16.08-18.81,31.17-30.39,45.07h0s-.01.02-.01.02c-49.16,58.99-123.18,96.53-205.97,96.53s-156.81-37.54-205.96-96.52c-.01,0-.02-.02-.02-.03-11.59-13.9-21.79-29-30.4-45.08l236.37-236.37,236.38,236.38Z"/>
        <path class="cls-3" d="m534.19,230.06l-265.2-71.06h244.46c10.03,22.24,17.11,46.09,20.74,71.06Z"/>
        <path class="cls-1" d="m268.99,159L32.62,395.37c-.96-1.8-1.91-3.61-2.83-5.43-.74-1.44-1.46-2.89-2.17-4.36h0c-11.12-22.97-19.05-47.76-23.23-73.81l264.6-152.77Z"/>
      </g>
      <g>
        <path class="cls-2" d="m474.97,440.47c-49.16,58.99-123.18,96.53-205.97,96.53s-156.81-37.54-205.96-96.52l142.39-196.04h.02l5.6-7.75,1.99-2.72,12.82-17.67h-31.83l74.99-64.49,74.95,64.49h-31.87l12.84,17.68,7.6,10.46,142.43,196.03Z"/>
        <polygon class="cls-8" points="211.05 236.69 205.45 244.44 205.43 244.44 211.05 236.69"/>
        <g>
          <path class="cls-2" d="m510.37,385.58l-35.5-36.12-21.87-22.25-45.49-46.27-6-6.11-26.47-26.93-8.98-9.13-22.09-22.47-.17-.18h-31.76l.13.18,12.82,17.64,7.61,10.49,18.3,25.19,12.22,16.83h.01s37.29,51.35,37.29,51.35h0s.81,1.11.81,1.11l33.18,45.68,14.66,20.21h0l25.9,35.65c2.27-2.73,4.49-5.5,6.66-8.32.59-.77,1.18-1.55,1.76-2.33.57-.75,1.13-1.5,1.67-2.25.61-.81,1.2-1.63,1.8-2.46.42-.58.84-1.17,1.25-1.77.45-.62.89-1.25,1.33-1.89.62-.9,1.24-1.8,1.84-2.7,3.21-4.75,6.27-9.61,9.16-14.57.44-.73.86-1.46,1.27-2.2.23-.37.44-.75.64-1.12.41-.7.8-1.4,1.18-2.11.11-.18.21-.36.31-.55.51-.93,1.02-1.86,1.52-2.8.49-.9.96-1.8,1.43-2.71.48-.9.95-1.82,1.41-2.73"/>
          <g>
            <polygon class="cls-5" points="366.06 238.77 332.54 244.44 324.96 233.96 312.04 216.12 343.8 216.12 343.97 216.3 366.06 238.77"/>
            <polygon class="cls-5" points="363.13 286.46 407.51 280.94 453 327.21 401.23 338.91 363.13 286.46"/>
            <path class="cls-5" d="m508.21,389.94c-9.17,18.12-20.35,35.05-33.23,50.51l-25.9-35.65h0s59.13-14.86,59.13-14.86Z"/>
          </g>
        </g>
        <g>
          <path class="cls-2" d="m29.79,389.94c.46.92.93,1.83,1.41,2.74.4.76.79,1.52,1.2,2.27.07.14.15.28.22.42.04.07.07.14.11.2.39.74.79,1.47,1.19,2.19.47.88.96,1.74,1.45,2.61.39.71.8,1.42,1.21,2.12,2.61,4.56,5.36,9.03,8.24,13.4.46.72.93,1.43,1.41,2.13.48.73.97,1.45,1.46,2.16.49.72.99,1.44,1.49,2.15.08.13.17.26.27.38.55.8,1.12,1.59,1.68,2.38,3.78,5.27,7.75,10.39,11.89,15.36l25.89-35.65h0l14.67-20.21,33.17-45.68,1.09-1.5,27.12-37.33,9.9-13.62h0s12.24-16.86,12.24-16.86l18.28-25.17,7.61-10.49,12.82-17.64.13-.18h-31.76l-.16.18-22.1,22.47-8.95,9.11-26.5,26.95-6,6.11-26.74,27.2-18.74,19.07-21.88,22.25-35.5,36.11h0"/>
          <g>
            <polygon class="cls-5" points="225.95 216.12 213.03 233.96 211.05 236.69 205.45 244.44 205.43 244.44 205.39 244.43 171.93 238.77 194.03 216.3 194.19 216.12 225.95 216.12"/>
            <polygon class="cls-5" points="174.9 286.46 130.48 280.94 84.99 327.21 136.76 338.91 174.9 286.46"/>
            <path class="cls-5" d="m88.91,404.79h0s-25.89,35.66-25.89,35.66c-12.89-15.46-24.06-32.39-33.23-50.51l59.12,14.85Z"/>
          </g>
        </g>
        <g>
          <path class="cls-1" d="m174.59,329.94c.77-3.16,2.86-5.85,5.74-7.4l70.49-37.72c17.36-8.89,29.11-9.22,48.17,2.32l62.87,38.52c2.75,1.69,4.61,4.5,5.06,7.69l3.04,21.51c.44,3.15-2.92,5.44-5.71,3.9l-85.99-47.45c-3.02-1.67-6.68-1.73-9.76-.18l-96.46,48.66c-2.12,1.07-4.52-.82-3.96-3.12l6.52-26.74Z"/>
          <path class="cls-1" d="m172.07,385.64c.79-3.25,2.94-6.01,5.9-7.59l72.38-38.73c17.83-9.13,29.89-9.46,49.45,2.38l64.55,39.55c2.83,1.73,4.73,4.63,5.19,7.89l3.12,22.09c.46,3.23-3,5.59-5.87,4l-88.29-48.72c-3.1-1.71-6.86-1.78-10.02-.18l-99.04,49.96c-2.18,1.1-4.65-.85-4.07-3.2l6.7-27.45Z"/>
          <path class="cls-1" d="m160.13,447.26c.89-3.65,3.3-6.75,6.62-8.53l81.3-43.5c20.02-10.25,33.57-10.63,55.55,2.68l72.5,44.42c3.17,1.94,5.31,5.19,5.83,8.87l3.5,24.81c.51,3.63-3.37,6.28-6.59,4.5l-99.17-54.72c-3.48-1.92-7.7-2-11.26-.21l-111.24,56.11c-2.44,1.23-5.22-.95-4.57-3.6l7.52-30.83Z"/>
          <path class="cls-2" d="m174.62,322.4c.77-3.16,2.86-5.85,5.74-7.4l70.49-37.72c17.36-8.89,29.11-9.22,48.17,2.32l62.87,38.52c2.75,1.69,4.61,4.5,5.06,7.69l3.04,21.51c.44,3.15-2.92,5.44-5.71,3.9l-85.99-47.45c-3.02-1.67-6.68-1.73-9.76-.18l-96.46,48.66c-2.12,1.07-4.52-.82-3.96-3.12l6.52-26.74Z"/>
          <path class="cls-2" d="m172.09,378.1c.79-3.25,2.94-6.01,5.9-7.59l72.38-38.73c17.83-9.13,29.89-9.46,49.45,2.38l64.55,39.55c2.83,1.73,4.73,4.63,5.19,7.89l3.12,22.09c.46,3.23-3,5.59-5.87,4l-88.29-48.72c-3.1-1.71-6.86-1.78-10.02-.18l-99.04,49.96c-2.18,1.1-4.65-.85-4.07-3.2l6.7-27.45Z"/>
          <path class="cls-2" d="m160.15,439.72c.89-3.65,3.3-6.75,6.62-8.53l81.3-43.5c20.02-10.25,33.57-10.63,55.55,2.68l72.5,44.42c3.17,1.94,5.31,5.19,5.83,8.87l3.5,24.81c.51,3.63-3.37,6.28-6.59,4.5l-99.17-54.72c-3.48-1.92-7.7-2-11.26-.21l-111.24,56.11c-2.44,1.23-5.22-.95-4.57-3.6l7.52-30.83Z"/>
        </g>
      </g>
    </g>
  </g>
</svg>