<?xml version="1.0" encoding="UTF-8"?>
<svg id="Calque_2" data-name="Calque 2" xmlns="http://www.w3.org/2000/svg" viewBox="0 0 424.64 321.59">
  <defs>
    <style>
      .cls-1 {
        fill: #3848ae;
      }

      .cls-1, .cls-2, .cls-3 {
        stroke: #222c6f;
        stroke-miterlimit: 10;
        stroke-width: 2px;
      }

      .cls-2 {
        fill: #dbe6f5;
      }

      .cls-3 {
        fill: none;
      }
    </style>
  </defs>
  <g id="Calque_4" data-name="Calque 4">
    <line class="cls-3" x1="424.25" y1="164.98" x2="59.41" y2="320.68"/>
  </g>
  <g id="Illu_0" data-name="Illu 0">
    <g>
      <g>
        <path class="cls-1" d="m151.69,4.89c55.89,13.21,102.7,56.57,81.56,145.98l-7.22,30.55c-21.14,89.45-82.4,107.23-138.29,94.02C31.86,262.24-14.96,218.91,6.18,129.46l7.22-30.55C34.54,9.49,95.8-8.32,151.69,4.89Zm-52.06,220.25c33.16,7.84,54.19-4.52,65.98-54.44l8.81-37.29c11.8-49.91-1.47-70.38-34.63-78.22-33.53-7.92-54.19,4.52-65.98,54.44l-8.81,37.29c-11.8,49.91,1.1,70.29,34.63,78.22Z"/>
        <path class="cls-2" d="m165.43,8.14c55.89,13.21,102.7,56.57,81.56,145.98l-7.22,30.55c-21.14,89.45-82.4,107.23-138.29,94.02C45.6,265.49-1.22,222.16,19.92,132.71l7.22-30.55C48.28,12.74,109.54-5.07,165.43,8.14Zm-52.06,220.25c33.16,7.84,54.19-4.52,65.98-54.44l8.81-37.29c11.8-49.91-1.47-70.38-34.63-78.22-33.53-7.92-54.19,4.52-65.98,54.44l-8.81,37.29c-11.8,49.91,1.1,70.29,34.63,78.22Z"/>
      </g>
      <g>
        <path class="cls-1" d="m299.1,90.25c19.57-14.92,46.66-18.64,70.53,12.67l8.16,10.7c23.88,31.32,13.12,56.45-6.45,71.37-19.57,14.92-46.65,18.65-70.53-12.67l-8.16-10.7c-23.87-31.31-13.12-56.45,6.45-71.37Zm58.81,77.13c11.61-8.85,13.23-19.18-.09-36.66l-9.96-13.06c-13.33-17.48-23.71-18.65-35.32-9.79-11.74,8.95-13.23,19.18.09,36.66l9.96,13.06c13.33,17.48,23.58,18.75,35.32,9.79Z"/>
        <path class="cls-2" d="m305.29,85.53c19.57-14.92,46.66-18.64,70.53,12.67l8.16,10.7c23.88,31.32,13.12,56.45-6.45,71.37-19.57,14.92-46.65,18.65-70.53-12.67l-8.16-10.7c-23.87-31.31-13.12-56.45,6.45-71.37Zm58.81,77.13c11.61-8.85,13.23-19.18-.09-36.66l-9.96-13.06c-13.33-17.48-23.71-18.65-35.32-9.79-11.74,8.95-13.23,19.18.09,36.66l9.96,13.06c13.33,17.48,23.58,18.75,35.32,9.79Z"/>
      </g>
    </g>
  </g>
</svg>