<?xml version="1.0" encoding="UTF-8"?>
<svg id="Calque_2" data-name="Calque 2" xmlns="http://www.w3.org/2000/svg" xmlns:xlink="http://www.w3.org/1999/xlink" viewBox="0 0 917.02 789.15">
  <defs>
    <style>
      .cls-1 {
        stroke: #1a2e35;
      }

      .cls-1, .cls-2 {
        stroke-linecap: round;
        stroke-linejoin: round;
      }

      .cls-1, .cls-3 {
        fill: #1a2e35;
      }

      .cls-4 {
        clip-path: url(#clippath);
      }

      .cls-5, .cls-6, .cls-2 {
        fill: #fff;
      }

      .cls-7, .cls-8 {
        fill: #205600;
      }

      .cls-9, .cls-10 {
        fill: #222c6f;
      }

      .cls-11, .cls-12 {
        fill: #3848ae;
      }

      .cls-13 {
        fill: #f3944e;
      }

      .cls-13, .cls-6, .cls-12, .cls-14, .cls-2, .cls-15 {
        stroke: #222c6f;
        stroke-width: 2px;
      }

      .cls-13, .cls-6, .cls-12, .cls-14, .cls-15 {
        stroke-miterlimit: 10;
      }

      .cls-14, .cls-16 {
        fill: #dbe6f5;
      }

      .cls-17 {
        opacity: .41;
      }

      .cls-17, .cls-3, .cls-8, .cls-10, .cls-18, .cls-19, .cls-16 {
        stroke-width: 0px;
      }

      .cls-17, .cls-19 {
        fill: #122d01;
      }

      .cls-20 {
        clip-path: url(#clippath-1);
      }

      .cls-21 {
        clip-path: url(#clippath-4);
      }

      .cls-22 {
        clip-path: url(#clippath-3);
      }

      .cls-23 {
        clip-path: url(#clippath-2);
      }

      .cls-24 {
        clip-path: url(#clippath-8);
      }

      .cls-25 {
        clip-path: url(#clippath-6);
      }

      .cls-26 {
        clip-path: url(#clippath-5);
      }

      .cls-27 {
        clip-path: url(#clippath-9);
      }

      .cls-15 {
        fill: none;
      }

      .cls-18 {
        fill: #163c6b;
      }
    </style>
    <clipPath id="clippath">
      <path class="cls-8" d="m165.07,607.43l-20.3-33.3s5.18-33.92,21.6-33.69c16.43.23,20.44,28.55,20.44,28.55l-12.09,43.79-9.66-5.34Z"/>
    </clipPath>
    <clipPath id="clippath-1">
      <path class="cls-8" d="m148.62,627.23s-42.14,2.94-68.47-33.95c0,0,30.47-7.65,68.47,33.95Z"/>
    </clipPath>
    <clipPath id="clippath-2">
      <path class="cls-8" d="m159.95,630.58s-59.54-39.79-47.97-78.37c0,0,29.71-8.08,61.33,75.03l-2.7,6.62-10.67-3.28Z"/>
    </clipPath>
    <clipPath id="clippath-3">
      <path class="cls-8" d="m153,623.65s29.83-75.07,70.84-73.57c0,0,11.37,19.67-15.15,48.41-26.52,28.74-52.67,60.31-52.67,60.31l-3.03-35.15Z"/>
    </clipPath>
    <clipPath id="clippath-4">
      <path class="cls-8" d="m182.18,627.23s9.5-1.81,20.1-13.25c10.61-11.43,30.47-26.79,56.28-20.12,0,0-12.64,20.64-53.62,32.98l-24.22,7.01,1.46-6.63Z"/>
    </clipPath>
    <clipPath id="clippath-5">
      <path class="cls-6" d="m455.89,741.82s-12.73,17.62-33.68,24.6c0,0-5.82,2.79-17.92,5.59,0,0-8.61,2.33-10.94,13.5h118.25s5.86-.27,3.51-33.42l-59.21-10.27Z"/>
    </clipPath>
    <clipPath id="clippath-6">
      <path class="cls-12" d="m654.26,480.03s-117.9,14.4-166.9,41.99c0,0-21.43,6.43-25.62,62.08-4.19,55.65-7.78,156.77-7.78,156.77,0,0,9.82,5.61,20.93,4.8l-.49,3.81s9.75,4.23,14.03,4.68c4.27.45,19.56,3.6,36.43-6.75,0,0,21.68-65.18,21.24-92.29,0,0,6.22-26.22-4-68.01,0,0-18.22-24.45,119.12-31.11l19.74,3.76c35.5,6.76,71.45-9.34,90.03-40.34l1.82-3.03-118.55-36.36Z"/>
    </clipPath>
    <clipPath id="clippath-8">
      <path class="cls-6" d="m704.66,252.85s-1.25-19.45-1.75-27.44c0,0-10.73.25-14.72-3.99,0,0-4.99-4.6-3.86-26.14.06-1.21-5.57-3.32-5.45-4.63s6.53-11.64,6.7-13.11c.81-6.77,1.68-6.36,3.86-15.73,0,0-.89,3.42,17.34-1.14,0,0,17.09-3.19,20.05,2.96,0,0,6.15,7.75,7.29,16.63,0,0,2.05,5.7,7.29-.23,0,0,.01-.01.03-.03,2.48-2.12,6.37-.4,6.48,2.86.08,2.21-.38,5.22-2.18,9.01,0,0-.23,7.29,4.79,12.3,0,0-.1,5.18-4.13,9.81,0,0,3.03,22.8,7.81,28.75,0,0-15.48,33.24-49.55,10.09Z"/>
    </clipPath>
    <clipPath id="clippath-9">
      <path class="cls-6" d="m602.88,404.01s42.76-9.64,51.19-21.68c.24-.35.48-.69.72-1.03,6.64-9.54,10.62-20.66,11.46-32.25,2.03-28.02,9.68-84.53,38.41-96.21,0,0,34.39,8.89,50.14-10.09,0,0,41.92,33.2,40.21,137.62,0,0-5.68,57.73-4.92,85.63.29,10.56-1.19,21.12-4.79,31.05-2.9,8.02-7.01,16.01-12.49,19.33,0,0-18.49,4.43-73.84-17.15l-44.71-19.22s-.68-2.99.55-8.03c1.23-5.04,3.92-9.86,2.47-21.41l1.08-12.66s-40.48,2.77-75.14-4.72l-17.33-3.28s-3.3-9.12,4.51-19.77c0,0,20.57-3.06,32.48-6.15Z"/>
    </clipPath>
  </defs>
  <g id="Calque_4" data-name="Calque 4">
    <g>
      <g>
        <path class="cls-13" d="m596.07,255.21c17.19-21.98,7.24-48.51-18.13-53.2-16.71-3.09-27.46-24.4-19.16-38.48,3.78-6.4,11.28-5.18,17.19-6.76,24.69-6.62,33.16-34.08,15.4-52.35-9.87-10.15-12.27-19.52-3.51-31.84,7-9.84,13.24-13.59,25.77-8.24,28.6,12.22,50.28-4.72,45.56-35.41-1.89-12.26.98-18.37,12.95-21.6,11.08-2.99,20.4-9.04,29.19,6.05,15.98,27.43,42.65,25.96,58.81-2.42,6.38-11.21,14.19-11.57,24.72-7.87,9.91,3.48,20.97,4.79,17.82,20.11-2.88,14.02-.22,25.33,13.57,34.15,11.17,7.14,20.74,10.25,31.73,2.17,13.96-10.26,22.21-3.33,31.19,7.88,9.23,11.53,6.82,18.87-4.02,27.25-8.55,6.61-10.56,15.77-5.78,26.58,5.12,11.59,7.03,25.44,24.28,24.97,17.08-.47,22.2,8.46,22.36,24.74.13,13.02-3.56,20.23-16.57,20.66-18.06.6-21.67,13.21-25.96,27.32-4.05,13.34,1.67,21.81,10.86,28.33,18.67,13.25,1.25,23.31-2.66,34-4.17,11.36-12.93,6.12-20.44,3.17-29.89-11.73-51.89,4.83-46.63,36.3,2.2,13.12-2.92,17.75-13.84,21.3-10.87,3.53-19.9,7.8-27.89-6.16-10.84-18.94-21.95-22.07-43.18-17.34-9.04,2.02-11.4,9.19-14.23,16.08-5.02,12.27-12.42,16.34-25.98,11.9-12.12-3.97-20.34-6.95-18.51-23.05,3.18-27.99-21.2-44.94-46.02-32.64-12.07,5.98-19.9,4.65-28.33-5.98-8.99-11.33-12.13-21.03-.56-29.64Zm82.69,3.54c47.8,37.34,116.76,29.52,152.76-17.33,35.33-45.98,26.07-115.99-20.11-151.91-47.28-36.77-116.81-28.43-153.11,18.38-36.16,46.61-27.05,113.75,20.46,150.86Z"/>
        <path class="cls-6" d="m585.37,256.52c17.19-21.98,7.24-48.51-18.13-53.2-16.71-3.09-27.46-24.4-19.16-38.48,3.78-6.4,11.28-5.18,17.19-6.76,24.69-6.62,33.16-34.08,15.4-52.35-9.87-10.15-12.27-19.52-3.51-31.84,7-9.84,13.24-13.59,25.77-8.24,28.6,12.22,50.28-4.72,45.56-35.41-1.89-12.26.98-18.37,12.95-21.6,11.08-2.99,20.4-9.04,29.19,6.05,15.98,27.43,42.65,25.96,58.81-2.42,6.38-11.21,14.19-11.57,24.72-7.87,9.91,3.48,20.97,4.79,17.82,20.11-2.88,14.02-.22,25.33,13.57,34.15,11.17,7.14,20.74,10.25,31.73,2.17,13.96-10.26,22.21-3.33,31.19,7.88,9.23,11.53,6.82,18.87-4.02,27.25-8.55,6.61-10.56,15.77-5.78,26.58,5.12,11.59,7.03,25.44,24.28,24.97,17.08-.47,22.2,8.46,22.36,24.74.13,13.02-3.56,20.23-16.57,20.66-18.06.6-21.67,13.21-25.96,27.32-4.05,13.34,1.67,21.81,10.86,28.33,18.67,13.25,1.25,23.31-2.66,34-4.17,11.36-12.93,6.12-20.44,3.17-29.89-11.73-51.89,4.83-46.63,36.3,2.2,13.12-2.92,17.75-13.84,21.3-10.87,3.53-19.9,7.8-27.89-6.16-10.84-18.94-21.95-22.07-43.18-17.34-9.04,2.02-11.4,9.19-14.23,16.08-5.02,12.27-12.42,16.34-25.98,11.9-12.12-3.97-20.34-6.95-18.51-23.05,3.18-27.99-21.2-44.94-46.02-32.64-12.07,5.98-19.9,4.65-28.33-5.98-8.99-11.33-12.13-21.03-.56-29.64Zm74.69,3.54c47.8,37.34,116.76,29.52,152.76-17.33,35.33-45.98,26.07-115.99-20.11-151.91-47.28-36.77-116.81-28.43-153.11,18.38-36.16,46.61-27.05,113.75,20.46,150.86Z"/>
        <path class="cls-13" d="m17.03,689.17c13.72-5.67,16.06-20.57,5.54-29.38-6.93-5.81-6.32-18.49,1.21-22.84,3.42-1.98,6.58.56,9.73,1.37,13.17,3.4,24.28-7.09,20.84-20.21-1.91-7.29-.57-12.25,6.71-15.66,5.82-2.72,9.69-2.83,14.09,2.94,10.04,13.15,24.52,10.98,30.37-4.46,2.34-6.17,5.27-8.25,11.66-6.61,5.91,1.52,11.81,1.16,11.93,10.45.21,16.88,12.95,23.19,27.87,14.29,5.89-3.52,9.6-1.64,13.51,2.83,3.67,4.21,8.46,7.71,2.98,13.98-5.01,5.73-6.74,11.67-2.66,19.37,3.3,6.23,6.92,10.18,14.12,9.32,9.15-1.09,11.16,4.28,12.38,11.82,1.25,7.76-1.78,10.52-9,11.57-5.69.82-9.02,4.54-9.64,10.79-.67,6.71-3.41,13.62,4.7,17.92,8.03,4.26,8.06,9.73,3.87,17.31-3.35,6.06-6.95,8.44-13.09,5.23-8.52-4.45-13.49.44-19.17,5.85-5.37,5.12-4.94,10.54-2.39,15.96,5.17,11.02-5.53,11.12-10.14,15.04-4.91,4.17-7.59-.55-10.3-3.89-10.77-13.26-25.29-11.36-31.1,4.59-2.42,6.65-6,7.45-11.99,6.24-5.96-1.21-11.26-1.6-11.3-10.16-.06-11.61-4.38-15.97-15.45-19.34-4.71-1.43-7.69,1.27-10.8,3.72-5.54,4.36-10.03,4.31-15.15-1.29-4.57-5.01-7.6-8.55-2.53-15.52,8.8-12.13,1.96-26.36-12.76-27.17-7.16-.39-10.43-3.06-11.55-10.19-1.19-7.6-.11-12.91,7.5-13.87Zm33.66,21.2c12.35,29.81,46.33,44.25,75.27,31.99,28.41-12.04,42.45-46.88,30.48-75.6-12.26-29.41-46.64-43.76-75.71-31.6-28.95,12.11-42.32,45.58-30.05,75.21Z"/>
        <path class="cls-6" d="m8.91,689.17c13.72-5.67,16.06-20.57,5.54-29.38-6.93-5.81-6.32-18.49,1.21-22.84,3.42-1.98,6.58.56,9.73,1.37,13.17,3.4,24.28-7.09,20.84-20.21-1.91-7.29-.57-12.25,6.71-15.66,5.82-2.72,9.69-2.83,14.09,2.94,10.04,13.15,24.52,10.98,30.37-4.46,2.34-6.17,5.27-8.25,11.66-6.61,5.91,1.52,11.81,1.16,11.93,10.45.21,16.88,12.95,23.19,27.87,14.29,5.89-3.52,9.6-1.64,13.51,2.83,3.67,4.21,8.46,7.71,2.98,13.98-5.01,5.73-6.74,11.67-2.66,19.37,3.3,6.23,6.92,10.18,14.12,9.32,9.15-1.09,11.16,4.28,12.38,11.82,1.25,7.76-1.78,10.52-9,11.57-5.69.82-9.02,4.54-9.64,10.79-.67,6.71-3.41,13.62,4.7,17.92,8.03,4.26,8.06,9.73,3.87,17.31-3.35,6.06-6.95,8.44-13.09,5.23-8.52-4.45-13.49.44-19.17,5.85-5.37,5.12-4.94,10.54-2.39,15.96,5.17,11.02-5.53,11.12-10.14,15.04-4.91,4.17-7.59-.55-10.3-3.89-10.77-13.26-25.29-11.36-31.1,4.59-2.42,6.65-6,7.45-11.99,6.24-5.96-1.21-11.26-1.6-11.3-10.16-.06-11.61-4.38-15.97-15.45-19.34-4.71-1.43-7.69,1.27-10.8,3.72-5.54,4.36-10.03,4.31-15.15-1.29-4.57-5.01-7.6-8.55-2.53-15.52,8.8-12.13,1.96-26.36-12.76-27.17-7.16-.39-10.43-3.06-11.55-10.19-1.19-7.6-.11-12.91,7.5-13.87Zm33.66,21.2c12.35,29.81,46.33,44.25,75.27,31.99,28.41-12.04,42.45-46.88,30.48-75.6-12.26-29.41-46.64-43.76-75.71-31.6-28.95,12.11-42.32,45.58-30.05,75.21Z"/>
      </g>
      <line class="cls-15" x1="817.42" y1="785.51" x2="24.07" y2="785.51"/>
      <g>
        <path class="cls-3" d="m781.38,595.22c-13.66,0-24.95-8.3-25.62-8.8-2.24-1.68-2.69-4.85-1.01-7.09,1.68-2.23,4.85-2.7,7.09-1.01.7.52,17.68,12.86,31.85,2.83,10.43-7.39,11.84-57.12,9.51-90.07-.2-2.79,1.9-5.21,4.7-5.41,2.81-.16,5.21,1.91,5.41,4.69,1,14.2,5.07,85.71-13.76,99.05-6.06,4.29-12.33,5.81-18.17,5.81Z"/>
        <rect class="cls-1" x="702" y="594.3" width="16.86" height="124.03"/>
        <rect class="cls-14" x="635.15" y="557.4" width="150.56" height="24.97" rx="3.82" ry="3.82"/>
        <path class="cls-14" d="m798.99,377.34c-1.33,2.98-2.38,6.1-3.29,9.24-6.36,21.98-6.84,45.77-7.08,68.51-.1,9.04-2.45,23.69,1.06,32.08,4.38,10.46,24.1,15.25,29.53,3.47,6.86-14.86,2.71-34.6,6.01-50.61,3.66-17.76,13.76-39.72,9.35-57.69-4.2-17.14-17.99-30.9-31.41-12.35-1.66,2.29-3.02,4.77-4.17,7.35Z"/>
        <rect class="cls-1" x="679.42" y="582.73" width="62.02" height="16.86"/>
        <g>
          <path class="cls-2" d="m637.57,777.02c0,4.38-3.55,7.94-7.94,7.94s-7.94-3.55-7.94-7.94,3.55-7.94,7.94-7.94,7.94,3.55,7.94,7.94Z"/>
          <path class="cls-2" d="m800.61,777.02c0,4.38-3.55,7.94-7.94,7.94s-7.94-3.55-7.94-7.94,3.55-7.94,7.94-7.94,7.94,3.55,7.94,7.94Z"/>
          <path class="cls-2" d="m718.13,777.02c0,4.38-3.55,7.94-7.94,7.94s-7.94-3.55-7.94-7.94,3.55-7.94,7.94-7.94,7.94,3.55,7.94,7.94Z"/>
          <polygon class="cls-1" points="715.78 718.34 710.43 718.54 705.09 718.34 617.85 767.64 617.85 774.86 629.65 774.86 629.65 768.61 710.43 740.2 791.22 768.61 791.22 774.86 803.01 774.86 803.01 767.64 715.78 718.34"/>
          <polygon class="cls-1" points="702.71 718.11 718.15 718.11 715.84 774.86 705.03 774.86 702.71 718.11"/>
        </g>
      </g>
      <g>
        <polygon class="cls-2" points="325.52 785.51 310.75 785.51 307.77 462.74 328.49 462.74 325.52 785.51"/>
        <polygon class="cls-2" points="591.23 785.51 576.46 785.51 573.48 462.74 594.2 462.74 591.23 785.51"/>
        <rect class="cls-1" x="287.27" y="442.24" width="329.91" height="22.25"/>
      </g>
      <g>
        <path class="cls-3" d="m427.49,444.43h-49.58c-3.1,0-5.89-1.59-7.46-4.26-1.58-2.67-1.62-5.89-.13-8.6l54.46-98.71c.82-1.5,2.71-2.04,4.2-1.21,1.5.83,2.04,2.71,1.21,4.21l-54.46,98.71c-.62,1.12-.18,2.1.04,2.46.22.37.86,1.22,2.14,1.22h49.58c1.71,0,3.09,1.38,3.09,3.09s-1.39,3.09-3.09,3.09Z"/>
        <rect class="cls-2" x="427.49" y="242.14" width="11.07" height="182.97" transform="translate(-55.53 88.42) rotate(-10.96)"/>
      </g>
      <polygon class="cls-2" points="577.88 501.88 505.01 499.8 505.01 504.65 577.88 504.65 577.88 501.88"/>
      <g>
        <path class="cls-13" d="m123.46,201.79l-80.09,77.24c-2.15,2.07-.95,6.3,1.77,6.3h36.96c5.97,0,11.79-2.24,16.69-6.42l79.84-68.04c8.01-6.82,8.2-21.28.39-28.43l-77.97-71.31c-4.88-4.47-10.81-6.88-16.9-6.88h-40.39c-2.33,0-3.38,3.59-1.58,5.42l81.37,82.38c2.51,2.54,2.46,7.28-.09,9.74Z"/>
        <path class="cls-6" d="m121.52,193.32l-80.09,77.24c-2.15,2.07-.95,6.3,1.77,6.3h36.96c5.97,0,11.79-2.24,16.69-6.42l79.84-68.04c8.01-6.82,8.2-21.28.39-28.43l-77.97-71.31c-4.88-4.47-10.81-6.88-16.9-6.88h-40.39c-2.33,0-3.38,3.59-1.58,5.42l81.37,82.38c2.51,2.54,2.46,7.28-.09,9.74Z"/>
        <path class="cls-13" d="m225.68,197.55l-80.09,77.24c-2.15,2.07-.95,6.3,1.77,6.3h36.96c5.97,0,11.79-2.24,16.69-6.42l79.84-68.04c8.01-6.82,8.2-21.28.39-28.43l-77.97-71.31c-4.88-4.47-10.81-6.88-16.9-6.88h-40.39c-2.33,0-3.38,3.59-1.58,5.42l81.37,82.38c2.51,2.54,2.46,7.28-.09,9.74Z"/>
        <path class="cls-6" d="m223.75,189.08l-80.09,77.24c-2.15,2.07-.95,6.3,1.77,6.3h36.96c5.97,0,11.79-2.24,16.69-6.42l79.84-68.04c8.01-6.82,8.2-21.28.39-28.43l-77.97-71.31c-4.88-4.47-10.81-6.88-16.9-6.88h-40.39c-2.33,0-3.38,3.59-1.58,5.42l81.37,82.38c2.51,2.54,2.46,7.28-.09,9.74Z"/>
        <path class="cls-13" d="m318.27,197.55l-80.09,77.24c-2.15,2.07-.95,6.3,1.77,6.3h36.96c5.97,0,11.79-2.24,16.69-6.42l79.84-68.04c8.01-6.82,8.2-21.28.39-28.43l-77.97-71.31c-4.88-4.47-10.81-6.88-16.9-6.88h-40.39c-2.33,0-3.38,3.59-1.58,5.42l81.37,82.38c2.51,2.54,2.46,7.28-.09,9.74Z"/>
        <path class="cls-6" d="m316.33,189.08l-80.09,77.24c-2.15,2.07-.95,6.3,1.77,6.3h36.96c5.97,0,11.79-2.24,16.69-6.42l79.84-68.04c8.01-6.82,8.2-21.28.39-28.43l-77.97-71.31c-4.88-4.47-10.81-6.88-16.9-6.88h-40.39c-2.33,0-3.38,3.59-1.58,5.42l81.37,82.38c2.51,2.54,2.46,7.28-.09,9.74Z"/>
      </g>
      <g>
        <g>
          <g>
            <path class="cls-7" d="m165.07,607.43l-20.3-33.3s5.18-33.92,21.6-33.69c16.43.23,20.44,28.55,20.44,28.55l-12.09,43.79-9.66-5.34Z"/>
            <g class="cls-4">
              <path class="cls-17" d="m162.51,610.3c-2.16.16,9.38-44.28,25.92-44.45,11.25-.12-18.27,56.63-18.27,56.63l-7.65-12.17Z"/>
              <path class="cls-17" d="m152.71,613.05s-28.8-39.32-20.54-46.95c11.89-10.99,38.92,40.61,32.73,42.47l-12.19,4.48Z"/>
              <polygon class="cls-19" points="162.51 610.3 165.79 529.12 167.14 613.98 162.51 610.3"/>
            </g>
          </g>
          <g>
            <path class="cls-7" d="m148.62,627.23s-42.14,2.94-68.47-33.95c0,0,30.47-7.65,68.47,33.95Z"/>
            <g class="cls-20">
              <path class="cls-19" d="m147.3,633.92s-.56-.38-1.57-1.07c-9.32-6.31-57.21-38.53-65.57-39.56-9.28-1.14,38.44,54.49,38.44,54.49l28.71-13.86Z"/>
            </g>
          </g>
          <g>
            <path class="cls-7" d="m159.95,630.58s-59.54-39.79-47.97-78.37c0,0,29.71-8.08,61.33,75.03l-2.7,6.62-10.67-3.28Z"/>
            <g class="cls-23">
              <path class="cls-19" d="m176.08,638.4s-17.86-45.99-50.24-93.15l52.94,12.45,5.02,81.55-7.71-.85Z"/>
              <path class="cls-19" d="m153.9,631.43s-17.86-45.99-50.24-93.15l12.57,16.33,45.39,77.67-7.71-.85Z"/>
              <path class="cls-17" d="m162.96,578.5c15.92,2.92-9.14,55.51-14.34,51.66"/>
            </g>
          </g>
          <g>
            <path class="cls-7" d="m153,623.65s29.83-75.07,70.84-73.57c0,0,11.37,19.67-15.15,48.41-26.52,28.74-52.67,60.31-52.67,60.31l-3.03-35.15Z"/>
            <g class="cls-22">
              <path class="cls-19" d="m132.04,658.8s91.36-112.29,91.81-108.72-61.01,77.22-91.81,108.72Z"/>
            </g>
          </g>
          <g>
            <path class="cls-7" d="m182.18,627.23s9.5-1.81,20.1-13.25c10.61-11.43,30.47-26.79,56.28-20.12,0,0-12.64,20.64-53.62,32.98l-24.22,7.01,1.46-6.63Z"/>
            <g class="cls-21">
              <path class="cls-19" d="m185.66,633.86s48.37-9.94,55.97-37.36c7.6-27.42,9.38-27.03,9.38-27.03l15.32,50.44-80.68,13.95"/>
            </g>
          </g>
        </g>
        <path class="cls-14" d="m183.59,639.14c2.57,0,5.15,0,7.71,0,4.11.01,8.24-.02,12.34,0,2.63.01,5.41.36,8.1.39,7.18.06,14.45.27,21.6-.39,2.84.43,1.46,2.77,3.47,3.47,6.29,14.66,10.06,27.27,10.8,43.4,1.09,23.74-3.3,48.01-14.27,69.24-4.03,7.79-9.61,16.35-16.39,21.99-2.84,2.36-7.31,3.83-6.75,5.01.04.1,1.89.06.58,1.16-18.01,5.93-70.57,6.27-86.6,1.16-4.83-1.54-.99-.65-3.86-3.47-1-.98-5.84-3.72-7.71-5.4-14.82-13.32-25.03-44.9-27-64.23-2.95-28.8-.09-46.43,11.57-72.33,28.79,1.17,57.62-.08,86.41,0Z"/>
        <path class="cls-6" d="m97.18,639.14h136.17l-6.83-15.95-121.12-1.55s-3.07,5.03-8.22,17.49Z"/>
      </g>
      <g>
        <path class="cls-6" d="m570.07,412l-9.38-2.3-10.4-9.43s-1.71.8-.91,3.16l.8,2.36-12.04-3.31s-3.66-1.49-5.83.52l-11.21,6.58-4.04,2.43-5.61,6.91s1.94,1.35,6.95-1.57l3.81-1.35-4.11,4.78s2.17,1.05,5.61,0c0,0,3.51-1.87,4.19-3.21l21.02,7.58s2.78.93,6.73.93l12.52-.81,1.89-13.27Z"/>
        <g>
          <path class="cls-5" d="m455.89,741.82s-12.73,17.62-33.68,24.6c0,0-5.82,2.79-17.92,5.59,0,0-8.61,2.33-10.94,13.5h118.25s5.86-.27,3.51-33.42l-59.21-10.27Z"/>
          <g class="cls-26">
            <path class="cls-6" d="m424.62,785.51s-2.66-8.17,10.29-13.81c12.95-5.63,26.34-5.3,43.3-20.67l.54-10.41,39.8,10.1.84,40.13-77.91,5.82-16.86-11.16"/>
          </g>
          <path class="cls-15" d="m455.89,741.82s-12.73,17.62-33.68,24.6c0,0-5.82,2.79-17.92,5.59,0,0-8.61,2.33-10.94,13.5h118.25s5.86-.27,3.51-33.42l-59.21-10.27Z"/>
        </g>
        <g>
          <path class="cls-11" d="m654.26,480.03s-117.9,14.4-166.9,41.99c0,0-21.43,6.43-25.62,62.08-4.19,55.65-7.78,156.77-7.78,156.77,0,0,9.82,5.61,20.93,4.8l-.49,3.81s9.75,4.23,14.03,4.68c4.27.45,19.56,3.6,36.43-6.75,0,0,21.68-65.18,21.24-92.29,0,0,6.22-26.22-4-68.01,0,0-18.22-24.45,119.12-31.11l19.74,3.76c35.5,6.76,71.45-9.34,90.03-40.34l1.82-3.03-118.55-36.36Z"/>
          <g class="cls-25">
            <path class="cls-18" d="m474.41,749.48l8.74-102.85c.92-10.86,1.2-21.77.84-32.66l-1.62-48.67c-.85-25.42,15.34-48.57,39.74-55.76.74-.22,1.5-.43,2.27-.64,36.88-9.88,21.7-19.29,21.7-19.29l-147.8,47.03,15.01,160.41,40.68,93.81,20.44-41.4"/>
          </g>
          <path class="cls-15" d="m654.26,480.03s-117.9,14.4-166.9,41.99c0,0-21.43,6.43-25.62,62.08-4.19,55.65-7.78,156.77-7.78,156.77,0,0,9.82,5.61,20.93,4.8l-.49,3.81s9.75,4.23,14.03,4.68c4.27.45,19.56,3.6,36.43-6.75,0,0,21.68-65.18,21.24-92.29,0,0,6.22-26.22-4-68.01,0,0-18.22-24.45,119.12-31.11l19.74,3.76c35.5,6.76,71.45-9.34,90.03-40.34l1.82-3.03-118.55-36.36Z"/>
        </g>
        <path class="cls-9" d="m751.9,204.22c-31.55,23.08-59.39-30.48-63.98-40.75-.44-.99-1.15-1.83-2.02-2.5-2.3-1.77-6.76-6.68-5.57-17.65,1.59-14.63,2.5-14.63,8.19-11.3,3.41,1.99,4.78-3.03,5.32-7.37.58-4.61,5.7-7.58,9.92-5.41,1.64.84,3,2.37,3.6,4.99.2.9.16,2.61.04,4.33-.14,1.95,1.89,3.39,3.73,2.6,2.36-1.03,5.24-1.65,7.36-.06,2,1.49,3.02,3.71,3.54,5.64.49,1.83,2.68,2.64,4.29,1.58,0,0,40.94-7.62,42.75,22.83,0,0,1.71-2.78.9-6.72-.81-3.93,5.17,4.72,1.78,8.81,0,0,1.29,2.2,2.74,1.73,0,0,.81,3.62-3.39,1.26,0,0-3.6,27.88-19.2,38"/>
        <g>
          <path class="cls-5" d="m704.66,252.85s-1.25-19.45-1.75-27.44c0,0-10.73.25-14.72-3.99,0,0-4.99-4.6-3.86-26.14.06-1.21-5.57-3.32-5.45-4.63s6.53-11.64,6.7-13.11c.81-6.77,1.68-6.36,3.86-15.73,0,0-.89,3.42,17.34-1.14,0,0,17.09-3.19,20.05,2.96,0,0,6.15,7.75,7.29,16.63,0,0,2.05,5.7,7.29-.23,0,0,.01-.01.03-.03,2.48-2.12,6.37-.4,6.48,2.86.08,2.21-.38,5.22-2.18,9.01,0,0-.23,7.29,4.79,12.3,0,0-.1,5.18-4.13,9.81,0,0,3.03,22.8,7.81,28.75,0,0-15.48,33.24-49.55,10.09Z"/>
          <g class="cls-24">
            <path class="cls-16" d="m702.91,225.41s29.58,7.46,43.49-11.41c13.91-18.87,0,0,0,0,0,0-11,22.21-41.76,25.32-30.76,3.11-8.26-.88-8.26-.88l6.53-13.03"/>
            <path class="cls-6" d="m681.91,205.62c.19,2.07,7.91,9.34,19.03.74"/>
          </g>
          <path class="cls-15" d="m704.66,252.85s-1.25-19.45-1.75-27.44c0,0-10.73.25-14.72-3.99,0,0-4.99-4.6-3.86-26.14.06-1.21-5.57-3.32-5.45-4.63s6.53-11.64,6.7-13.11c.81-6.77,1.68-6.36,3.86-15.73,0,0-.89,3.42,17.34-1.14,0,0,17.09-3.19,20.05,2.96,0,0,6.15,7.75,7.29,16.63,0,0,2.05,5.7,7.29-.23,0,0,.01-.01.03-.03,2.48-2.12,6.37-.4,6.48,2.86.08,2.21-.38,5.22-2.18,9.01,0,0-.23,7.29,4.79,12.3,0,0-.1,5.18-4.13,9.81,0,0,3.03,22.8,7.81,28.75,0,0-15.48,33.24-49.55,10.09Z"/>
        </g>
        <g>
          <path class="cls-5" d="m602.88,404.01s42.76-9.64,51.19-21.68c.24-.35.48-.69.72-1.03,6.64-9.54,10.62-20.66,11.46-32.25,2.03-28.02,9.68-84.53,38.41-96.21,0,0,34.39,8.89,50.14-10.09,0,0,41.92,33.2,40.21,137.62,0,0-5.68,57.73-4.92,85.63.29,10.56-1.19,21.12-4.79,31.05-2.9,8.02-7.01,16.01-12.49,19.33,0,0-18.49,4.43-73.84-17.15l-44.71-19.22s-.68-2.99.55-8.03c1.23-5.04,3.92-9.86,2.47-21.41l1.08-12.66s-40.48,2.77-75.14-4.72l-17.33-3.28s-3.3-9.12,4.51-19.77c0,0,20.57-3.06,32.48-6.15Z"/>
          <g class="cls-27">
            <path class="cls-16" d="m658.36,437.93s19.19,6.03,73.29-53.76c0,0-7.12,77.35-60.27,111.99l-29.9-17.56,7.08-40.27,9.8-.4"/>
          </g>
          <path class="cls-15" d="m602.88,404.01s42.76-9.64,51.19-21.68c.24-.35.48-.69.72-1.03,6.64-9.54,10.62-20.66,11.46-32.25,2.03-28.02,9.68-84.53,38.41-96.21,0,0,34.39,8.89,50.14-10.09,0,0,41.92,33.2,40.21,137.62,0,0-5.68,57.73-4.92,85.63.29,10.56-1.19,21.12-4.79,31.05-2.9,8.02-7.01,16.01-12.49,19.33,0,0-18.49,4.43-73.84-17.15l-44.71-19.22s-.68-2.99.55-8.03c1.23-5.04,3.92-9.86,2.47-21.41l1.08-12.66s-40.48,2.77-75.14-4.72l-17.33-3.28s-3.3-9.12,4.51-19.77c0,0,20.57-3.06,32.48-6.15Z"/>
        </g>
        <path class="cls-15" d="m693.7,174.63s5.01-9.27,13.87-1.72"/>
        <path class="cls-10" d="m701.36,181.95c.12,3.52-1.27,6.42-3.11,6.48-1.83.06-3.41-2.75-3.53-6.27-.12-3.52,1.27-6.42,3.11-6.48,1.83-.06,3.41,2.75,3.53,6.27Z"/>
      </g>
    </g>
  </g>
</svg>