<?xml version="1.0" encoding="UTF-8"?>
<svg id="Calque_2" data-name="Calque 2" xmlns="http://www.w3.org/2000/svg" viewBox="0 0 97.56 99.87">
  <defs>
    <style>
      .cls-1 {
        fill: #3848ab;
      }

      .cls-1, .cls-2 {
        stroke-miterlimit: 10;
      }

      .cls-1, .cls-2, .cls-3 {
        stroke: #1d1d1b;
        stroke-width: 2px;
      }

      .cls-2 {
        fill: #d8e3f2;
      }

      .cls-3 {
        fill: none;
        stroke-linecap: round;
        stroke-linejoin: round;
      }
    </style>
  </defs>
  <g id="commerciale">
    <g>
      <g>
        <path class="cls-1" d="m1.06,98.86c.07-1.29.11-2.52.23-3.73.08-.83.26-1.66.45-2.47.52-2.27,1.48-4.34,2.83-6.24,1.66-2.34,3.81-4.15,6.23-5.65,2.2-1.37,4.56-2.44,6.95-3.43,2.97-1.24,5.95-2.47,8.89-3.78,1.55-.69,2.98-1.6,4.1-2.93.59-.71.97-1.46.97-2.43,0-2.06.09-4.12.12-6.17,0-.23-.09-.55-.25-.69-.98-.84-1.57-1.96-2.17-3.06-1.12-2.04-1.74-4.24-2.15-6.52-.03-.18-.16-.44-.29-.48-1.89-.54-2.62-2.08-3.19-3.72-.49-1.41-.76-2.88-.75-4.39.01-1.39.44-2.62,1.28-3.7.26-.33.26-.65.18-1.01-.33-1.57-.7-3.14-.96-4.72-.5-3.03-.69-6.08-.46-9.14.22-2.91.9-5.71,2.3-8.3,1.64-3.03,4.05-5.24,7.11-6.78,1.82-.92,3.73-1.53,5.73-1.94,2.49-.5,4.99-.72,7.52-.57,2.46.14,4.87.56,7.01,1.89.76.48,1.44,1.11,2.1,1.73.29.27.59.45.96.54,4.13,1,7.15,3.33,8.83,7.31,1.12,2.67,1.47,5.46,1.48,8.32.01,2.78-.34,5.52-.93,8.23-.27,1.23-.64,2.43-.96,3.65-.09.32-.09.59.14.89,1.13,1.54,1.48,3.25,1.16,5.14-.26,1.52-.6,3-1.32,4.38-.48.91-1.07,1.68-2.11,2-.4.12-.59.38-.68.84-.56,3.05-1.62,5.91-3.37,8.48-.21.31-.53.53-.77.82-.14.18-.3.42-.3.63,0,2.1.08,4.2.07,6.31,0,1.29.63,2.22,1.5,3.06,1.04.99,2.24,1.74,3.54,2.33,2.14.98,4.32,1.88,6.49,2.79,3.37,1.42,6.77,2.76,9.85,4.79,3.39,2.24,6.07,5.09,7.63,8.89.71,1.72,1.17,3.51,1.34,5.37.09,1,.13,2,.22,2.99.04.42-.11.51-.5.51-7.15,0-14.3,0-21.45,0-21.26,0-42.51,0-63.77,0-.22,0-.43,0-.79,0Z"/>
        <g>
          <polygon class="cls-1" points="41.67 68.15 37.14 98.86 51.36 98.86 47.22 68.15 41.67 68.15"/>
          <path class="cls-1" d="m30.99,71.89l1.16,5.08c1.07,4.7,7.57,4.43,8.27-.35l1.25-8.46-9.82,2.31c-.62.14-1,.79-.85,1.43Z"/>
          <path class="cls-1" d="m58.49,71.89l-1.12,4.92c-1.05,4.59-7.37,4.39-8.15-.26l-1.41-8.4,9.82,2.3c.62.15,1,.79.86,1.44Z"/>
        </g>
      </g>
      <g>
        <path class="cls-2" d="m10.05,92.93c.07-1.29.11-2.52.23-3.73.08-.83.26-1.66.45-2.47.52-2.27,1.48-4.34,2.83-6.24,1.66-2.34,3.81-4.15,6.23-5.65,2.2-1.37,4.56-2.44,6.95-3.43,2.97-1.24,5.95-2.47,8.89-3.78,1.55-.69,2.98-1.6,4.1-2.93.59-.71.97-1.46.97-2.43,0-2.06.09-4.12.12-6.17,0-.23-.09-.55-.25-.69-.98-.84-1.57-1.96-2.17-3.06-1.12-2.04-1.74-4.24-2.15-6.52-.03-.18-.16-.44-.29-.48-1.89-.54-2.62-2.08-3.19-3.72-.49-1.41-.76-2.88-.75-4.39.01-1.39.44-2.62,1.28-3.7.26-.33.26-.65.18-1.01-.33-1.57-.7-3.14-.96-4.72-.5-3.03-.69-6.08-.46-9.14.22-2.91.9-5.71,2.3-8.3,1.64-3.03,4.05-5.24,7.11-6.78,1.82-.92,3.73-1.53,5.73-1.94,2.49-.5,4.99-.72,7.52-.57,2.46.14,4.87.56,7.01,1.89.76.48,1.44,1.11,2.1,1.73.29.27.59.45.96.54,4.13,1,7.15,3.33,8.83,7.31,1.12,2.67,1.47,5.46,1.48,8.32.01,2.78-.34,5.52-.93,8.23-.27,1.23-.64,2.43-.96,3.65-.09.32-.09.59.14.89,1.13,1.54,1.48,3.25,1.16,5.14-.26,1.52-.6,3-1.32,4.38-.48.91-1.07,1.68-2.11,2-.4.12-.59.38-.68.84-.56,3.05-1.62,5.91-3.37,8.48-.21.31-.53.53-.77.82-.14.18-.3.42-.3.63,0,2.1.08,4.2.07,6.31,0,1.29.63,2.22,1.5,3.06,1.04.99,2.24,1.74,3.54,2.33,2.14.98,4.32,1.88,6.49,2.79,3.37,1.42,6.77,2.76,9.85,4.79,3.39,2.24,6.07,5.09,7.63,8.89.71,1.72,1.17,3.51,1.34,5.37.09,1,.13,2,.22,2.99.04.42-.11.51-.5.51-7.15,0-14.3,0-21.45,0-21.26,0-42.51,0-63.77,0-.22,0-.43,0-.79,0Z"/>
        <g>
          <polygon class="cls-3" points="50.65 62.22 46.13 92.93 60.35 92.93 56.21 62.22 50.65 62.22"/>
          <path class="cls-3" d="m39.98,65.95l1.16,5.08c1.07,4.7,7.57,4.43,8.27-.35l1.25-8.46-9.82,2.31c-.62.14-1,.79-.85,1.43Z"/>
          <path class="cls-3" d="m67.48,65.96l-1.12,4.92c-1.05,4.59-7.37,4.39-8.15-.26l-1.41-8.4,9.82,2.3c.62.15,1,.79.86,1.44Z"/>
        </g>
      </g>
    </g>
  </g>
</svg>