<?xml version="1.0" encoding="UTF-8"?>
<svg id="Calque_2" data-name="Calque 2" xmlns="http://www.w3.org/2000/svg" viewBox="0 0 114.77 106.93">
  <defs>
    <style>
      .cls-1 {
        fill: #3848ab;
      }

      .cls-1, .cls-2 {
        stroke: #1d1d1b;
        stroke-miterlimit: 10;
        stroke-width: 2px;
      }

      .cls-2 {
        fill: #d8e3f2;
      }
    </style>
  </defs>
  <g id="dossier">
    <g>
      <g>
        <path class="cls-1" d="m102.81,61.56c0-10.93,0-21.85-.02-32.78,0-.86-.13-1.75-.42-2.55-.94-2.64-3.47-4.39-6.41-4.38-11.93.03-23.85.01-35.78.01-7.73,0-15.47,0-23.2,0-.36,0-.66-.07-.88-.36-.42-.53-.87-1.05-1.25-1.6-1.09-1.57-2.12-3.18-3.26-4.71-.76-1.03-1.78-1.79-3.07-2.07-.42-.09-.86-.12-1.29-.12-6.43,0-12.86,0-19.28,0-1.35,0-2.62.28-3.76,1.01-2.18,1.39-3.18,3.42-3.18,5.97,0,10.78,0,21.56,0,32.34,0,15.55,0,31.11,0,46.66,0,1.09.14,2.17.66,3.16,1.33,2.53,3.42,3.8,6.28,3.8h43.96c9.42,0,18.83,0,28.25,0,5.43,0,10.85,0,16.28-.02,1.55,0,2.91-.62,4.07-1.63,1.65-1.44,2.3-3.3,2.3-5.46,0-12.42,0-24.84,0-37.26ZM5.44,19.8c0-.97.36-1.74,1.26-2.15.34-.16.76-.22,1.14-.22,6.41-.01,12.82,0,19.24-.01.47,0,.82.19,1.08.55.73,1.01,1.45,2.02,2.13,3.06.89,1.36,1.72,2.75,2.92,3.87.98.91,2.11,1.37,3.46,1.37,7.33-.02,14.65,0,21.98,0,12.35,0,24.69,0,37.04,0,.92,0,1.78.15,2.3,1.02.17.29.33.64.34.96.04,1.6.02,3.06.02,4.66h-4.54c-28.34,0-56.67,0-85.01,0l-3.37.03c0-4.34,0-8.79,0-13.12Z"/>
        <path class="cls-1" d="m98.36,32.9h-4.54c-28.34,0-56.67,0-85.01,0l-3.37.03c0-4.34,0-8.79,0-13.12,0-.97.36-1.74,1.26-2.15.34-.16.76-.22,1.14-.22,6.41-.01,12.82,0,19.24-.01.47,0,.82.19,1.08.55.73,1.01,1.45,2.02,2.13,3.06.89,1.36,1.72,2.75,2.92,3.87.98.91,2.11,1.37,3.46,1.37,7.33-.02,14.65,0,21.98,0,12.35,0,24.69,0,37.04,0,.92,0,1.78.15,2.3,1.02.17.29.33.64.34.96.04,1.6.02,3.06.02,4.66Z"/>
        <rect class="cls-1" x="5.44" y="37.1" width="92.92" height="63.64" rx="1.81" ry="1.81"/>
      </g>
      <g>
        <path class="cls-2" d="m113.77,49.57c0-10.93,0-21.85-.02-32.78,0-.86-.13-1.75-.42-2.55-.94-2.64-3.47-4.39-6.41-4.38-11.93.03-23.85.01-35.78.01-7.73,0-15.47,0-23.2,0-.36,0-.66-.07-.88-.36-.42-.53-.87-1.05-1.25-1.6-1.09-1.57-2.12-3.18-3.26-4.71-.76-1.03-1.78-1.79-3.07-2.07-.42-.09-.86-.12-1.29-.12-6.43,0-12.86,0-19.28,0-1.35,0-2.62.28-3.76,1.01-2.18,1.39-3.18,3.42-3.18,5.97,0,10.78,0,21.56,0,32.34,0,15.55,0,31.11,0,46.66,0,1.09.14,2.17.66,3.16,1.33,2.53,3.42,3.8,6.28,3.8h43.96c9.42,0,18.83,0,28.25,0,5.43,0,10.85,0,16.28-.02,1.55,0,2.91-.62,4.07-1.63,1.65-1.44,2.3-3.3,2.3-5.46,0-12.42,0-24.84,0-37.26ZM16.4,7.81c0-.97.36-1.74,1.26-2.15.34-.16.76-.22,1.14-.22,6.41-.01,12.82,0,19.24-.01.47,0,.82.19,1.08.55.73,1.01,1.45,2.02,2.13,3.06.89,1.36,1.72,2.75,2.92,3.87.98.91,2.11,1.37,3.46,1.37,7.33-.02,14.65,0,21.98,0,12.35,0,24.69,0,37.04,0,.92,0,1.78.15,2.3,1.02.17.29.33.64.34.96.04,1.6.02,3.06.02,4.66h-4.54c-28.34,0-56.67,0-85.01,0l-3.37.03c0-4.34,0-8.79,0-13.12Z"/>
        <path class="cls-2" d="m109.32,20.91h-4.54c-28.34,0-56.67,0-85.01,0l-3.37.03c0-4.34,0-8.79,0-13.12,0-.97.36-1.74,1.26-2.15.34-.16.76-.22,1.14-.22,6.41-.01,12.82,0,19.24-.01.47,0,.82.19,1.08.55.73,1.01,1.45,2.02,2.13,3.06.89,1.36,1.72,2.75,2.92,3.87.98.91,2.11,1.37,3.46,1.37,7.33-.02,14.65,0,21.98,0,12.35,0,24.69,0,37.04,0,.92,0,1.78.15,2.3,1.02.17.29.33.64.34.96.04,1.6.02,3.06.02,4.66Z"/>
        <rect class="cls-2" x="16.4" y="25.11" width="92.92" height="63.64" rx="2.41" ry="2.41"/>
      </g>
    </g>
  </g>
</svg>