<svg xmlns="http://www.w3.org/2000/svg" width="43.644" height="43.644" viewBox="0 0 43.644 43.644">
  <path id="Icon_awesome-linkedin-in" data-name="Icon awesome-linkedin-in" d="M9.769,43.644H.721V14.506H9.769ZM5.24,10.531a5.265,5.265,0,1,1,5.24-5.29A5.284,5.284,0,0,1,5.24,10.531ZM43.635,43.644H34.606V29.46c0-3.381-.068-7.716-4.7-7.716-4.7,0-5.425,3.673-5.425,7.472V43.644H15.437V14.506h8.678V18.48h.127A9.508,9.508,0,0,1,32.8,13.775c9.158,0,10.841,6.03,10.841,13.863V43.644Z" transform="translate(0 0)" fill="#ff974e"/>
</svg>
