<?xml version="1.0" encoding="UTF-8"?>
<svg id="Calque_2" data-name="Calque 2" xmlns="http://www.w3.org/2000/svg" viewBox="0 0 115.31 136.92">
  <defs>
    <style>
      .cls-1 {
        fill: #3848ab;
      }

      .cls-1, .cls-2 {
        stroke: #1d1d1b;
        stroke-miterlimit: 10;
        stroke-width: 2px;
      }

      .cls-2 {
        fill: #d8e3f2;
      }
    </style>
  </defs>
  <g id="Marketing">
    <g>
      <g>
        <path class="cls-1" d="m104.97,16.61c0,.81-.36,1.45-.92,2.01-2.11,2.11-4.22,4.23-6.33,6.34-2.22,2.22-4.44,4.45-6.68,6.67-1.04,1.03-2.35,1.15-3.47.36-1.35-.95-1.51-2.81-.29-4.07,1.34-1.38,2.71-2.73,4.07-4.1,2.92-2.92,5.84-5.85,8.78-8.76.38-.38.84-.72,1.33-.92,1.65-.67,3.51.66,3.51,2.46Z"/>
        <path class="cls-1" d="m101.11,43.18c-2.18,0-4.35.01-6.53,0-1.35,0-2.29-.75-2.63-2.03-.4-1.5.7-3.1,2.26-3.19,1.08-.07,2.16-.03,3.24-.03,3.34,0,6.69,0,10.03,0,1.43,0,2.28.56,2.75,1.8.57,1.5-.56,3.36-2.17,3.42-2.05.07-4.1.03-6.16.04-.27,0-.53,0-.8,0h0Z"/>
        <path class="cls-1" d="m76,18.03c0-2.23-.02-4.46,0-6.69.02-1.44,1.28-2.59,2.72-2.54,1.3.05,2.44,1.06,2.49,2.37.07,1.68.04,3.36.04,5.04,0,2.73-.01,5.45,0,8.18,0,1.14-.37,2.03-1.39,2.61-1.6.91-3.8-.22-3.85-2.07-.07-2.3-.02-4.6-.02-6.9h-.01Z"/>
        <path class="cls-1" d="m89.65,71.57c-1.11.49-2.29,1.03-3.48,1.56-4.19,1.87-8.38,3.74-12.57,5.6-3.77,1.68-7.55,3.34-11.32,5.02-3.79,1.68-7.57,3.38-11.36,5.06-.98.44-1.97.87-2.95,1.32-.35.16-.61.11-.9-.17-5.93-5.94-11.86-11.87-17.81-17.8-.32-.31-.35-.58-.17-.98,1.35-3.01,2.69-6.03,4.03-9.04,1.51-3.4,3.03-6.8,4.54-10.21,1.42-3.21,2.84-6.42,4.27-9.63,1.5-3.37,3-6.73,4.51-10.1.41-.91.81-1.83,1.18-2.65,14.01,14.01,28.01,28.01,42.04,42.04Z"/>
        <path class="cls-1" d="m42.5,94.11c-5.44,5.45-10.88,10.9-16.34,16.33-3.17,3.16-8.11,3.25-11.32.16-2.26-2.17-4.46-4.4-6.62-6.66-1.37-1.43-1.9-3.23-1.98-5.14.08-2.13.74-4,2.23-5.5,3.49-3.53,7.01-7.03,10.52-10.55,2.06-2.06,4.12-4.13,6.18-6.19.51-.51.52-.51,1.05.01,5.43,5.43,10.86,10.86,16.3,16.29q.61.61-.02,1.23Z"/>
        <path class="cls-1" d="m70.79,123.87c-.07,4.07-3.42,7.08-7.36,6.71-1.64-.16-3.03-.83-4.18-1.97-5.04-5.03-10.07-10.08-15.1-15.12-2.09-2.09-4.18-4.17-6.27-6.25-.48-.48-.49-.52,0-1.01,2.83-2.84,5.67-5.68,8.51-8.51.46-.46.5-.46.98.01,7.08,7.07,14.14,14.15,21.23,21.22,1.38,1.38,2.13,3.01,2.2,4.93Z"/>
        <path class="cls-1" d="m101.34,68.75c-.06.87-.49,1.73-1.5,2.17-.95.41-1.94.41-2.74-.3-1.08-.96-2.1-2.01-3.12-3.03-9.41-9.4-18.81-18.8-28.21-28.21-6.05-6.05-12.08-12.11-18.15-18.13-1.34-1.33-1.09-3.46.32-4.3,1.06-.63,2.29-.53,3.26.4,1.33,1.27,2.61,2.59,3.92,3.89,9.41,9.41,18.83,18.83,28.24,28.24,5.64,5.65,11.29,11.29,16.94,16.94.59.59,1.05,1.24,1.05,2.32Z"/>
        <path class="cls-1" d="m54.49,93.5h-.58s-.03-.09-.04-.14c.18-.11.34-.23.53-.31,1.81-.8,3.62-1.59,5.42-2.4,3.77-1.68,7.53-3.38,11.31-5.06,4.19-1.86,8.39-3.7,12.59-5.56,3.37-1.5,6.73-3.01,10.09-4.53.42-.19.78-.19,1.19.04,2.19,1.21,4.47,1.29,6.75.36,5.06-2.08,6.5-8.65,2.79-12.68-.92-1-1.91-1.94-2.88-2.9-10.69-10.69-21.37-21.38-32.06-32.07-4.82-4.82-9.64-9.64-14.45-14.46-2.26-2.26-4.93-3.03-8.01-2.21-3.28.88-5.49,3.76-5.73,7-.17,2.24.52,4.22,2.03,5.89.33.37.33.67.13,1.1-.67,1.44-1.3,2.9-1.94,4.35-1.41,3.18-2.82,6.36-4.23,9.53-1.34,3-2.68,5.99-4.01,8.99-1.5,3.39-2.99,6.78-4.5,10.17-1.52,3.42-3.04,6.84-4.57,10.25-.34.75-.6,1.62-1.15,2.18-5.82,5.9-11.67,11.78-17.57,17.59-2.75,2.71-4.5,5.82-4.59,9.75-.09,3.5.96,6.61,3.35,9.17,2.18,2.34,4.48,4.57,6.75,6.83,1.67,1.67,3.66,2.86,5.96,3.4,4.47,1.05,8.55.19,12.04-2.86,1.44-1.25,2.74-2.66,4.08-4.02.34-.34.56-.35.91,0,6.81,6.83,13.64,13.65,20.45,20.48,1.64,1.64,3.36,3.1,5.61,3.86,2.8.95,5.57.9,8.3-.15,4.62-1.77,7.65-6.32,7.6-11.29-.03-3.03-1.04-5.69-3.09-7.91-1.44-1.56-4.94-5.2-4.94-5.66l-13.53-16.75Zm-28.33,16.95c-3.17,3.16-8.11,3.25-11.32.16-2.26-2.17-4.46-4.4-6.62-6.66-1.37-1.43-1.9-3.23-1.98-5.14.08-2.13.74-4,2.23-5.5,3.49-3.53,7.01-7.03,10.52-10.55,2.06-2.06,4.12-4.13,6.18-6.19.51-.51.52-.51,1.05.01,5.43,5.43,10.86,10.86,16.3,16.29q.61.61-.02,1.23c-5.44,5.45-10.88,10.9-16.34,16.33Zm42.43,8.5c1.38,1.38,2.13,3.01,2.2,4.93-.07,4.07-3.42,7.08-7.36,6.71-1.64-.16-3.03-.83-4.18-1.97-5.04-5.03-10.07-10.08-15.1-15.12-2.09-2.09-4.18-4.17-6.27-6.25-.48-.48-.49-.52,0-1.01,2.83-2.84,5.67-5.68,8.51-8.51.46-.46.5-.46.98.01,7.08,7.07,14.14,14.15,21.23,21.22Zm17.58-45.82c-4.19,1.87-8.38,3.74-12.57,5.6-3.77,1.68-7.55,3.34-11.32,5.02-3.79,1.68-7.57,3.38-11.36,5.06-.98.44-1.97.87-2.95,1.32-.35.16-.61.11-.9-.17-5.93-5.94-11.86-11.87-17.81-17.8-.32-.31-.35-.58-.17-.98,1.35-3.01,2.69-6.03,4.03-9.04,1.51-3.4,3.03-6.8,4.54-10.21,1.42-3.21,2.84-6.42,4.27-9.63,1.5-3.37,3-6.73,4.51-10.1.41-.91.81-1.83,1.18-2.65,14.01,14.01,28.01,28.01,42.04,42.04-1.11.49-2.29,1.03-3.48,1.56Zm13.67-2.21c-.95.41-1.94.41-2.74-.3-1.08-.96-2.1-2.01-3.12-3.03-9.41-9.4-18.81-18.8-28.21-28.21-6.05-6.05-12.08-12.11-18.15-18.13-1.34-1.33-1.09-3.46.32-4.3,1.06-.63,2.29-.53,3.26.4,1.33,1.27,2.61,2.59,3.92,3.89,9.41,9.41,18.83,18.83,28.24,28.24,5.64,5.65,11.29,11.29,16.94,16.94.59.59,1.05,1.24,1.05,2.32-.06.87-.49,1.73-1.5,2.17Z"/>
      </g>
      <g>
        <path class="cls-2" d="m108.89,8.82c0,.81-.36,1.45-.92,2.01-2.11,2.11-4.22,4.23-6.33,6.34-2.22,2.22-4.44,4.45-6.68,6.67-1.04,1.03-2.35,1.15-3.47.36-1.35-.95-1.51-2.81-.29-4.07,1.34-1.38,2.71-2.73,4.07-4.1,2.92-2.92,5.84-5.85,8.78-8.76.38-.38.84-.72,1.33-.92,1.65-.67,3.51.66,3.51,2.46Z"/>
        <path class="cls-2" d="m105.03,35.39c-2.18,0-4.35.01-6.53,0-1.35,0-2.29-.75-2.63-2.03-.4-1.5.7-3.1,2.26-3.19,1.08-.07,2.16-.03,3.24-.03,3.34,0,6.69,0,10.03,0,1.43,0,2.28.56,2.75,1.8.57,1.5-.56,3.36-2.17,3.42-2.05.07-4.1.03-6.16.04-.27,0-.53,0-.8,0h0Z"/>
        <path class="cls-2" d="m79.92,10.23c0-2.23-.02-4.46,0-6.69.02-1.44,1.28-2.59,2.72-2.54,1.3.05,2.44,1.06,2.49,2.37.07,1.68.04,3.36.04,5.04,0,2.73-.01,5.45,0,8.18,0,1.14-.37,2.03-1.39,2.61-1.6.91-3.8-.22-3.85-2.07-.07-2.3-.02-4.6-.02-6.9h-.01Z"/>
        <path class="cls-2" d="m93.57,63.78c-1.11.49-2.29,1.03-3.48,1.56-4.19,1.87-8.38,3.74-12.57,5.6-3.77,1.68-7.55,3.34-11.32,5.02-3.79,1.68-7.57,3.38-11.36,5.06-.98.44-1.97.87-2.95,1.32-.35.16-.61.11-.9-.17-5.93-5.94-11.86-11.87-17.81-17.8-.32-.31-.35-.58-.17-.98,1.35-3.01,2.69-6.03,4.03-9.04,1.51-3.4,3.03-6.8,4.54-10.21,1.42-3.21,2.84-6.42,4.27-9.63,1.5-3.37,3-6.73,4.51-10.1.41-.91.81-1.83,1.18-2.65,14.01,14.01,28.01,28.01,42.04,42.04Z"/>
        <path class="cls-2" d="m46.42,86.32c-5.44,5.45-10.88,10.9-16.34,16.33-3.17,3.16-8.11,3.25-11.32.16-2.26-2.17-4.46-4.4-6.62-6.66-1.37-1.43-1.9-3.23-1.98-5.14.08-2.13.74-4,2.23-5.5,3.49-3.53,7.01-7.03,10.52-10.55,2.06-2.06,4.12-4.13,6.18-6.19.51-.51.52-.51,1.05.01,5.43,5.43,10.86,10.86,16.3,16.29q.61.61-.02,1.23Z"/>
        <path class="cls-2" d="m74.71,116.08c-.07,4.07-3.42,7.08-7.36,6.71-1.64-.16-3.03-.83-4.18-1.97-5.04-5.03-10.07-10.08-15.1-15.12-2.09-2.09-4.18-4.17-6.27-6.25-.48-.48-.49-.52,0-1.01,2.83-2.84,5.67-5.68,8.51-8.51.46-.46.5-.46.98.01,7.08,7.07,14.14,14.15,21.23,21.22,1.38,1.38,2.13,3.01,2.2,4.93Z"/>
        <path class="cls-2" d="m105.27,60.96c-.06.87-.49,1.73-1.5,2.17-.95.41-1.94.41-2.74-.3-1.08-.96-2.1-2.01-3.12-3.03-9.41-9.4-18.81-18.8-28.21-28.21-6.05-6.05-12.08-12.11-18.15-18.13-1.34-1.33-1.09-3.46.32-4.3,1.06-.63,2.29-.53,3.26.4,1.33,1.27,2.61,2.59,3.92,3.89,9.41,9.41,18.83,18.83,28.24,28.24,5.64,5.65,11.29,11.29,16.94,16.94.59.59,1.05,1.24,1.05,2.32Z"/>
        <path class="cls-2" d="m58.41,85.7h-.58s-.03-.09-.04-.14c.18-.11.34-.23.53-.31,1.81-.8,3.62-1.59,5.42-2.4,3.77-1.68,7.53-3.38,11.31-5.06,4.19-1.86,8.39-3.7,12.59-5.56,3.37-1.5,6.73-3.01,10.09-4.53.42-.19.78-.19,1.19.04,2.19,1.21,4.47,1.29,6.75.36,5.06-2.08,6.5-8.65,2.79-12.68-.92-1-1.91-1.94-2.88-2.9-10.69-10.69-21.37-21.38-32.06-32.07-4.82-4.82-9.64-9.64-14.45-14.46-2.26-2.26-4.93-3.03-8.01-2.21-3.28.88-5.49,3.76-5.73,7-.17,2.24.52,4.22,2.03,5.89.33.37.33.67.13,1.1-.67,1.44-1.3,2.9-1.94,4.35-1.41,3.18-2.82,6.36-4.23,9.53-1.34,3-2.68,5.99-4.01,8.99-1.5,3.39-2.99,6.78-4.5,10.17-1.52,3.42-3.04,6.84-4.57,10.25-.34.75-.6,1.62-1.15,2.18-5.82,5.9-11.67,11.78-17.57,17.59-2.75,2.71-4.5,5.82-4.59,9.75-.09,3.5.96,6.61,3.35,9.17,2.18,2.34,4.48,4.57,6.75,6.83,1.67,1.67,3.66,2.86,5.96,3.4,4.47,1.05,8.55.19,12.04-2.86,1.44-1.25,2.74-2.66,4.08-4.02.34-.34.56-.35.91,0,6.81,6.83,13.64,13.65,20.45,20.48,1.64,1.64,3.36,3.1,5.61,3.86,2.8.95,5.57.9,8.3-.15,4.62-1.77,7.65-6.32,7.6-11.29-.03-3.03-1.04-5.69-3.09-7.91-1.44-1.56-4.94-5.2-4.94-5.66l-13.53-16.75Zm-28.33,16.95c-3.17,3.16-8.11,3.25-11.32.16-2.26-2.17-4.46-4.4-6.62-6.66-1.37-1.43-1.9-3.23-1.98-5.14.08-2.13.74-4,2.23-5.5,3.49-3.53,7.01-7.03,10.52-10.55,2.06-2.06,4.12-4.13,6.18-6.19.51-.51.52-.51,1.05.01,5.43,5.43,10.86,10.86,16.3,16.29q.61.61-.02,1.23c-5.44,5.45-10.88,10.9-16.34,16.33Zm42.43,8.5c1.38,1.38,2.13,3.01,2.2,4.93-.07,4.07-3.42,7.08-7.36,6.71-1.64-.16-3.03-.83-4.18-1.97-5.04-5.03-10.07-10.08-15.1-15.12-2.09-2.09-4.18-4.17-6.27-6.25-.48-.48-.49-.52,0-1.01,2.83-2.84,5.67-5.68,8.51-8.51.46-.46.5-.46.98.01,7.08,7.07,14.14,14.15,21.23,21.22Zm17.58-45.82c-4.19,1.87-8.38,3.74-12.57,5.6-3.77,1.68-7.55,3.34-11.32,5.02-3.79,1.68-7.57,3.38-11.36,5.06-.98.44-1.97.87-2.95,1.32-.35.16-.61.11-.9-.17-5.93-5.94-11.86-11.87-17.81-17.8-.32-.31-.35-.58-.17-.98,1.35-3.01,2.69-6.03,4.03-9.04,1.51-3.4,3.03-6.8,4.54-10.21,1.42-3.21,2.84-6.42,4.27-9.63,1.5-3.37,3-6.73,4.51-10.1.41-.91.81-1.83,1.18-2.65,14.01,14.01,28.01,28.01,42.04,42.04-1.11.49-2.29,1.03-3.48,1.56Zm13.67-2.21c-.95.41-1.94.41-2.74-.3-1.08-.96-2.1-2.01-3.12-3.03-9.41-9.4-18.81-18.8-28.21-28.21-6.05-6.05-12.08-12.11-18.15-18.13-1.34-1.33-1.09-3.46.32-4.3,1.06-.63,2.29-.53,3.26.4,1.33,1.27,2.61,2.59,3.92,3.89,9.41,9.41,18.83,18.83,28.24,28.24,5.64,5.65,11.29,11.29,16.94,16.94.59.59,1.05,1.24,1.05,2.32-.06.87-.49,1.73-1.5,2.17Z"/>
      </g>
    </g>
  </g>
</svg>