<?xml version="1.0" encoding="UTF-8"?>
<svg id="Calque_2" data-name="Calque 2" xmlns="http://www.w3.org/2000/svg" viewBox="0 0 130.46 111.25">
  <defs>
    <style>
      .cls-1 {
        fill: #3848ab;
      }

      .cls-1, .cls-2 {
        stroke: #1d1d1b;
        stroke-miterlimit: 10;
        stroke-width: 2px;
      }

      .cls-2 {
        fill: #d8e3f2;
      }
    </style>
  </defs>
  <g id="Speaker">
    <g>
      <g>
        <path class="cls-1" d="m80.7,42c.56.38,1.12.77,1.68,1.16.75.53,1.06,1.23,1.01,2.16-.12,1.9-.68,3.66-1.64,5.3-.07.13-.1.28-.19.55,1.19-.41,2.22-.84,3.13-1.49.96-.69,1.98-1.34,2.79-2.19.95-.98,1.92-1.29,3.23-.96,1.95.5,3.94.62,5.95.62,3.52,0,6.92-.63,10.17-1.96,3.96-1.62,7.33-4.06,9.88-7.54,1.68-2.29,2.83-4.83,3.31-7.65.43-2.51.36-5-.3-7.45-1.09-4.04-3.36-7.32-6.55-10-2.15-1.81-4.56-3.18-7.18-4.13-3.6-1.31-7.31-1.82-11.14-1.59-.4.02-.84.08-1.32.15-3.81.58-7.41,2.16-10.45,4.53-1.96,1.53-17.48,18.37-2.38,30.49Z"/>
        <path class="cls-1" d="m1.06,110.24c.07-1.29.11-2.52.23-3.73.08-.83.26-1.66.45-2.47.52-2.27,1.48-4.34,2.83-6.24,1.66-2.34,3.81-4.15,6.23-5.65,2.2-1.37,4.56-2.44,6.95-3.43,2.97-1.24,5.95-2.47,8.89-3.78,1.55-.69,2.98-1.6,4.1-2.93.59-.71.97-1.46.97-2.43,0-2.06.09-4.12.12-6.17,0-.23-.09-.55-.25-.69-.98-.84-1.57-1.96-2.17-3.06-1.12-2.04-1.74-4.24-2.15-6.52-.03-.18-.16-.44-.29-.48-1.89-.54-2.62-2.08-3.19-3.72-.49-1.41-.76-2.88-.75-4.39.01-1.39.44-2.62,1.28-3.7.26-.33.26-.65.18-1.01-.33-1.57-.7-3.14-.96-4.72-.5-3.03-.69-6.08-.46-9.14.22-2.91.9-5.71,2.3-8.3,1.64-3.03,4.05-5.24,7.11-6.78,1.82-.92,3.73-1.53,5.73-1.94,2.49-.5,4.99-.72,7.52-.57,2.46.14,4.87.56,7.01,1.89.76.48,1.44,1.11,2.1,1.73.29.27.59.45.96.54,4.13,1,7.15,3.33,8.83,7.31,1.12,2.67,1.47,5.46,1.48,8.32.01,2.78-.34,5.52-.93,8.23-.27,1.23-.64,2.43-.96,3.65-.09.32-.09.59.14.89,1.13,1.54,1.48,3.25,1.16,5.14-.26,1.52-.6,3-1.32,4.38-.48.91-1.07,1.68-2.11,2-.4.12-.59.38-.68.84-.56,3.05-1.62,5.91-3.37,8.48-.21.31-.53.53-.77.82-.14.18-.3.42-.3.63,0,2.1.08,4.2.07,6.31,0,1.29.63,2.22,1.5,3.06,1.04.99,2.24,1.74,3.54,2.33,2.14.98,4.32,1.88,6.49,2.79,3.37,1.42,6.77,2.76,9.85,4.79,3.39,2.24,6.07,5.09,7.63,8.89.71,1.72,1.17,3.51,1.34,5.37.09,1,.13,2,.22,2.99.04.42-.11.51-.5.51-7.15,0-14.3,0-21.45,0-21.26,0-42.51,0-63.77,0-.22,0-.43,0-.79,0Z"/>
      </g>
      <g>
        <path class="cls-2" d="m89.86,36.23c.56.38,1.12.77,1.68,1.16.75.53,1.06,1.23,1.01,2.16-.12,1.9-.68,3.66-1.64,5.3-.07.13-.1.28-.19.55,1.19-.41,2.22-.84,3.13-1.49.96-.69,1.98-1.34,2.79-2.19.95-.98,1.92-1.29,3.23-.96,1.95.5,3.94.62,5.95.62,3.52,0,6.92-.63,10.17-1.96,3.96-1.62,7.33-4.06,9.88-7.54,1.68-2.29,2.83-4.83,3.31-7.65.43-2.51.36-5-.3-7.45-1.09-4.04-3.36-7.32-6.55-10-2.15-1.81-4.56-3.18-7.18-4.13-3.6-1.31-7.31-1.82-11.14-1.59-.4.02-.84.08-1.32.15-3.81.58-7.41,2.16-10.45,4.53-1.96,1.53-17.48,18.37-2.38,30.49Z"/>
        <path class="cls-2" d="m10.22,104.47c.07-1.29.11-2.52.23-3.73.08-.83.26-1.66.45-2.47.52-2.27,1.48-4.34,2.83-6.24,1.66-2.34,3.81-4.15,6.23-5.65,2.2-1.37,4.56-2.44,6.95-3.43,2.97-1.24,5.95-2.47,8.89-3.78,1.55-.69,2.98-1.6,4.1-2.93.59-.71.97-1.46.97-2.43,0-2.06.09-4.12.12-6.17,0-.23-.09-.55-.25-.69-.98-.84-1.57-1.96-2.17-3.06-1.12-2.04-1.74-4.24-2.15-6.52-.03-.18-.16-.44-.29-.48-1.89-.54-2.62-2.08-3.19-3.72-.49-1.41-.76-2.88-.75-4.39.01-1.39.44-2.62,1.28-3.7.26-.33.26-.65.18-1.01-.33-1.57-.7-3.14-.96-4.72-.5-3.03-.69-6.08-.46-9.14.22-2.91.9-5.71,2.3-8.3,1.64-3.03,4.05-5.24,7.11-6.78,1.82-.92,3.73-1.53,5.73-1.94,2.49-.5,4.99-.72,7.52-.57,2.46.14,4.87.56,7.01,1.89.76.48,1.44,1.11,2.1,1.73.29.27.59.45.96.54,4.13,1,7.15,3.33,8.83,7.31,1.12,2.67,1.47,5.46,1.48,8.32.01,2.78-.34,5.52-.93,8.23-.27,1.23-.64,2.43-.96,3.65-.09.32-.09.59.14.89,1.13,1.54,1.48,3.25,1.16,5.14-.26,1.52-.6,3-1.32,4.38-.48.91-1.07,1.68-2.11,2-.4.12-.59.38-.68.84-.56,3.05-1.62,5.91-3.37,8.48-.21.31-.53.53-.77.82-.14.18-.3.42-.3.63,0,2.1.08,4.2.07,6.31,0,1.29.63,2.22,1.5,3.06,1.04.99,2.24,1.74,3.54,2.33,2.14.98,4.32,1.88,6.49,2.79,3.37,1.42,6.77,2.76,9.85,4.79,3.39,2.24,6.07,5.09,7.63,8.89.71,1.72,1.17,3.51,1.34,5.37.09,1,.13,2,.22,2.99.04.42-.11.51-.5.51-7.15,0-14.3,0-21.45,0-21.26,0-42.51,0-63.77,0-.22,0-.43,0-.79,0Z"/>
      </g>
    </g>
  </g>
</svg>