<?xml version="1.0" encoding="UTF-8"?>
<svg id="Calque_2" data-name="Calque 2" xmlns="http://www.w3.org/2000/svg" viewBox="0 0 110.1 114.19">
  <defs>
    <style>
      .cls-1 {
        fill: #3848ab;
      }

      .cls-1, .cls-2 {
        stroke: #1d1d1b;
        stroke-miterlimit: 10;
        stroke-width: 2px;
      }

      .cls-2 {
        fill: #d8e3f2;
      }
    </style>
  </defs>
  <g id="Relation">
    <g>
      <g>
        <path class="cls-1" d="m104.93,76.16c-8.36,8.38-16.74,16.75-25.11,25.13-2.24,2.25-4.93,3.35-8.11,3.35-12.93-.01-25.87,0-38.8-.01-.84,0-1.49.29-2.07.88-2.39,2.43-4.81,4.85-7.2,7.28-.28.29-.58.35-.96.39-.93.11-1.56-.25-2.21-.9-6.2-6.25-12.42-12.49-18.69-18.67-.8-.79-.8-1.6-.76-2.52,0-.14.16-.3.27-.41,4.43-4.44,8.86-8.89,13.3-13.32,2.19-2.19,4.35-4.43,6.64-6.52,2.36-2.14,5.21-3.43,8.33-4.12,1.78-.39,3.57-.42,5.37-.42,9.22,0,18.45.03,27.67-.02,2.32-.01,4.38.54,6.11,2.12,4.46,4.06,2.97,11.41-2.73,13.33-1.45.49-2.99.72-4.49,1.04-1.98.41-3.97.8-5.96,1.19-.88.17-1.77.33-2.65.5-.16.03-.31.09-.53.16.41.6.8.87,1.47.86,6.02-.03,12.03-.02,18.05,0,.45,0,.78-.12,1.1-.44,6.74-6.73,13.49-13.46,20.23-20.19,2.13-2.13,4.68-3.16,7.69-2.66,2.91.48,4.97,2.19,6.03,4.92,1.31,3.41.59,6.47-1.99,9.05Z"/>
        <path class="cls-1" d="m98.99,26.85c-.2,2.46-1.12,4.7-2.32,6.83-2.01,3.57-4.59,6.71-7.38,9.68-4.71,5.01-9.95,9.43-15.42,13.59-1.39,1.06-2.83,2.06-4.23,3.1-.29.21-.5.26-.82.03-6.63-4.72-12.95-9.8-18.66-15.62-3.01-3.07-5.8-6.34-8.01-10.05-1.17-1.96-2.11-4.01-2.56-6.26-.32-1.64-.3-3.28-.04-4.91.52-3.31,1.88-6.25,4.12-8.75,2.55-2.85,5.69-4.71,9.47-5.41,6.1-1.13,11.23.72,15.51,5.12.17.17.33.35.53.55.15-.14.28-.25.39-.37,2.18-2.37,4.79-4.09,7.88-4.99,2.53-.74,5.11-.87,7.71-.34,5.52,1.13,9.54,4.24,12.1,9.22,1.38,2.69,1.96,5.58,1.72,8.6Z"/>
      </g>
      <g>
        <path class="cls-2" d="m106.47,68.45c-8.36,8.38-16.74,16.75-25.11,25.13-2.24,2.25-4.93,3.35-8.11,3.35-12.93-.01-25.87,0-38.8-.01-.84,0-1.49.29-2.07.88-2.39,2.43-4.81,4.85-7.2,7.28-.28.29-.58.35-.96.39-.93.11-1.56-.25-2.21-.9-6.2-6.25-12.42-12.49-18.69-18.67-.8-.79-.8-1.6-.76-2.52,0-.14.16-.3.27-.41,4.43-4.44,8.86-8.89,13.3-13.32,2.19-2.19,4.35-4.43,6.64-6.52,2.36-2.14,5.21-3.43,8.33-4.12,1.78-.39,3.57-.42,5.37-.42,9.22,0,18.45.03,27.67-.02,2.32-.01,4.38.54,6.11,2.12,4.46,4.06,2.97,11.41-2.73,13.33-1.45.49-2.99.72-4.49,1.04-1.98.41-3.97.8-5.96,1.19-.88.17-1.77.33-2.65.5-.16.03-.31.09-.53.16.41.6.8.87,1.47.86,6.02-.03,12.03-.02,18.05,0,.45,0,.78-.12,1.1-.44,6.74-6.73,13.49-13.46,20.23-20.19,2.13-2.13,4.68-3.16,7.69-2.66,2.91.48,4.97,2.19,6.03,4.92,1.31,3.41.59,6.47-1.99,9.05Z"/>
        <path class="cls-2" d="m100.53,19.15c-.2,2.46-1.12,4.7-2.32,6.83-2.01,3.57-4.59,6.71-7.38,9.68-4.71,5.01-9.95,9.43-15.42,13.59-1.39,1.06-2.83,2.06-4.23,3.1-.29.21-.5.26-.82.03-6.63-4.72-12.95-9.8-18.66-15.62-3.01-3.07-5.8-6.34-8.01-10.05-1.17-1.96-2.11-4.01-2.56-6.26-.32-1.64-.3-3.28-.04-4.91.52-3.31,1.88-6.25,4.12-8.75,2.55-2.85,5.69-4.71,9.47-5.41,6.1-1.13,11.23.72,15.51,5.12.17.17.33.35.53.55.15-.14.28-.25.39-.37,2.18-2.37,4.79-4.09,7.88-4.99,2.53-.74,5.11-.87,7.71-.34,5.52,1.13,9.54,4.24,12.1,9.22,1.38,2.69,1.96,5.58,1.72,8.6Z"/>
      </g>
    </g>
  </g>
</svg>