<?xml version="1.0" encoding="UTF-8"?>
<svg id="Calque_2" data-name="Calque 2" xmlns="http://www.w3.org/2000/svg" viewBox="0 0 116.45 113.75">
  <defs>
    <style>
      .cls-1 {
        fill: #3848ab;
      }

      .cls-1, .cls-2 {
        stroke: #1d1d1b;
        stroke-miterlimit: 10;
        stroke-width: 2px;
      }

      .cls-2 {
        fill: #d8e3f2;
      }
    </style>
  </defs>
  <g id="technologie">
    <g>
      <path class="cls-1" d="m13.21,84.45c5.23-6.68,2.2-14.75-5.51-16.18-5.08-.94-8.35-7.42-5.83-11.7,1.15-1.95,3.43-1.57,5.23-2.06,7.51-2.01,10.09-10.36,4.68-15.92-3-3.09-3.73-5.94-1.07-9.68,2.13-2.99,4.03-4.13,7.84-2.51,8.7,3.72,15.29-1.44,13.86-10.77-.57-3.73.3-5.59,3.94-6.57,3.37-.91,6.2-2.75,8.88,1.84,4.86,8.34,12.97,7.89,17.89-.74,1.94-3.41,4.31-3.52,7.52-2.39,3.01,1.06,6.38,1.46,5.42,6.12-.88,4.26-.07,7.7,4.13,10.39,3.4,2.17,6.31,3.12,9.65.66,4.24-3.12,6.76-1.01,9.49,2.4,2.81,3.51,2.08,5.74-1.22,8.29-2.6,2.01-3.21,4.8-1.76,8.08,1.56,3.52,2.14,7.74,7.38,7.59,5.2-.14,6.75,2.57,6.8,7.52.04,3.96-1.08,6.15-5.04,6.28-5.49.18-6.59,4.02-7.89,8.31-1.23,4.06.51,6.63,3.3,8.62,5.68,4.03.38,7.09-.81,10.34-1.27,3.46-3.93,1.86-6.22.96-9.09-3.57-15.78,1.47-14.18,11.04.67,3.99-.89,5.4-4.21,6.48-3.31,1.07-6.05,2.37-8.48-1.87-3.3-5.76-6.68-6.71-13.13-5.27-2.75.61-3.47,2.79-4.33,4.89-1.53,3.73-3.78,4.97-7.9,3.62-3.69-1.21-6.18-2.11-5.63-7.01.97-8.51-6.45-13.67-14-9.93-3.67,1.82-6.05,1.42-8.62-1.82-2.73-3.45-3.69-6.4-.17-9.01Zm22.72,1.08c14.54,11.36,35.51,8.98,46.46-5.27,10.75-13.99,7.93-35.28-6.11-46.2-14.38-11.18-35.52-8.65-46.57,5.59-11,14.18-8.23,34.6,6.22,45.88Z"/>
      <path class="cls-2" d="m18.14,78.32c5.23-6.68,2.2-14.75-5.51-16.18-5.08-.94-8.35-7.42-5.83-11.7,1.15-1.95,3.43-1.57,5.23-2.06,7.51-2.01,10.09-10.36,4.68-15.92-3-3.09-3.73-5.94-1.07-9.68,2.13-2.99,4.03-4.13,7.84-2.51,8.7,3.72,15.29-1.44,13.86-10.77-.57-3.73.3-5.59,3.94-6.57,3.37-.91,6.2-2.75,8.88,1.84,4.86,8.34,12.97,7.89,17.89-.74,1.94-3.41,4.31-3.52,7.52-2.39,3.01,1.06,6.38,1.46,5.42,6.12-.88,4.26-.07,7.7,4.13,10.39,3.4,2.17,6.31,3.12,9.65.66,4.24-3.12,6.76-1.01,9.49,2.4,2.81,3.51,2.08,5.74-1.22,8.29-2.6,2.01-3.21,4.8-1.76,8.08,1.56,3.52,2.14,7.74,7.38,7.59,5.2-.14,6.75,2.57,6.8,7.52.04,3.96-1.08,6.15-5.04,6.28-5.49.18-6.59,4.02-7.89,8.31-1.23,4.06.51,6.63,3.3,8.62,5.68,4.03.38,7.09-.81,10.34-1.27,3.46-3.93,1.86-6.22.96-9.09-3.57-15.78,1.47-14.18,11.04.67,3.99-.89,5.4-4.21,6.48-3.31,1.07-6.05,2.37-8.48-1.87-3.3-5.76-6.68-6.71-13.13-5.27-2.75.61-3.47,2.79-4.33,4.89-1.53,3.73-3.78,4.97-7.9,3.62-3.69-1.21-6.18-2.11-5.63-7.01.97-8.51-6.45-13.67-14-9.93-3.67,1.82-6.05,1.42-8.62-1.82-2.73-3.45-3.69-6.4-.17-9.01Zm22.72,1.08c14.54,11.36,35.51,8.98,46.46-5.27,10.75-13.99,7.93-35.28-6.11-46.2-14.38-11.18-35.52-8.65-46.57,5.59-11,14.18-8.23,34.6,6.22,45.88Z"/>
    </g>
  </g>
</svg>