<?xml version="1.0" encoding="UTF-8"?>
<svg id="Calque_2" data-name="Calque 2" xmlns="http://www.w3.org/2000/svg" viewBox="0 0 103.97 100.59">
  <defs>
    <style>
      .cls-1 {
        fill: #3848ab;
      }

      .cls-1, .cls-2 {
        stroke: #1d1d1b;
        stroke-miterlimit: 10;
        stroke-width: 2px;
      }

      .cls-2 {
        fill: #d8e3f2;
      }
    </style>
  </defs>
  <g id="visuelle">
    <g>
      <g>
        <path class="cls-1" d="m95.64,38.76c-.38-1.12-.9-2.17-1.59-3.13-1.13-1.55-2.59-2.66-4.35-3.4-1.58-.67-3.22-1.08-4.93-1.11-3.26-.06-6.53-.03-9.79-.04-.59,0-.59,0-.59-.6,0-1.46,0-2.92,0-4.38,0-5.63,0-11.26,0-16.89,0-.33-.03-.67-.14-.97-.43-1.17-1.35-1.65-2.54-1.65-5,0-10.01,0-15.01,0H20.61c-5.63,0-11.25,0-16.88.01-.44,0-.92.07-1.31.25-1,.47-1.42,1.31-1.41,2.41,0,13.87,0,27.74,0,41.61h0v26.24c0,4.96,0,9.93,0,14.89,0,1.53.37,2.93,1.21,4.21.98,1.49,2.32,2.54,4.05,3.01.76.21,1.56.32,2.35.34,2.07.04,4.14.01,6.21.02,17.31,0,34.61,0,51.92,0,1.29,0,2.53-.21,3.68-.85,2.41-1.34,3.87-3.37,3.93-6.15.1-4.33.03-8.65.04-12.98,0-2.2,0-4.41,0-6.61,0-.29.02-.51.4-.55,2.12-.23,4.15-.8,6.11-1.64,2.22-.96,4.22-2.25,6.02-3.86,2.06-1.83,3.73-3.97,5.1-6.35.89-1.55,1.69-3.15,2.24-4.85.47-1.47.96-2.94,1.32-4.45.29-1.2.45-2.45.59-3.69.34-2.98.44-5.95-.53-8.86Zm-40.9,28.87c-.46,4.07-2.28,7.37-5.81,9.6-1.43.9-2.99,1.49-4.62,1.94-2.16.6-4.36.78-6.57.79-1.82,0-3.65-.14-5.45-.52-1.61-.34-3.15-.83-4.61-1.54-2.15-1.05-3.89-2.58-5.15-4.64-1.63-2.67-2.15-5.59-1.87-8.66.19-2.09.85-4.07,2.04-5.83.98-1.45,2.04-2.84,3.03-4.27.79-1.15,1.41-2.39,1.85-3.72.54-1.66,1.09-3.32,1.59-4.99.38-1.27.82-2.51,1.49-3.66,1.04-1.77,2.52-2.97,4.55-3.44.67-.15,1.36-.23,2.04-.32.3-.04.44-.16.45-.48.04-1.46.19-2.91.64-4.31.85-2.64,2.37-4.74,4.84-6.08,1.13-.61,2.32-1.03,3.58-1.23.49-.08.58-.01.61.5.1,1.79-.08,3.54-.64,5.26-.47,1.45-1.16,2.75-2.24,3.83-1.12,1.13-2.46,1.86-4.02,2.19-.47.1-.94.2-1.5.32.48.12.87.22,1.27.32,2.24.54,3.77,1.91,4.81,3.93.63,1.23,1.04,2.54,1.44,3.86.52,1.72,1.06,3.44,1.68,5.12.56,1.52,1.48,2.86,2.44,4.16.82,1.12,1.65,2.24,2.39,3.41.84,1.35,1.34,2.83,1.64,4.4.25,1.35.29,2.71.14,4.05Zm36.7-21.83c-.1,1.04-.17,2.09-.38,3.12-.29,1.41-.62,2.82-1.08,4.18-.49,1.43-1.07,2.85-1.75,4.2-1.79,3.5-4.28,6.39-7.74,8.36-1.26.71-2.59,1.26-4.02,1.55-.51.1-1.01.2-1.52.31-.5.11-.55.07-.56-.44,0-2.1,0-4.2,0-6.29v-24.13q0-.71.7-.71c3.02,0,6.05-.01,9.08.03,1.35.02,2.69.23,3.93.86,1.12.57,1.98,1.42,2.52,2.55.98,2.05,1.03,4.22.82,6.42Z"/>
        <path class="cls-1" d="m54.74,67.64c-.46,4.07-2.28,7.37-5.81,9.6-1.43.9-2.99,1.49-4.62,1.94-2.16.6-4.36.78-6.57.79-1.82,0-3.65-.14-5.45-.52-1.61-.34-3.15-.83-4.61-1.54-2.15-1.05-3.89-2.58-5.15-4.64-1.63-2.67-2.15-5.59-1.87-8.66.19-2.09.85-4.07,2.04-5.83.98-1.45,2.04-2.84,3.03-4.27.79-1.15,1.41-2.39,1.85-3.72.54-1.66,1.09-3.32,1.59-4.99.38-1.27.82-2.51,1.49-3.66,1.04-1.77,2.52-2.97,4.55-3.44.67-.15,1.36-.23,2.04-.32.3-.04.44-.16.45-.48.04-1.46.19-2.91.64-4.31.85-2.64,2.37-4.74,4.84-6.08,1.13-.61,2.32-1.03,3.58-1.23.49-.08.58-.01.61.5.1,1.79-.08,3.54-.64,5.26-.47,1.45-1.16,2.75-2.24,3.83-1.12,1.13-2.46,1.86-4.02,2.19-.47.1-.94.2-1.5.32.48.12.87.22,1.27.32,2.24.54,3.77,1.91,4.81,3.93.63,1.23,1.04,2.54,1.44,3.86.52,1.72,1.06,3.44,1.68,5.12.56,1.52,1.48,2.86,2.44,4.16.82,1.12,1.65,2.24,2.39,3.41.84,1.35,1.34,2.83,1.64,4.4.25,1.35.29,2.71.14,4.05Z"/>
      </g>
      <g>
        <path class="cls-2" d="m102.2,33.17c-.38-1.12-.9-2.17-1.59-3.13-1.13-1.55-2.59-2.66-4.35-3.4-1.58-.67-3.22-1.08-4.93-1.11-3.26-.06-6.53-.03-9.79-.04-.59,0-.59,0-.59-.6,0-1.46,0-2.92,0-4.38,0-5.63,0-11.26,0-16.89,0-.33-.03-.67-.14-.97-.43-1.17-1.35-1.65-2.54-1.65-5,0-10.01,0-15.01,0H27.17c-5.63,0-11.26,0-16.88.01-.44,0-.92.07-1.31.25-1,.47-1.42,1.31-1.41,2.41,0,13.87,0,27.74,0,41.61h0v26.24c0,4.96,0,9.93,0,14.89,0,1.53.37,2.93,1.21,4.21.98,1.49,2.32,2.54,4.05,3.01.76.21,1.56.32,2.35.34,2.07.04,4.14.01,6.21.02,17.31,0,34.62,0,51.93,0,1.29,0,2.53-.21,3.68-.85,2.41-1.34,3.87-3.37,3.93-6.15.1-4.33.03-8.65.04-12.98,0-2.2,0-4.41,0-6.61,0-.29.02-.51.4-.55,2.12-.23,4.15-.8,6.11-1.64,2.22-.96,4.22-2.25,6.02-3.86,2.06-1.83,3.73-3.97,5.1-6.35.89-1.55,1.69-3.15,2.24-4.85.47-1.47.96-2.94,1.32-4.45.29-1.2.45-2.45.59-3.69.34-2.98.44-5.95-.53-8.86Zm-40.9,28.87c-.46,4.07-2.28,7.37-5.81,9.6-1.43.9-2.99,1.49-4.62,1.94-2.16.6-4.36.78-6.57.79-1.82,0-3.65-.14-5.45-.52-1.61-.34-3.15-.83-4.61-1.54-2.15-1.05-3.89-2.58-5.15-4.64-1.63-2.67-2.15-5.59-1.87-8.66.19-2.09.85-4.07,2.04-5.83.98-1.45,2.04-2.84,3.03-4.27.79-1.15,1.41-2.39,1.85-3.72.54-1.66,1.09-3.32,1.59-4.99.38-1.27.82-2.51,1.49-3.66,1.04-1.77,2.52-2.97,4.55-3.44.67-.15,1.36-.23,2.04-.32.3-.04.44-.16.45-.48.04-1.46.19-2.91.64-4.31.85-2.64,2.37-4.74,4.84-6.08,1.13-.61,2.32-1.03,3.58-1.23.49-.08.58-.01.61.5.1,1.79-.08,3.54-.64,5.26-.47,1.45-1.16,2.75-2.24,3.83-1.12,1.13-2.46,1.86-4.02,2.19-.47.1-.94.2-1.5.32.48.12.87.22,1.27.32,2.24.54,3.77,1.91,4.81,3.93.63,1.23,1.04,2.54,1.44,3.86.52,1.72,1.06,3.44,1.68,5.12.56,1.52,1.48,2.86,2.44,4.16.82,1.12,1.65,2.24,2.39,3.41.84,1.35,1.34,2.83,1.64,4.4.25,1.35.29,2.71.14,4.05Zm36.7-21.83c-.1,1.04-.17,2.09-.38,3.12-.29,1.41-.62,2.82-1.08,4.18-.49,1.43-1.07,2.85-1.75,4.2-1.79,3.5-4.28,6.39-7.74,8.36-1.26.71-2.59,1.26-4.02,1.55-.51.1-1.01.2-1.52.31-.5.11-.55.07-.56-.44,0-2.1,0-4.2,0-6.29v-24.13q0-.71.7-.71c3.03,0,6.05-.01,9.08.03,1.35.02,2.69.23,3.93.86,1.12.57,1.98,1.42,2.52,2.55.98,2.05,1.03,4.22.82,6.42Z"/>
        <path class="cls-2" d="m61.3,62.05c-.46,4.07-2.28,7.37-5.81,9.6-1.43.9-2.99,1.49-4.62,1.94-2.16.6-4.36.78-6.57.79-1.82,0-3.65-.14-5.45-.52-1.61-.34-3.15-.83-4.61-1.54-2.15-1.05-3.89-2.58-5.15-4.64-1.63-2.67-2.15-5.59-1.87-8.66.19-2.09.85-4.07,2.04-5.83.98-1.45,2.04-2.84,3.03-4.27.79-1.15,1.41-2.39,1.85-3.72.54-1.66,1.09-3.32,1.59-4.99.38-1.27.82-2.51,1.49-3.66,1.04-1.77,2.52-2.97,4.55-3.44.67-.15,1.36-.23,2.04-.32.3-.04.44-.16.45-.48.04-1.46.19-2.91.64-4.31.85-2.64,2.37-4.74,4.84-6.08,1.13-.61,2.32-1.03,3.58-1.23.49-.08.58-.01.61.5.1,1.79-.08,3.54-.64,5.26-.47,1.45-1.16,2.75-2.24,3.83-1.12,1.13-2.46,1.86-4.02,2.19-.47.1-.94.2-1.5.32.48.12.87.22,1.27.32,2.24.54,3.77,1.91,4.81,3.93.63,1.23,1.04,2.54,1.44,3.86.52,1.72,1.06,3.44,1.68,5.12.56,1.52,1.48,2.86,2.44,4.16.82,1.12,1.65,2.24,2.39,3.41.84,1.35,1.34,2.83,1.64,4.4.25,1.35.29,2.71.14,4.05Z"/>
      </g>
    </g>
  </g>
</svg>