<?xml version="1.0" encoding="UTF-8"?>
<svg id="Calque_2" data-name="Calque 2" xmlns="http://www.w3.org/2000/svg" viewBox="0 0 117.58 105.29">
  <defs>
    <style>
      .cls-1 {
        fill: #3848ab;
      }

      .cls-1, .cls-2 {
        stroke: #1d1d1b;
        stroke-miterlimit: 10;
        stroke-width: 2px;
      }

      .cls-2 {
        fill: #d8e3f2;
      }
    </style>
  </defs>
  <g id="ux">
    <g>
      <g>
        <path class="cls-1" d="m98.12,30.97c-15.35,0-30.7,0-46.06,0H6.1c-.64,0-.64,0-.64.64v51.99c0,.69,0,.69.68.69,9.37,0,18.73,0,28.1,0h63.84c.66,0,.66,0,.66-.67,0-17.35,0-34.69,0-52.04,0-.62,0-.62-.62-.62Zm-43.82,7.29c0-.6,0-.6.61-.6h18.29c6.1,0,12.2,0,18.3,0,.55,0,.56,0,.56.55v14.39c0,.58-.03.6-.62.6h-36.16c-.13,0-.26,0-.39,0-.55,0-.6-.05-.6-.59,0-4.78,0-9.57,0-14.35Zm-42.17.01c0-.61,0-.61.63-.61h36.46q.67,0,.67.66c0,4.74,0,9.48,0,14.22,0,.63-.03.66-.66.66-12.15,0-24.31,0-36.46,0-.62,0-.64-.02-.64-.62v-14.31Zm79.4,39.34c-20.68,0-41.36,0-62.05,0H12.75c-.62,0-.62,0-.62-.62,0-6.23,0-12.46,0-18.69,0-.67,0-.67.66-.67h78.61c.66,0,.66,0,.66.66,0,6.26,0,12.52,0,18.77,0,.42-.12.55-.54.55Z"/>
        <path class="cls-1" d="m103.19,71.73c0-6.21.01-12.43.01-18.64s0-12.69-.01-19.03c0-4.64,0-9.28,0-13.92,0-2.18-.61-4.16-2.01-5.85-1.87-2.26-4.3-3.3-7.22-3.3-27.34,0-54.67,0-82,.01-1.28,0-2.58.01-3.84.22-2.17.35-3.9,1.53-5.25,3.25-1.35,1.72-1.88,3.7-1.87,5.86,0,10.84,0,21.68,0,32.52v42.28c0,2.31.68,4.38,2.23,6.12,1.87,2.09,4.23,3.05,7.03,3.05,13.95-.02,27.9,0,41.85,0s27.84,0,41.76,0c2.09,0,4-.49,5.68-1.75,2.01-1.51,3.29-3.5,3.52-6.01.17-1.89.12-3.81.13-5.72,0-6.36,0-12.72,0-19.08ZM5.46,31.61c0-.64,0-.64.64-.64h45.97c15.35,0,30.7,0,46.06,0,.61,0,.62,0,.62.62,0,17.35,0,34.69,0,52.04,0,.66,0,.67-.66.67h-63.84c-9.37,0-18.73,0-28.1,0-.68,0-.68,0-.68-.69V31.61Zm93.28,63.71c0,2.59-1.88,4.49-4.48,4.5-5.87.02-11.74,0-17.6,0H31.64c-7.17,0-14.34,0-21.51,0-2.03,0-3.53-.86-4.35-2.75-.19-.44-.31-.95-.31-1.42-.03-2.15,0-4.31-.03-6.46,0-.43.2-.49.56-.49,10,0,20.01,0,30.01,0h62.05c.67,0,.67,0,.67.67,0,1.98,0,3.96,0,5.94Z"/>
        <path class="cls-1" d="m98.73,95.32c0,2.59-1.88,4.49-4.48,4.5-5.87.02-11.74,0-17.6,0H31.64c-7.17,0-14.34,0-21.51,0-2.03,0-3.53-.86-4.35-2.75-.19-.44-.31-.95-.31-1.42-.03-2.15,0-4.31-.03-6.46,0-.43.2-.49.56-.49,10,0,20.01,0,30.01,0h62.05c.67,0,.67,0,.67.67,0,1.98,0,3.96,0,5.94Z"/>
        <path class="cls-1" d="m49.9,38.33c0,4.74,0,9.48,0,14.22,0,.63-.03.66-.66.66-12.15,0-24.31,0-36.46,0-.62,0-.64-.02-.64-.62v-14.31c0-.61,0-.61.63-.61h36.46q.67,0,.67.66Z"/>
        <path class="cls-1" d="m92.07,77.07c0,.42-.12.55-.54.55-20.68,0-41.36,0-62.05,0H12.75c-.62,0-.62,0-.62-.62,0-6.23,0-12.46,0-18.69,0-.67,0-.67.66-.67h78.61c.66,0,.66,0,.66.66,0,6.26,0,12.52,0,18.77Z"/>
        <path class="cls-1" d="m92.06,38.21v14.39c0,.58-.03.6-.62.6h-36.16c-.13,0-.26,0-.39,0-.55,0-.6-.05-.6-.59,0-4.78,0-9.57,0-14.35,0-.6,0-.6.61-.6h18.29c6.1,0,12.2,0,18.3,0,.55,0,.56,0,.56.55Z"/>
        <rect class="cls-1" x="5.45" y="16.36" width="93.29" height="10.21"/>
      </g>
      <g>
        <path class="cls-2" d="m111.5,20.99c-15.35,0-30.7,0-46.06,0H19.48c-.64,0-.64,0-.64.64v51.99c0,.69,0,.69.68.69,9.37,0,18.73,0,28.1,0h63.84c.66,0,.66,0,.66-.67,0-17.35,0-34.69,0-52.04,0-.62,0-.62-.62-.62Zm-43.82,7.29c0-.6,0-.6.61-.6h18.29c6.1,0,12.2,0,18.3,0,.55,0,.56,0,.56.55v14.39c0,.58-.03.6-.62.6h-36.16c-.13,0-.26,0-.39,0-.55,0-.6-.05-.6-.59,0-4.78,0-9.57,0-14.35Zm-42.17.01c0-.61,0-.61.63-.61h36.46q.67,0,.67.66c0,4.74,0,9.48,0,14.22,0,.63-.03.66-.66.66-12.15,0-24.31,0-36.46,0-.62,0-.64-.02-.64-.62v-14.31Zm79.4,39.34c-20.68,0-41.36,0-62.05,0h-16.74c-.62,0-.62,0-.62-.62,0-6.23,0-12.46,0-18.69,0-.67,0-.67.66-.67h78.61c.66,0,.66,0,.66.66,0,6.26,0,12.52,0,18.77,0,.42-.12.55-.54.55Z"/>
        <path class="cls-2" d="m116.57,61.74c0-6.21.01-12.43.01-18.64s0-12.69-.01-19.03c0-4.64,0-9.28,0-13.92,0-2.18-.61-4.16-2.01-5.85-1.87-2.26-4.3-3.3-7.22-3.3-27.34,0-54.67,0-82,.01-1.28,0-2.58.01-3.84.22-2.17.35-3.9,1.53-5.25,3.25-1.35,1.72-1.88,3.7-1.87,5.86,0,10.84,0,21.68,0,32.52v42.28c0,2.31.68,4.38,2.23,6.12,1.87,2.09,4.23,3.05,7.03,3.05,13.95-.02,27.9,0,41.85,0s27.84,0,41.76,0c2.09,0,4-.49,5.68-1.75,2.01-1.51,3.29-3.5,3.52-6.01.17-1.89.12-3.81.13-5.72,0-6.36,0-12.72,0-19.08ZM18.84,21.62c0-.64,0-.64.64-.64h45.97c15.35,0,30.7,0,46.06,0,.61,0,.62,0,.62.62,0,17.35,0,34.69,0,52.04,0,.66,0,.67-.66.67h-63.84c-9.37,0-18.73,0-28.1,0-.68,0-.68,0-.68-.69V21.62Zm93.28,63.71c0,2.59-1.88,4.49-4.48,4.5-5.87.02-11.74,0-17.6,0h-45.01c-7.17,0-14.34,0-21.51,0-2.03,0-3.53-.86-4.35-2.75-.19-.44-.31-.95-.31-1.42-.03-2.15,0-4.31-.03-6.46,0-.43.2-.49.56-.49,10,0,20.01,0,30.01,0h62.05c.67,0,.67,0,.67.67,0,1.98,0,3.96,0,5.94Z"/>
        <path class="cls-2" d="m112.11,85.33c0,2.59-1.88,4.49-4.48,4.5-5.87.02-11.74,0-17.6,0h-45.01c-7.17,0-14.34,0-21.51,0-2.03,0-3.53-.86-4.35-2.75-.19-.44-.31-.95-.31-1.42-.03-2.15,0-4.31-.03-6.46,0-.43.2-.49.56-.49,10,0,20.01,0,30.01,0h62.05c.67,0,.67,0,.67.67,0,1.98,0,3.96,0,5.94Z"/>
        <path class="cls-2" d="m63.28,28.34c0,4.74,0,9.48,0,14.22,0,.63-.03.66-.66.66-12.15,0-24.31,0-36.46,0-.62,0-.64-.02-.64-.62v-14.31c0-.61,0-.61.63-.61h36.46q.67,0,.67.66Z"/>
        <path class="cls-2" d="m105.45,67.09c0,.42-.12.55-.54.55-20.68,0-41.36,0-62.05,0h-16.74c-.62,0-.62,0-.62-.62,0-6.23,0-12.46,0-18.69,0-.67,0-.67.66-.67h78.61c.66,0,.66,0,.66.66,0,6.26,0,12.52,0,18.77Z"/>
        <path class="cls-2" d="m105.44,28.23v14.39c0,.58-.03.6-.62.6h-36.16c-.13,0-.26,0-.39,0-.55,0-.6-.05-.6-.59,0-4.78,0-9.57,0-14.35,0-.6,0-.6.61-.6h18.29c6.1,0,12.2,0,18.3,0,.55,0,.56,0,.56.55Z"/>
        <rect class="cls-2" x="18.83" y="6.37" width="93.29" height="10.21"/>
      </g>
    </g>
  </g>
</svg>