<svg xmlns="http://www.w3.org/2000/svg" width="51.313" height="36.08" viewBox="0 0 51.313 36.08">
  <path id="Icon_awesome-youtube" data-name="Icon awesome-youtube" d="M51.291,10.145a6.448,6.448,0,0,0-4.537-4.566C42.752,4.5,26.706,4.5,26.706,4.5S10.661,4.5,6.659,5.579a6.448,6.448,0,0,0-4.537,4.566C1.05,14.173,1.05,22.576,1.05,22.576s0,8.4,1.072,12.431A6.352,6.352,0,0,0,6.659,39.5c4,1.079,20.048,1.079,20.048,1.079s16.046,0,20.048-1.079a6.352,6.352,0,0,0,4.537-4.493c1.072-4.028,1.072-12.431,1.072-12.431s0-8.4-1.072-12.431ZM21.459,30.206V14.947l13.411,7.63L21.459,30.206Z" transform="translate(-1.05 -4.5)" fill="#ff974e"/>
</svg>
