<svg xmlns="http://www.w3.org/2000/svg" xmlns:xlink="http://www.w3.org/1999/xlink" width="154" height="45.277" viewBox="0 0 154 45.277">
  <defs>
    <clipPath id="clip-path">
      <rect id="Rectangle_51" data-name="Rectangle 51" width="154" height="45.277" fill="#2d40a2"/>
    </clipPath>
  </defs>
  <g id="Groupe_22" data-name="Groupe 22" transform="translate(10.99 -6)">
    <g id="Groupe_21" data-name="Groupe 21" transform="translate(-10.99 6)" clip-path="url(#clip-path)">
      <path id="Tracé_50" data-name="Tracé 50" d="M696.074.1a1.009,1.009,0,0,0-1.318.408c-.336.7-.719,1.414-1.151,2.181-3.308,6.28-8.318,15.725-10.451,23.8a.948.948,0,0,0,.7,1.175.854.854,0,0,0,.24.048.971.971,0,0,0,.935-.719c2.085-7.862,7.023-17.211,10.307-23.394l1.15-2.181a.966.966,0,0,0-.407-1.318ZM685.1,31a.976.976,0,0,0-1.318.36,14.292,14.292,0,0,0-1.246,2.9.942.942,0,0,0,.767,1.127.466.466,0,0,0,.192.024.947.947,0,0,0,.935-.791,15.354,15.354,0,0,1,1.055-2.3A.957.957,0,0,0,685.1,31" transform="translate(-581.161 0)" fill="#2d40a2"/>
      <path id="Tracé_51" data-name="Tracé 51" d="M766.066,142.262h0a.968.968,0,0,0-1.342-.288c-.072.072-8.078,5.321-16.611,5.321a3.383,3.383,0,0,1-2.3-.647,1.953,1.953,0,0,1-.552-1.486v-.288l.1.024a5.242,5.242,0,0,0,5.465-1.7,3.429,3.429,0,0,0,.767-3.548,2.429,2.429,0,0,0-2.349-1.319c-2.041,0-3.929,1.611-5,3.567a.959.959,0,0,0-.958.125c-3.116,2.325-8.773,5.992-10.691,5.992-.359,0-.527-.192-.6-2.061-.072-1.534-.168-4.123-2.78-4.123-2.661,0-5.753,2.517-7.6,4.027-.216.192-.455.383-.671.551a13.317,13.317,0,0,1,2.517-4.722.975.975,0,0,0-1.414-1.343c-.7.743-3.763,5.106-2.876,7.167a1.766,1.766,0,0,0,1.726,1.055c.5,0,.863-.312,1.966-1.2,1.534-1.27,4.386-3.6,6.352-3.6.527,0,.743.192.839,2.277.048,1.462.144,3.907,2.541,3.907.527,0,2.133,0,7.263-3.236,1.4-.895,2.681-1.781,3.533-2.383a5.462,5.462,0,0,0-.066.825,3.79,3.79,0,0,0,1.175,2.9,5.1,5.1,0,0,0,3.619,1.175c9.133,0,17.355-5.417,17.69-5.633a.949.949,0,0,0,.263-1.342m-16.827-1.989h0c.144,0,.5.024.6.192a1.711,1.711,0,0,1-.5,1.51,3.4,3.4,0,0,1-3.5,1.055h-.024c.767-1.51,2.181-2.757,3.428-2.757" transform="translate(-612.24 -117.79)" fill="#2d40a2"/>
      <path id="Tracé_52" data-name="Tracé 52" d="M34.387,91.4h0a.984.984,0,0,0,1.342-.312,13.483,13.483,0,0,1,3.116-2.948l.264-.192a.973.973,0,0,0-1.2-1.534l-.24.168a16.024,16.024,0,0,0-3.62,3.5.968.968,0,0,0,.336,1.318" transform="translate(-28.883 -73.405)" fill="#2d40a2"/>
      <path id="Tracé_53" data-name="Tracé 53" d="M100.111,146.96h0a.951.951,0,0,0-1.073-.877l-.085.012v0a40.03,40.03,0,0,0-4.426.677l-.151.028a31.045,31.045,0,0,0-3.207.834l-.172.051h.008a32.1,32.1,0,0,0-3.567,1.39,6.133,6.133,0,0,0-.527-3.787,1,1,0,0,0-1.558-.024,8.935,8.935,0,0,1-1.031,1.127,3.384,3.384,0,0,0-.767-1.247,6.637,6.637,0,0,0-4.818-1.534,9.891,9.891,0,0,0-4.746,1.478.956.956,0,0,0-1.229.055c-1.51,1.342-6.112,4.842-9.324,4.842a2.593,2.593,0,0,1-2.037-.743,4.073,4.073,0,0,1-.7-2.757,1.021,1.021,0,0,0-.575-1.007,1,1,0,0,0-.383-.072.951.951,0,0,0-.168-1.055,4.945,4.945,0,0,0-4.866-1.151,11.442,11.442,0,0,0-3.707,1.74.94.94,0,0,0-.873.154c-2.541,1.894-7.287,4.89-9.276,4.89a1.173,1.173,0,0,1-.791-.192c-.288-.384-.024-1.678.144-2.517.288-1.414.551-2.757-.216-3.667a2.073,2.073,0,0,0-1.75-.743c-3.092,0-6.017,3.835-7.6,5.9l-.144.168c0-.312,0-.7.024-.959.048-1.294.12-2.757-.767-3.691a2.639,2.639,0,0,0-1.942-.743c-1.774,0-3.212,1.726-4.482,3.236-.36.432-.863,1.031-1.295,1.462a21.665,21.665,0,0,1,2.637-5.082,1.007,1.007,0,0,0,.048-1.39.955.955,0,0,0-1.366-.024,14.733,14.733,0,0,0-2.021,3.249.967.967,0,0,0-.9.035c-5.92,3.452-15.173,6.352-17.834,6.352-.407,0-.479-.168-.527-.264-.455-.911.383-3.5,1.295-4.65a.937.937,0,0,0-.168-1.342.961.961,0,0,0-1.366.144C.805,146.555-.633,149.983.3,151.949a2.41,2.41,0,0,0,2.3,1.366c3.042,0,11.8-2.838,17.721-6.006-.64,1.773-.429,2.32-.318,2.579a1.268,1.268,0,0,0,1.222.839c1.342,0,2.445-1.318,3.62-2.709.935-1.127,2.109-2.541,2.972-2.541a.731.731,0,0,1,.527.144c.312.335.264,1.438.24,2.253-.048,1.174-.1,2.3.575,3a1.721,1.721,0,0,0,1.295.527c.6,0,.863-.336,1.726-1.462,1.175-1.534,3.931-5.13,6.065-5.13a1.509,1.509,0,0,1,.264.024,5.652,5.652,0,0,1-.216,2.062c-.288,1.414-.6,3.044.288,4.123a2.758,2.758,0,0,0,2.277.911c1.814,0,4.584-1.447,6.823-2.833a2.438,2.438,0,0,0,.417,2.113,3.151,3.151,0,0,0,2.565,1.127.145.145,0,0,0,.1.024c2.349,0,5.681-1.606,8.2-3.811a4.612,4.612,0,0,0,.983,1.966,4.479,4.479,0,0,0,3.5,1.414c2.175,0,4.612-1.146,6.6-2.377a3.4,3.4,0,0,0-.1.772,2.647,2.647,0,0,0,.743,2.013,3.74,3.74,0,0,0,2.9,1.1c2.013,0,8.389-2.325,11.985-5.585a14.648,14.648,0,0,1-.216,2.277c-8.054,4.435-11.314,10.283-11.146,13.16a2.38,2.38,0,0,0,2.445,2.445c1.965,0,4.938-1.2,7.79-6.856a30.808,30.808,0,0,0,2.613-7.431,34.731,34.731,0,0,1,3.464-1.578c.318-.117,1.079-.371,1.217-.417l.283-.088c.056-.018.109-.035.184-.057,0,0,.081-.024.165-.046a65.079,65.079,0,0,1,6.888-1.227.949.949,0,0,0,.853-1.073m-49.35,3.454h0a.088.088,0,0,1-.072-.024,1.232,1.232,0,0,1-1.055-.384c-.312-.407.264-1.63,1.726-2.876A8.48,8.48,0,0,1,56.3,144.95a2.548,2.548,0,0,1,1.87.719.922.922,0,0,0,.623.312c-2.134,2.373-5.849,4.434-8.03,4.434m22.824,1.078h0a2.011,2.011,0,0,1-1.486-.479.809.809,0,0,1-.215-.6v-.072c0-1.966,4.027-4.794,6.856-4.794,2.181,0,3.068.6,3.428.935a1.084,1.084,0,0,1,.336.839,1.119,1.119,0,0,0,.072.407c-3.26,2.205-7.718,3.763-8.989,3.763m9.132,6.52h0c-1.846,3.667-4.075,5.777-6.065,5.777-.216,0-.455,0-.5-.623-.072-1.462,1.414-4.962,5.921-8.533a31.976,31.976,0,0,1,2.685-1.87,29.478,29.478,0,0,1-2.037,5.25" transform="translate(0 -120.456)" fill="#2d40a2"/>
      <path id="Tracé_54" data-name="Tracé 54" d="M15.856,265.438a2.79,2.79,0,0,1-.915-.154,2.2,2.2,0,0,1-.769-.446l.238-.354a2.618,2.618,0,0,0,.689.415,2.023,2.023,0,0,0,.75.138,1.355,1.355,0,0,0,.773-.2.636.636,0,0,0,.288-.558.484.484,0,0,0-.077-.281.672.672,0,0,0-.227-.2,1.8,1.8,0,0,0-.377-.15q-.227-.065-.527-.135-.346-.084-.6-.169a1.811,1.811,0,0,1-.419-.192.694.694,0,0,1-.246-.265.863.863,0,0,1-.081-.4,1.14,1.14,0,0,1,.119-.531,1.086,1.086,0,0,1,.323-.381,1.468,1.468,0,0,1,.477-.227,2.14,2.14,0,0,1,.581-.077,2.251,2.251,0,0,1,.838.15,1.658,1.658,0,0,1,.608.4l-.254.307a1.408,1.408,0,0,0-.542-.346,1.94,1.94,0,0,0-.665-.115,1.659,1.659,0,0,0-.385.042.926.926,0,0,0-.311.134.664.664,0,0,0-.212.235.7.7,0,0,0-.077.335.55.55,0,0,0,.054.261.458.458,0,0,0,.177.173,1.415,1.415,0,0,0,.312.131q.188.058.458.119.385.092.677.185a2.126,2.126,0,0,1,.489.215.851.851,0,0,1,.3.3.866.866,0,0,1,.1.431,1.045,1.045,0,0,1-.423.877,1.832,1.832,0,0,1-1.138.323" transform="translate(-12.068 -222.486)" fill="#2d40a2"/>
      <path id="Tracé_55" data-name="Tracé 55" d="M50.823,257.8c-.031.015-.076.036-.135.061s-.127.051-.2.077a2.35,2.35,0,0,1-.261.069,1.48,1.48,0,0,1-.308.031,1.115,1.115,0,0,1-.323-.046.749.749,0,0,1-.269-.142.7.7,0,0,1-.185-.242.781.781,0,0,1-.069-.339V254.4h-.554v-.415h.554v-1.354h.523v1.354h.923v.415h-.923v2.723a.416.416,0,0,0,.158.327.54.54,0,0,0,.327.1.977.977,0,0,0,.392-.073,1.69,1.69,0,0,0,.215-.1Z" transform="translate(-41.312 -215.118)" fill="#2d40a2"/>
      <path id="Tracé_56" data-name="Tracé 56" d="M76.935,265.438a1.418,1.418,0,0,1-.527-.1,1.32,1.32,0,0,1-.423-.266,1.2,1.2,0,0,1-.381-.884.988.988,0,0,1,.123-.485,1.173,1.173,0,0,1,.346-.385,1.7,1.7,0,0,1,.531-.25,2.453,2.453,0,0,1,.677-.088,3.681,3.681,0,0,1,.623.054,2.669,2.669,0,0,1,.561.154v-.362a1.162,1.162,0,0,0-.3-.842,1.1,1.1,0,0,0-.831-.312,1.772,1.772,0,0,0-.631.123,3.043,3.043,0,0,0-.654.354l-.185-.346a2.705,2.705,0,0,1,1.508-.523,1.617,1.617,0,0,1,1.185.423,1.564,1.564,0,0,1,.431,1.169v1.808q0,.215.192.215v.462a1.259,1.259,0,0,1-.2.023.451.451,0,0,1-.312-.1.375.375,0,0,1-.119-.277l-.015-.315a1.817,1.817,0,0,1-.7.553,2.142,2.142,0,0,1-.9.193m.123-.4a1.805,1.805,0,0,0,.75-.154,1.224,1.224,0,0,0,.519-.407.476.476,0,0,0,.1-.15.384.384,0,0,0,.035-.15v-.654a3.227,3.227,0,0,0-.542-.154,3.054,3.054,0,0,0-.573-.054,1.594,1.594,0,0,0-.9.231.7.7,0,0,0-.346.608.827.827,0,0,0,.073.346.877.877,0,0,0,.2.281.932.932,0,0,0,.3.188,1.022,1.022,0,0,0,.377.069" transform="translate(-64.378 -222.486)" fill="#2d40a2"/>
      <path id="Tracé_57" data-name="Tracé 57" d="M117.335,262.077a1.646,1.646,0,0,0-.923.292,1.471,1.471,0,0,0-.554.762v2.492h-.523v-4.007h.492v.961a1.821,1.821,0,0,1,.6-.723,1.39,1.39,0,0,1,.808-.262.5.5,0,0,1,.1.008Z" transform="translate(-98.209 -222.748)" fill="#2d40a2"/>
      <path id="Tracé_58" data-name="Tracé 58" d="M142.558,257.8c-.031.015-.076.036-.135.061s-.127.051-.2.077a2.366,2.366,0,0,1-.261.069,1.481,1.481,0,0,1-.308.031,1.113,1.113,0,0,1-.323-.046.748.748,0,0,1-.269-.142.693.693,0,0,1-.185-.242.779.779,0,0,1-.069-.339V254.4h-.554v-.415h.554v-1.354h.523v1.354h.923v.415h-.923v2.723a.414.414,0,0,0,.158.327.541.541,0,0,0,.327.1.978.978,0,0,0,.392-.073,1.676,1.676,0,0,0,.215-.1Z" transform="translate(-119.424 -215.118)" fill="#2d40a2"/>
      <rect id="Rectangle_49" data-name="Rectangle 49" width="2.246" height="0.484" transform="translate(25.026 40.537)" fill="#2d40a2"/>
      <path id="Tracé_59" data-name="Tracé 59" d="M201.267,265.835a1.129,1.129,0,0,1-.973-.434,2.183,2.183,0,0,1-.319-1.3v-2.353h.523v2.261q0,1.362.931,1.361a1.381,1.381,0,0,0,.454-.077,1.43,1.43,0,0,0,.411-.223,1.8,1.8,0,0,0,.338-.346,1.736,1.736,0,0,0,.242-.454v-2.523h.523v3.33q0,.215.185.216v.461a.948.948,0,0,1-.15.015h-.081a.417.417,0,0,1-.3-.131.465.465,0,0,1-.115-.331v-.462a1.861,1.861,0,0,1-.711.727,1.9,1.9,0,0,1-.958.258" transform="translate(-170.281 -222.883)" fill="#2d40a2"/>
      <path id="Tracé_60" data-name="Tracé 60" d="M242.372,265.438a1.583,1.583,0,0,1-.9-.258,2.044,2.044,0,0,1-.627-.65V267h-.523v-5.645h.469v.777a1.939,1.939,0,0,1,.638-.611,1.63,1.63,0,0,1,.854-.234,1.677,1.677,0,0,1,.761.173,1.96,1.96,0,0,1,.6.462,2.14,2.14,0,0,1,.4.665,2.18,2.18,0,0,1,.142.777,2.42,2.42,0,0,1-.131.8,2.033,2.033,0,0,1-.373.661,1.8,1.8,0,0,1-.577.45,1.64,1.64,0,0,1-.734.165m-.146-.462a1.251,1.251,0,0,0,.589-.138,1.463,1.463,0,0,0,.454-.365,1.635,1.635,0,0,0,.288-.515,1.808,1.808,0,0,0,.1-.6,1.662,1.662,0,0,0-.115-.616,1.7,1.7,0,0,0-.315-.515,1.5,1.5,0,0,0-.473-.354,1.346,1.346,0,0,0-.589-.131,1.217,1.217,0,0,0-.419.081,1.723,1.723,0,0,0-.408.216,1.444,1.444,0,0,0-.323.315.851.851,0,0,0-.166.381v1.231a1.841,1.841,0,0,0,.235.4,1.647,1.647,0,0,0,.323.319,1.552,1.552,0,0,0,.388.211,1.226,1.226,0,0,0,.431.077" transform="translate(-204.64 -222.487)" fill="#2d40a2"/>
      <path id="Tracé_61" data-name="Tracé 61" d="M288.94,265.438a2.789,2.789,0,0,1-.915-.154,2.2,2.2,0,0,1-.769-.446l.238-.354a2.61,2.61,0,0,0,.689.415,2.023,2.023,0,0,0,.75.138,1.355,1.355,0,0,0,.773-.2.636.636,0,0,0,.288-.558.485.485,0,0,0-.077-.281.669.669,0,0,0-.227-.2,1.8,1.8,0,0,0-.377-.15q-.227-.065-.527-.135-.346-.084-.6-.169a1.82,1.82,0,0,1-.419-.192.7.7,0,0,1-.246-.265.867.867,0,0,1-.081-.4,1.138,1.138,0,0,1,.119-.531,1.088,1.088,0,0,1,.323-.381,1.466,1.466,0,0,1,.477-.227,2.137,2.137,0,0,1,.581-.077,2.251,2.251,0,0,1,.839.15,1.658,1.658,0,0,1,.608.4l-.254.307a1.408,1.408,0,0,0-.542-.346,1.938,1.938,0,0,0-.665-.115,1.66,1.66,0,0,0-.385.042.931.931,0,0,0-.311.134.666.666,0,0,0-.212.235.7.7,0,0,0-.077.335.55.55,0,0,0,.054.261.458.458,0,0,0,.177.173,1.418,1.418,0,0,0,.311.131q.188.058.458.119.385.092.677.185a2.132,2.132,0,0,1,.488.215.853.853,0,0,1,.3.3.864.864,0,0,1,.1.431,1.044,1.044,0,0,1-.423.877,1.831,1.831,0,0,1-1.138.323" transform="translate(-244.601 -222.486)" fill="#2d40a2"/>
      <path id="Tracé_62" data-name="Tracé 62" d="M323.906,257.8c-.031.015-.076.036-.135.061s-.127.051-.2.077a2.358,2.358,0,0,1-.261.069,1.481,1.481,0,0,1-.308.031,1.113,1.113,0,0,1-.323-.046.748.748,0,0,1-.269-.142.694.694,0,0,1-.185-.242.779.779,0,0,1-.069-.339V254.4H321.6v-.415h.554v-1.354h.523v1.354h.923v.415h-.923v2.723a.414.414,0,0,0,.158.327.541.541,0,0,0,.327.1.978.978,0,0,0,.393-.073,1.668,1.668,0,0,0,.215-.1Z" transform="translate(-273.844 -215.118)" fill="#2d40a2"/>
      <path id="Tracé_63" data-name="Tracé 63" d="M351.9,265.835a1.13,1.13,0,0,1-.973-.434,2.185,2.185,0,0,1-.319-1.3v-2.353h.523v2.261q0,1.362.931,1.361a1.381,1.381,0,0,0,.454-.077,1.432,1.432,0,0,0,.411-.223,1.8,1.8,0,0,0,.338-.346,1.735,1.735,0,0,0,.242-.454v-2.523h.523v3.33q0,.215.185.216v.461a.954.954,0,0,1-.15.015h-.081a.417.417,0,0,1-.3-.131.464.464,0,0,1-.115-.331v-.462a1.861,1.861,0,0,1-.712.727,1.9,1.9,0,0,1-.957.258" transform="translate(-298.544 -222.883)" fill="#2d40a2"/>
      <path id="Tracé_64" data-name="Tracé 64" d="M391.059,256.614a1.727,1.727,0,0,1-.769-.173,1.959,1.959,0,0,1-.608-.458,2.1,2.1,0,0,1-.4-.657,2.165,2.165,0,0,1-.142-.781,2.336,2.336,0,0,1,.138-.8,2.151,2.151,0,0,1,.381-.665,1.79,1.79,0,0,1,.577-.45,1.632,1.632,0,0,1,.735-.165,1.565,1.565,0,0,1,.9.265,2.006,2.006,0,0,1,.615.642v-2.446h.523v4.938c0,.143.062.215.185.215v.461a.977.977,0,0,1-.185.023.482.482,0,0,1-.323-.119.368.368,0,0,1-.138-.289v-.392a1.752,1.752,0,0,1-.646.623,1.7,1.7,0,0,1-.846.231m.115-.462a1.238,1.238,0,0,0,.411-.077,1.687,1.687,0,0,0,.412-.211,1.425,1.425,0,0,0,.327-.315.854.854,0,0,0,.165-.388v-1.239a1.377,1.377,0,0,0-.223-.388,1.8,1.8,0,0,0-.335-.319,1.584,1.584,0,0,0-.4-.215,1.26,1.26,0,0,0-.423-.077,1.233,1.233,0,0,0-.584.138,1.482,1.482,0,0,0-.45.365,1.636,1.636,0,0,0-.289.52,1.845,1.845,0,0,0-.1.6,1.676,1.676,0,0,0,.431,1.127,1.524,1.524,0,0,0,.473.35,1.345,1.345,0,0,0,.588.131" transform="translate(-331.36 -213.662)" fill="#2d40a2"/>
      <path id="Tracé_65" data-name="Tracé 65" d="M432.5,250.923h.523v.769H432.5Zm0,1.608h.523v4.007H432.5Z" transform="translate(-368.277 -213.663)" fill="#2d40a2"/>
      <path id="Tracé_66" data-name="Tracé 66" d="M453.235,265.438a1.905,1.905,0,0,1-.8-.165,1.97,1.97,0,0,1-.627-.45,2.038,2.038,0,0,1-.411-.662,2.166,2.166,0,0,1-.146-.792,2.143,2.143,0,0,1,.15-.8,2.093,2.093,0,0,1,.415-.661,2.014,2.014,0,0,1,.627-.454,1.839,1.839,0,0,1,.792-.169,1.866,1.866,0,0,1,.8.169,2.006,2.006,0,0,1,.631.454,2.1,2.1,0,0,1,.416.661,2.146,2.146,0,0,1,.15.8,2.177,2.177,0,0,1-.146.792,2.041,2.041,0,0,1-.411.662,1.959,1.959,0,0,1-.631.45,1.931,1.931,0,0,1-.8.165m-1.454-2.061a1.67,1.67,0,0,0,.115.627,1.7,1.7,0,0,0,.311.508,1.406,1.406,0,0,0,.462.342,1.323,1.323,0,0,0,.565.123,1.293,1.293,0,0,0,.565-.127,1.5,1.5,0,0,0,.465-.346,1.647,1.647,0,0,0,.315-.511,1.774,1.774,0,0,0,0-1.258,1.643,1.643,0,0,0-.315-.516,1.506,1.506,0,0,0-.465-.346,1.293,1.293,0,0,0-.565-.127,1.267,1.267,0,0,0-.561.127,1.484,1.484,0,0,0-.462.35,1.692,1.692,0,0,0-.316.519,1.736,1.736,0,0,0-.115.635" transform="translate(-384.244 -222.487)" fill="#2d40a2"/>
      <path id="Tracé_67" data-name="Tracé 67" d="M765.8,79.357a1.574,1.574,0,0,1-.827-.226,1.666,1.666,0,0,1-.587-.583v.736h-.444v-5.32h.5v2.317a2.166,2.166,0,0,1,.612-.623,1.468,1.468,0,0,1,.831-.237,1.511,1.511,0,0,1,.718.168,1.689,1.689,0,0,1,.539.448,2.1,2.1,0,0,1,.343.634,2.232,2.232,0,0,1,.12.725,2.083,2.083,0,0,1-.138.758,1.991,1.991,0,0,1-.379.623,1.8,1.8,0,0,1-.572.423,1.646,1.646,0,0,1-.711.157m-.117-.437a1.275,1.275,0,0,0,.572-.128,1.4,1.4,0,0,0,.445-.342,1.652,1.652,0,0,0,.291-.488,1.553,1.553,0,0,0,.106-.565,1.707,1.707,0,0,0-.1-.576,1.6,1.6,0,0,0-.277-.492,1.343,1.343,0,0,0-.43-.343,1.2,1.2,0,0,0-.55-.128,1.155,1.155,0,0,0-.423.077,1.422,1.422,0,0,0-.364.208,1.682,1.682,0,0,0-.3.3,1.917,1.917,0,0,0-.219.361v1.181a.806.806,0,0,0,.157.368,1.3,1.3,0,0,0,.306.3,1.6,1.6,0,0,0,.386.2,1.2,1.2,0,0,0,.4.073" transform="translate(-650.504 -62.982)" fill="#2d40a2"/>
      <path id="Tracé_68" data-name="Tracé 68" d="M793.5,89.182l.113.011q.054,0,.106,0a.494.494,0,0,0,.208-.036.39.39,0,0,0,.149-.16,2.664,2.664,0,0,0,.164-.357q.091-.234.259-.627l-1.654-3.8h.51l1.406,3.338,1.3-3.338h.474l-1.968,4.9a.894.894,0,0,1-.266.368.762.762,0,0,1-.507.157c-.049,0-.095,0-.138,0s-.1-.008-.16-.018Z" transform="translate(-675.115 -71.714)" fill="#2d40a2"/>
      <path id="Tracé_69" data-name="Tracé 69" d="M995.029,73.964a2.516,2.516,0,0,0-.7.1,1.517,1.517,0,0,0-.56.276,1.238,1.238,0,0,0-.367.457,1.373,1.373,0,0,0-.131.622,1.1,1.1,0,0,0,.1.5.936.936,0,0,0,.283.353,1.715,1.715,0,0,0,.477.249,4.986,4.986,0,0,0,.656.193q.332.083.6.166a2.308,2.308,0,0,1,.449.18.783.783,0,0,1,.27.249.679.679,0,0,1-.194.906,1.517,1.517,0,0,1-.816.187,2.307,2.307,0,0,1-.546-.055,3.3,3.3,0,0,1-.484-.152,2,2,0,0,1-.4-.215,1.262,1.262,0,0,1-.283-.235l-.3.525a2.937,2.937,0,0,0,.92.519,3.274,3.274,0,0,0,1.078.173,2.916,2.916,0,0,0,.705-.076,1.714,1.714,0,0,0,.559-.249,1.267,1.267,0,0,0,.381-.429,1.327,1.327,0,0,0,.138-.616,1.238,1.238,0,0,0-.117-.56,1.109,1.109,0,0,0-.332-.387,1.969,1.969,0,0,0-.525-.263,7.04,7.04,0,0,0-.685-.193c-.221-.048-.415-.1-.574-.145a1.622,1.622,0,0,1-.408-.159.581.581,0,0,1-.236-.228.594.594,0,0,1-.076-.332.707.707,0,0,1,.263-.587,1.371,1.371,0,0,1,.844-.215,2.152,2.152,0,0,1,.422.049,2.032,2.032,0,0,1,.38.117c.11.049.214.1.311.159a1.245,1.245,0,0,1,.221.187l.29-.5a2.756,2.756,0,0,0-.712-.408,2.628,2.628,0,0,0-.9-.152" transform="translate(-845.617 -62.981)" fill="#2d40a2"/>
      <path id="Tracé_70" data-name="Tracé 70" d="M830.433,74.2v4.909h.623v-3.8l1.1,1.963.331-.567-1.4-2.509Z" transform="translate(-707.121 -63.18)" fill="#2d40a2"/>
      <path id="Tracé_71" data-name="Tracé 71" d="M846.749,74.2l-1.784,3.187-.324.567.152.27h.353l1.632-2.911v3.8h.622V74.2Z" transform="translate(-719.219 -63.18)" fill="#2d40a2"/>
      <path id="Tracé_72" data-name="Tracé 72" d="M871.087,74.2v1.521h.623V74.75h2.648V74.2Z" transform="translate(-741.738 -63.18)" fill="#2d40a2"/>
      <path id="Tracé_73" data-name="Tracé 73" d="M899.283,74.2v.373l.622.788,3,3.748h.525V74.2h-.622v3.817L899.768,74.2Z" transform="translate(-765.748 -63.18)" fill="#2d40a2"/>
      <path id="Tracé_74" data-name="Tracé 74" d="M933.637,74.2l-2.012,4.909h.636l1.638-4.19.263-.719Z" transform="translate(-793.287 -63.18)" fill="#2d40a2"/>
      <path id="Tracé_75" data-name="Tracé 75" d="M966.67,74.2v1.963h.623V74.751h1.39a.842.842,0,0,1,.338.076,1.051,1.051,0,0,1,.283.214,1.084,1.084,0,0,1,.194.325,1.106,1.106,0,0,1,.076.4,1.233,1.233,0,0,1-.062.394,1.373,1.373,0,0,1-.173.332.833.833,0,0,1-.269.221.733.733,0,0,1-.346.076H966.67v2.316h.623V77.343h1.466a1.352,1.352,0,0,0,1.045-.484,1.724,1.724,0,0,0,.3-.5,1.665,1.665,0,0,0,.1-.587,1.636,1.636,0,0,0-.11-.567,1.82,1.82,0,0,0-.312-.5,1.5,1.5,0,0,0-.47-.36,1.319,1.319,0,0,0-.595-.138Z" transform="translate(-823.128 -63.18)" fill="#2d40a2"/>
      <path id="Tracé_76" data-name="Tracé 76" d="M944.42,78.714l-.27.733.623,1.583h-1.231l-.187.484h1.556l.581,1.438h.664Z" transform="translate(-803.276 -67.026)" fill="#2d40a2"/>
      <path id="Tracé_77" data-name="Tracé 77" d="M899.283,83.231V86.8h.622V84.039Z" transform="translate(-765.748 -70.872)" fill="#2d40a2"/>
      <path id="Tracé_78" data-name="Tracé 78" d="M871.087,88.632v1.59h.623V89.15h2.3v-.518Z" transform="translate(-741.738 -75.471)" fill="#2d40a2"/>
      <rect id="Rectangle_50" data-name="Rectangle 50" width="3.333" height="0.553" transform="translate(129.348 15.374)" fill="#2d40a2"/>
    </g>
  </g>
</svg>
