<?xml version="1.0" encoding="UTF-8"?>
<svg id="Calque_2" data-name="Calque 2" xmlns="http://www.w3.org/2000/svg" viewBox="0 0 1037.1 304.91">
  <defs>
    <style>
      .cls-1 {
        fill: #fff;
        stroke-width: 0px;
      }
    </style>
  </defs>
  <g id="Calque_1-2" data-name="Calque 1">
    <g id="Logo_Blanc" data-name="Logo Blanc">
      <path class="cls-1" d="m773.87.7c-3.23-1.61-7.1-.32-8.88,2.75-2.26,4.68-4.84,9.52-7.75,14.69-22.28,42.29-56.01,105.9-70.38,160.3-.97,3.39,1.13,7.1,4.68,7.91.48.16,1.13.32,1.61.32,2.91,0,5.49-1.94,6.3-4.84,14.04-52.95,47.3-115.9,69.41-157.55l7.75-14.69c1.78-3.23.48-7.1-2.74-8.88h0Zm-73.93,208.08c-3.07-1.78-7.1-.65-8.88,2.42-2.74,5-7.43,14.69-8.39,19.53-.81,3.55,1.61,6.94,5.16,7.59.32.16.81.16,1.29.16,3.07,0,5.65-2.1,6.29-5.33.48-1.94,3.71-9.36,7.1-15.5,1.77-3.23.64-7.1-2.58-8.88Z"/>
      <path class="cls-1" d="m1035.93,164.81h0c-1.94-3.07-5.97-3.87-9.04-1.94-.48.49-54.4,35.84-111.87,35.84-6.94,0-12.43-1.45-15.5-4.36-2.42-2.26-3.71-5.65-3.71-10.01v-1.94l.65.16c16.63,4.36,30.03-3.07,36.8-11.46,6.46-7.75,8.39-17.11,5.17-23.89-2.58-5.65-8.39-8.88-15.82-8.88-13.74,0-26.46,10.85-33.68,24.02-2.07-.85-4.54-.65-6.45.84-20.99,15.66-59.08,40.36-72,40.36-2.42,0-3.55-1.29-4.03-13.88-.48-10.33-1.13-27.77-18.73-27.77s-38.74,16.95-51.17,27.12c-1.45,1.29-3.07,2.58-4.52,3.71,1.13-7.43,10.82-25.34,16.95-31.8,2.42-2.58,2.42-6.78-.32-9.2-2.58-2.58-6.78-2.42-9.2.16-4.68,5-25.34,34.38-19.37,48.27,1.94,4.52,6.13,7.1,11.62,7.1,3.39,0,5.81-2.1,13.24-8.07,10.33-8.56,29.54-24.21,42.78-24.21,3.55,0,5,1.29,5.65,15.34.32,9.85.97,26.31,17.11,26.31,3.55,0,14.37,0,48.91-21.79,9.46-6.03,18.06-12,23.79-16.05-.29,1.88-.44,3.74-.44,5.55,0,8.07,2.74,14.85,7.91,19.53,5.65,5.33,13.88,7.91,24.37,7.91,61.5,0,116.87-36.48,119.13-37.93,3.07-2.1,3.87-6.13,1.77-9.04m-113.32-13.4h0c.97,0,3.39.16,4.04,1.29.81,1.61.16,5.81-3.39,10.17-2.1,2.42-10.01,10.49-23.57,7.1h-.16c5.17-10.17,14.69-18.56,23.08-18.56"/>
      <path class="cls-1" d="m37.07,121.2h0c1.13.65,2.26.97,3.39.97,2.26,0,4.36-1.13,5.65-3.07,4.2-7.1,14.69-15.01,20.98-19.86l1.78-1.29c2.9-2.26,3.39-6.29,1.13-9.2-2.1-2.9-6.3-3.39-9.2-1.13l-1.61,1.13c-6.94,5.49-18.73,14.37-24.38,23.57-1.78,3.07-.81,7.1,2.26,8.88"/>
      <path class="cls-1" d="m674.19,178.49h0c-.33-3.77-3.61-6.4-7.22-5.91-.19.02-.38.06-.57.08,0,0,0,0,0-.01-9.18.88-19.18,2.32-29.81,4.56-.34.07-.68.12-1.02.19-7.56,1.53-14.75,3.45-21.6,5.62-.38.12-.78.23-1.16.35h.06c-8.56,2.77-16.59,5.94-24.02,9.36.97-11.3,0-20.5-3.55-25.5-1.29-1.62-3.23-2.58-5.17-2.58-2.1,0-4.03.81-5.33,2.42-1.94,2.58-4.36,5.17-6.94,7.59-1.13-3.07-2.74-5.97-5.16-8.39-6.62-6.78-17.92-10.33-32.45-10.33-9.95,0-21.62,3.88-31.96,9.96-2.46-1.89-6-1.77-8.27.37-10.17,9.04-41.16,32.61-62.79,32.61-6.13,0-10.65-1.61-13.72-5-5.97-6.78-4.68-18.4-4.68-18.56.32-2.74-1.29-5.49-3.88-6.78-.81-.32-1.61-.48-2.58-.48,1.13-2.42.64-5.16-1.13-7.1-7.75-8.07-19.37-10.82-32.77-7.75-8.27,2.04-17.04,6.18-24.96,11.72-1.94-.62-4.11-.33-5.88,1.04-17.11,12.75-49.07,32.93-62.47,32.93-2.74,0-4.52-.48-5.33-1.29-1.94-2.58-.16-11.3.97-16.95,1.94-9.52,3.71-18.56-1.45-24.7-2.58-3.39-6.62-5-11.78-5-20.82,0-40.52,25.83-51.17,39.71l-.97,1.13c0-2.1,0-4.68.16-6.46.32-8.72.81-18.56-5.16-24.86-3.23-3.23-7.59-5-13.08-5-11.95,0-21.63,11.62-30.19,21.79-2.42,2.91-5.81,6.94-8.72,9.85,3.87-11.14,14.04-30.67,17.76-34.22,2.58-2.58,2.74-6.62.32-9.36-2.42-2.58-6.62-2.75-9.2-.16-3.73,3.3-9.62,13.99-13.61,21.88-1.88-.91-4.17-.87-6.09.24-39.87,23.25-102.18,42.78-120.1,42.78-2.74,0-3.23-1.13-3.55-1.78-3.07-6.13,2.58-23.57,8.72-31.32,2.26-2.74,1.77-6.78-1.13-9.04-2.75-2.26-6.94-1.94-9.2.97-6.94,8.72-16.63,31.8-10.33,45.04,2.9,5.97,8.39,9.2,15.5,9.2,20.49,0,79.48-19.12,119.34-40.45-4.31,11.94-2.89,15.62-2.14,17.37,1.29,3.55,4.52,5.65,8.23,5.65,9.04,0,16.47-8.88,24.38-18.24,6.29-7.59,14.21-17.11,20.02-17.11,1.78,0,2.91.32,3.55.97,2.1,2.26,1.77,9.69,1.61,15.17-.32,7.91-.65,15.5,3.87,20.18,1.45,1.62,4.36,3.55,8.72,3.55,4.03,0,5.81-2.26,11.62-9.85,7.91-10.33,26.47-34.54,40.84-34.54,1.13,0,1.61.16,1.78.16.97,1.94-.48,9.69-1.45,13.88-1.94,9.52-4.04,20.5,1.94,27.76,3.23,4.04,8.39,6.13,15.34,6.13,12.22,0,30.87-9.75,45.95-19.08-1.2,5.32-.33,10.21,2.81,14.23,2.74,3.39,7.75,7.43,17.27,7.59.16.16.48.16.65.16,15.82,0,38.26-10.82,55.21-25.67,1.13,4.52,3.07,9.2,6.62,13.24,5.65,6.3,13.56,9.52,23.57,9.52,14.65,0,31.06-7.72,44.47-16.01-.42,1.73-.67,3.47-.68,5.2-.32,5,1.45,9.85,5,13.56,3.07,3.39,9.04,7.43,19.53,7.43,13.56,0,56.5-15.66,80.71-37.61,0,4.2-.48,9.36-1.45,15.34-54.24,29.86-76.19,69.25-75.06,88.62.65,10.01,6.94,16.47,16.47,16.47,13.24,0,33.25-8.07,52.46-46.17,7.75-15.17,14.21-33.58,17.6-50.04,10.69-5.49,19.15-9.09,23.33-10.63,2.14-.79,7.27-2.5,8.19-2.81.37-.12.9-.28,1.9-.59.38-.12.73-.24,1.24-.38,0,0,.55-.16,1.11-.31,1.96-.52,29.71-6.75,46.39-8.26,3.61-.33,6.24-3.61,5.75-7.22m-332.34,23.26h0c-.16,0-.32,0-.48-.16-3.39,0-5.81-.81-7.1-2.58-2.1-2.74,1.77-10.98,11.62-19.37,8.72-7.59,22.12-14.69,33.25-14.69,4.84,0,9.2,1.45,12.59,4.84,1.13,1.29,2.58,1.94,4.2,2.1-14.37,15.98-39.39,29.86-54.08,29.86m153.71,7.26h0c-4.52,0-8.07-1.13-10.01-3.23-.97-1.13-1.61-2.58-1.45-4.04v-.48c0-13.24,27.12-32.28,46.17-32.28,14.69,0,20.66,4.03,23.08,6.29,1.61,1.78,2.42,3.55,2.26,5.65,0,.97.16,1.94.48,2.74-21.95,14.85-51.98,25.34-60.53,25.34m61.5,43.91h0c-12.43,24.7-27.44,38.9-40.84,38.9-1.45,0-3.07,0-3.39-4.2-.48-9.85,9.52-33.42,39.87-57.47,5.17-4.04,11.14-8.23,18.08-12.59-3.23,11.14-7.59,23.41-13.72,35.35"/>
      <path class="cls-1" d="m25.52,289.26c-2.11,0-4.16-.35-6.16-1.04-2-.69-3.73-1.69-5.18-3.01l1.6-2.38c1.52,1.24,3.07,2.18,4.64,2.8,1.57.62,3.26.93,5.05.93,2.18,0,3.91-.44,5.21-1.32,1.29-.88,1.94-2.13,1.94-3.76,0-.76-.17-1.39-.52-1.89-.35-.5-.85-.94-1.53-1.32-.67-.38-1.52-.72-2.54-1.01s-2.2-.6-3.55-.91c-1.55-.38-2.9-.76-4.04-1.14-1.14-.38-2.08-.81-2.82-1.29-.74-.49-1.29-1.08-1.66-1.79-.36-.71-.54-1.6-.54-2.67,0-1.35.27-2.54.8-3.58.53-1.03,1.26-1.89,2.18-2.56.91-.67,1.98-1.18,3.21-1.53,1.23-.34,2.53-.52,3.91-.52,2.07,0,3.95.34,5.65,1.01,1.69.67,3.06,1.56,4.09,2.67l-1.71,2.07c-1-1.03-2.22-1.81-3.65-2.33-1.43-.52-2.93-.78-4.48-.78-.93,0-1.8.1-2.59.28-.8.19-1.49.49-2.1.91-.61.42-1.08.94-1.43,1.58-.34.64-.52,1.39-.52,2.25,0,.72.12,1.31.36,1.76.24.45.64.84,1.19,1.16.55.33,1.25.62,2.1.88.85.26,1.87.53,3.08.8,1.73.41,3.25.83,4.56,1.24,1.31.41,2.41.9,3.29,1.45.88.55,1.55,1.23,1.99,2.02.45.8.67,1.76.67,2.9,0,2.49-.95,4.45-2.85,5.91-1.9,1.45-4.46,2.18-7.67,2.18"/>
      <path class="cls-1" d="m64.05,287.44c-.21.1-.51.24-.91.41-.4.18-.85.35-1.37.52-.52.17-1.11.33-1.76.46-.66.14-1.35.21-2.07.21-.76,0-1.49-.1-2.18-.31-.69-.21-1.29-.52-1.81-.96-.52-.43-.93-.97-1.24-1.63-.31-.66-.47-1.41-.47-2.28v-19.32h-3.73v-2.8h3.73v-9.12h3.52v9.12h6.22v2.8h-6.22v18.34c.07,1,.42,1.73,1.06,2.2.64.47,1.37.7,2.2.7,1,0,1.88-.16,2.64-.49.76-.33,1.24-.56,1.45-.7l.93,2.85Z"/>
      <path class="cls-1" d="m84.57,289.26c-1.28,0-2.46-.22-3.55-.65-1.09-.43-2.04-1.03-2.85-1.79-.81-.76-1.44-1.65-1.89-2.67-.45-1.02-.67-2.11-.67-3.29s.28-2.26.83-3.26c.55-1,1.33-1.86,2.33-2.59,1-.72,2.19-1.29,3.57-1.68,1.38-.4,2.9-.6,4.56-.6,1.38,0,2.78.12,4.2.36,1.41.24,2.68.59,3.78,1.04v-2.44c0-2.38-.67-4.27-2.02-5.67-1.35-1.4-3.21-2.1-5.59-2.1-1.38,0-2.8.28-4.25.83-1.45.55-2.92,1.35-4.4,2.38l-1.24-2.33c3.49-2.35,6.87-3.52,10.15-3.52s6.04.95,7.98,2.85c1.93,1.9,2.9,4.52,2.9,7.87v12.17c0,.97.43,1.45,1.29,1.45v3.11c-.59.1-1.03.16-1.35.16-.9,0-1.6-.23-2.1-.67-.5-.45-.77-1.07-.8-1.87l-.1-2.12c-1.24,1.62-2.81,2.87-4.69,3.73-1.88.86-3.91,1.3-6.09,1.3m.83-2.69c1.83,0,3.51-.34,5.05-1.04,1.54-.69,2.7-1.6,3.5-2.74.31-.31.54-.65.7-1.01.15-.36.23-.7.23-1.01v-4.4c-1.18-.45-2.39-.79-3.65-1.04-1.26-.24-2.55-.36-3.86-.36-2.49,0-4.51.52-6.06,1.56-1.56,1.04-2.33,2.4-2.33,4.09,0,.83.16,1.61.49,2.33.33.73.78,1.35,1.35,1.89.57.54,1.25.96,2.05,1.27.79.31,1.64.47,2.54.47"/>
      <path class="cls-1" d="m128.8,264.86c-2.38.07-4.46.72-6.22,1.97-1.76,1.24-3,2.95-3.73,5.13v16.78h-3.52v-26.99h3.32v6.47c1-2.07,2.35-3.7,4.04-4.87,1.69-1.17,3.5-1.76,5.44-1.76.28,0,.5.02.67.05v3.21Z"/>
      <path class="cls-1" d="m155.79,287.44c-.21.1-.51.24-.91.41-.4.18-.85.35-1.37.52-.52.17-1.11.33-1.76.46-.66.14-1.35.21-2.07.21-.76,0-1.49-.1-2.18-.31-.69-.21-1.29-.52-1.81-.96-.52-.43-.93-.97-1.24-1.63-.31-.66-.47-1.41-.47-2.28v-19.32h-3.73v-2.8h3.73v-9.12h3.52v9.12h6.21v2.8h-6.21v18.34c.07,1,.42,1.73,1.06,2.2.64.47,1.37.7,2.2.7,1,0,1.88-.16,2.64-.49.76-.33,1.24-.56,1.45-.7l.93,2.85Z"/>
      <rect class="cls-1" x="168.53" y="272.99" width="15.13" height="3.26"/>
      <path class="cls-1" d="m208.68,289.26c-2.93,0-5.12-.98-6.55-2.93-1.43-1.95-2.15-4.86-2.15-8.73v-15.85h3.52v15.23c0,6.11,2.09,9.17,6.27,9.17,1.04,0,2.06-.17,3.06-.52,1-.35,1.92-.85,2.77-1.5.85-.66,1.61-1.43,2.28-2.33.67-.9,1.22-1.92,1.63-3.06v-16.99h3.52v22.43c0,.97.41,1.45,1.24,1.45v3.11c-.41.07-.75.1-1.01.1h-.54c-.83-.03-1.5-.33-2.02-.88-.52-.55-.78-1.29-.78-2.23v-3.11c-1.17,2.11-2.77,3.74-4.79,4.9-2.02,1.16-4.17,1.74-6.45,1.74"/>
      <path class="cls-1" d="m254.11,289.25c-2.28,0-4.29-.58-6.04-1.74-1.74-1.16-3.15-2.61-4.22-4.38v16.63h-3.52v-38.02h3.16v5.23c1.1-1.69,2.54-3.06,4.3-4.12,1.76-1.06,3.68-1.58,5.75-1.58,1.86,0,3.57.39,5.13,1.16,1.55.78,2.9,1.81,4.04,3.11,1.14,1.29,2.03,2.79,2.67,4.48.64,1.69.96,3.43.96,5.23,0,1.9-.29,3.7-.88,5.39-.59,1.69-1.42,3.18-2.51,4.45-1.09,1.28-2.38,2.29-3.88,3.03-1.5.74-3.15,1.11-4.95,1.11m-.99-3.11c1.45,0,2.77-.31,3.96-.93,1.19-.62,2.21-1.44,3.06-2.46.85-1.02,1.49-2.18,1.94-3.47.45-1.3.67-2.63.67-4.02,0-1.45-.26-2.83-.78-4.15-.52-1.31-1.23-2.47-2.12-3.47-.9-1-1.96-1.8-3.18-2.38-1.23-.59-2.55-.88-3.96-.88-.9,0-1.84.18-2.82.54-.98.36-1.9.85-2.75,1.45-.85.6-1.57,1.31-2.17,2.12-.61.81-.98,1.67-1.12,2.56v8.29c.41.97.94,1.86,1.58,2.69.64.83,1.36,1.55,2.18,2.15.81.61,1.68,1.08,2.62,1.42.93.35,1.9.52,2.9.52"/>
      <path class="cls-1" d="m298.6,289.26c-2.11,0-4.16-.35-6.16-1.04-2-.69-3.73-1.69-5.18-3.01l1.6-2.38c1.52,1.24,3.06,2.18,4.64,2.8,1.57.62,3.25.93,5.05.93,2.18,0,3.91-.44,5.2-1.32,1.29-.88,1.94-2.13,1.94-3.76,0-.76-.17-1.39-.52-1.89-.34-.5-.85-.94-1.53-1.32-.67-.38-1.52-.72-2.54-1.01-1.02-.29-2.2-.6-3.55-.91-1.55-.38-2.9-.76-4.04-1.14-1.14-.38-2.08-.81-2.82-1.29-.74-.49-1.29-1.08-1.66-1.79-.36-.71-.54-1.6-.54-2.67,0-1.35.27-2.54.8-3.58.53-1.03,1.26-1.89,2.17-2.56.91-.67,1.98-1.18,3.21-1.53,1.22-.34,2.53-.52,3.91-.52,2.07,0,3.95.34,5.65,1.01,1.69.67,3.06,1.56,4.09,2.67l-1.71,2.07c-1-1.03-2.22-1.81-3.65-2.33-1.43-.52-2.93-.78-4.48-.78-.93,0-1.8.1-2.59.28-.79.19-1.49.49-2.1.91-.6.42-1.08.94-1.42,1.58-.34.64-.52,1.39-.52,2.25,0,.72.12,1.31.36,1.76.24.45.64.84,1.19,1.16.55.33,1.25.62,2.1.88.85.26,1.87.53,3.08.8,1.73.41,3.25.83,4.56,1.24,1.31.41,2.41.9,3.29,1.45.88.55,1.54,1.23,1.99,2.02.45.8.67,1.76.67,2.9,0,2.49-.95,4.45-2.85,5.91-1.9,1.45-4.45,2.18-7.67,2.18"/>
      <path class="cls-1" d="m337.14,287.44c-.21.1-.51.24-.91.41-.4.18-.85.35-1.37.52-.52.17-1.11.33-1.76.46-.66.14-1.35.21-2.07.21-.76,0-1.49-.1-2.18-.31-.69-.21-1.29-.52-1.81-.96-.52-.43-.93-.97-1.24-1.63-.31-.66-.47-1.41-.47-2.28v-19.32h-3.73v-2.8h3.73v-9.12h3.52v9.12h6.21v2.8h-6.21v18.34c.07,1,.42,1.73,1.06,2.2.64.47,1.37.7,2.2.7,1,0,1.88-.16,2.64-.49.76-.33,1.24-.56,1.45-.7l.93,2.85Z"/>
      <path class="cls-1" d="m359.31,289.26c-2.93,0-5.12-.98-6.55-2.93-1.43-1.95-2.15-4.86-2.15-8.73v-15.85h3.52v15.23c0,6.11,2.09,9.17,6.27,9.17,1.04,0,2.05-.17,3.06-.52,1-.35,1.92-.85,2.77-1.5.85-.66,1.61-1.43,2.28-2.33.67-.9,1.22-1.92,1.63-3.06v-16.99h3.52v22.43c0,.97.42,1.45,1.24,1.45v3.11c-.41.07-.75.1-1.01.1h-.54c-.83-.03-1.5-.33-2.02-.88-.52-.55-.78-1.29-.78-2.23v-3.11c-1.17,2.11-2.77,3.74-4.79,4.9-2.02,1.16-4.17,1.74-6.45,1.74"/>
      <path class="cls-1" d="m402.04,289.25c-1.86,0-3.59-.39-5.18-1.17-1.59-.78-2.95-1.8-4.09-3.08-1.14-1.27-2.03-2.75-2.67-4.43-.64-1.67-.96-3.43-.96-5.26s.31-3.7.93-5.41,1.48-3.2,2.56-4.48c1.09-1.28,2.38-2.29,3.89-3.03,1.5-.74,3.15-1.11,4.95-1.11,2.28,0,4.3.59,6.06,1.79,1.76,1.19,3.14,2.63,4.14,4.32v-16.47h3.52v33.26c0,.97.42,1.45,1.24,1.45v3.11c-.52.1-.93.16-1.24.16-.83,0-1.55-.27-2.18-.8-.62-.54-.93-1.18-.93-1.94v-2.64c-1.07,1.76-2.52,3.16-4.35,4.2-1.83,1.03-3.73,1.55-5.7,1.55m.78-3.11c.86,0,1.79-.17,2.77-.52.99-.35,1.91-.82,2.77-1.42.86-.6,1.6-1.31,2.2-2.12.6-.81.97-1.68,1.11-2.61v-8.34c-.34-.93-.85-1.8-1.5-2.61-.66-.81-1.41-1.53-2.25-2.15-.85-.62-1.75-1.1-2.72-1.45-.97-.34-1.92-.52-2.85-.52-1.45,0-2.76.31-3.94.93-1.18.62-2.19,1.44-3.03,2.46-.85,1.02-1.5,2.19-1.94,3.5-.45,1.31-.67,2.66-.67,4.04,0,1.45.26,2.83.78,4.15.52,1.31,1.23,2.46,2.13,3.44.9.99,1.96,1.77,3.19,2.36,1.22.59,2.54.88,3.96.88"/>
      <path class="cls-1" d="m432.5,250.92h3.52v5.18h-3.52v-5.18Zm0,10.83h3.52v26.99h-3.52v-26.99Z"/>
      <path class="cls-1" d="m464.61,289.26c-1.97,0-3.76-.37-5.39-1.11-1.62-.74-3.03-1.75-4.22-3.03-1.19-1.28-2.12-2.76-2.77-4.45-.66-1.69-.98-3.47-.98-5.34s.34-3.7,1.01-5.39c.67-1.69,1.61-3.18,2.8-4.45,1.19-1.28,2.6-2.3,4.22-3.06,1.62-.76,3.4-1.14,5.34-1.14s3.72.38,5.36,1.14c1.64.76,3.05,1.78,4.25,3.06,1.19,1.28,2.13,2.76,2.8,4.45.67,1.69,1.01,3.49,1.01,5.39s-.33,3.65-.98,5.34c-.66,1.69-1.58,3.18-2.77,4.45-1.19,1.28-2.61,2.29-4.25,3.03-1.64.74-3.44,1.11-5.41,1.11m-9.79-13.88c0,1.52.26,2.93.78,4.22.52,1.3,1.22,2.44,2.1,3.42.88.98,1.92,1.75,3.11,2.31,1.19.55,2.46.83,3.81.83s2.62-.28,3.81-.85c1.19-.57,2.23-1.34,3.13-2.33.9-.98,1.61-2.13,2.13-3.44s.78-2.73.78-4.25-.26-2.89-.78-4.22c-.52-1.33-1.23-2.49-2.13-3.47-.9-.98-1.94-1.76-3.13-2.33s-2.46-.85-3.81-.85-2.61.28-3.78.85c-1.18.57-2.21,1.35-3.11,2.36-.9,1-1.61,2.17-2.13,3.5-.52,1.33-.78,2.76-.78,4.28"/>
      <path class="cls-1" d="m776.46,110.28c-2.03,0-3.88-.51-5.57-1.52-1.68-1.01-3-2.32-3.95-3.93v4.96h-2.99v-35.82h3.34v15.61c1.15-1.73,2.52-3.13,4.12-4.2,1.6-1.06,3.47-1.59,5.59-1.59,1.8,0,3.41.38,4.83,1.13,1.42.75,2.63,1.76,3.63,3.02,1,1.26,1.77,2.68,2.31,4.27.54,1.59.81,3.21.81,4.88,0,1.8-.31,3.5-.93,5.1-.62,1.6-1.47,3-2.55,4.2-1.08,1.19-2.36,2.14-3.85,2.85-1.49.7-3.08,1.06-4.78,1.06m-.79-2.94c1.41,0,2.69-.29,3.85-.86s2.16-1.34,2.99-2.31c.83-.97,1.49-2.06,1.96-3.29.47-1.23.71-2.49.71-3.8s-.22-2.63-.66-3.88c-.44-1.24-1.06-2.35-1.86-3.31-.8-.97-1.77-1.73-2.9-2.31-1.13-.57-2.37-.86-3.7-.86-1.01,0-1.96.17-2.85.52s-1.7.81-2.45,1.4c-.75.59-1.42,1.27-2.01,2.04-.59.77-1.08,1.58-1.47,2.43v7.95c.13.88.48,1.71,1.06,2.48.57.77,1.26,1.43,2.06,1.99s1.67,1,2.6,1.32c.93.33,1.82.49,2.67.49"/>
      <path class="cls-1" d="m797.26,117.64c.26.03.52.06.76.07.25.01.48.02.71.02.59,0,1.06-.08,1.4-.24.34-.17.68-.52,1.01-1.08.33-.56.7-1.36,1.1-2.41.41-1.05.99-2.45,1.74-4.22l-11.14-25.57h3.44l9.47,22.48,8.78-22.48h3.19l-13.25,32.98c-.36.95-.96,1.77-1.79,2.48-.83.7-1.97,1.06-3.41,1.06-.33,0-.64,0-.93-.03s-.65-.06-1.08-.12v-2.94Z"/>
      <path class="cls-1" d="m1006.21,73.96c-1.72,0-3.3.23-4.75.65-1.49.42-2.75,1.02-3.77,1.86-1.07.84-1.91,1.86-2.47,3.08-.6,1.21-.88,2.61-.88,4.19,0,1.3.19,2.42.65,3.36.42.93,1.07,1.72,1.91,2.37.84.65,1.91,1.21,3.21,1.68,1.26.47,2.75.93,4.42,1.3,1.49.37,2.84.74,4.06,1.12,1.21.37,2.18.74,3.02,1.21.79.47,1.4,1.02,1.82,1.68.42.65.65,1.4.65,2.33,0,1.68-.65,2.93-1.96,3.77-1.3.84-3.17,1.26-5.49,1.26-1.3,0-2.52-.09-3.68-.37-1.17-.28-2.24-.6-3.26-1.02-1.02-.42-1.91-.88-2.7-1.45-.79-.51-1.44-1.02-1.91-1.58l-2,3.54c1.86,1.54,3.91,2.7,6.19,3.49,2.28.79,4.7,1.17,7.26,1.17,1.68,0,3.26-.14,4.75-.51,1.44-.37,2.7-.93,3.77-1.68,1.07-.75,1.91-1.72,2.57-2.89.6-1.16.93-2.56.93-4.15,0-1.49-.28-2.75-.79-3.77-.51-1.02-1.26-1.86-2.24-2.61-.98-.7-2.14-1.3-3.54-1.77-1.4-.47-2.94-.93-4.61-1.3-1.49-.32-2.79-.65-3.86-.98-1.12-.28-2-.65-2.75-1.07-.75-.42-1.26-.93-1.59-1.54-.37-.56-.51-1.3-.51-2.24,0-1.68.56-2.98,1.77-3.95,1.21-.93,3.08-1.45,5.68-1.45.97,0,1.91.14,2.84.33.93.19,1.77.47,2.56.79.74.33,1.44.7,2.09,1.07.6.42,1.12.84,1.49,1.26l1.96-3.4c-1.39-1.12-3.03-2.05-4.8-2.75-1.81-.65-3.82-1.02-6.05-1.02Z"/>
      <polygon class="cls-1" points="830.43 74.2 830.43 107.26 834.63 107.26 834.63 81.69 842.03 94.91 844.26 91.1 834.86 74.2 830.43 74.2"/>
      <polygon class="cls-1" points="858.84 74.2 846.82 95.66 844.64 99.48 845.66 101.3 848.04 101.3 859.03 81.69 859.03 107.26 863.21 107.26 863.21 74.2 858.84 74.2"/>
      <polygon class="cls-1" points="871.09 74.2 871.09 84.44 875.28 84.44 875.28 77.92 893.11 77.92 893.11 74.2 871.09 74.2"/>
      <polygon class="cls-1" points="899.28 74.2 899.28 76.71 903.47 82.02 923.68 107.26 927.22 107.26 927.22 74.24 923.03 74.24 923.03 99.94 902.54 74.2 899.28 74.2"/>
      <polygon class="cls-1" points="945.17 74.2 931.62 107.26 935.91 107.26 946.94 79.04 948.71 74.2 945.17 74.2"/>
      <path class="cls-1" d="m966.67,74.2v13.22h4.19v-9.5h9.36c.79,0,1.53.19,2.28.51.7.37,1.35.84,1.91,1.44.56.65.98,1.35,1.3,2.19.33.84.51,1.77.51,2.7s-.14,1.81-.42,2.65c-.33.88-.7,1.59-1.17,2.24-.51.65-1.12,1.12-1.81,1.49-.7.37-1.5.51-2.33.51h-13.83v15.6h4.19v-11.87h9.87c1.45,0,2.75-.28,3.96-.88,1.21-.56,2.23-1.35,3.08-2.38.84-.97,1.49-2.09,2-3.4.47-1.26.7-2.56.7-3.95,0-1.3-.28-2.57-.74-3.82-.52-1.26-1.21-2.38-2.1-3.4-.89-1.02-1.96-1.82-3.17-2.42-1.21-.61-2.56-.93-4.01-.93h-13.78Z"/>
      <polygon class="cls-1" points="950.53 78.71 948.71 83.65 952.9 94.31 944.61 94.31 943.36 97.57 953.83 97.57 957.74 107.26 962.22 107.26 950.53 78.71"/>
      <polygon class="cls-1" points="899.28 83.23 899.28 107.25 903.47 107.25 903.47 88.67 899.28 83.23"/>
      <polygon class="cls-1" points="871.09 88.63 871.09 99.34 875.28 99.34 875.28 92.12 890.79 92.12 890.79 88.63 871.09 88.63"/>
      <rect class="cls-1" x="871.09" y="103.53" width="22.44" height="3.72"/>
    </g>
  </g>
</svg>